<?xml version="1.0" encoding="utf-8"?>
<!-- Generator: Adobe Illustrator 22.0.1, SVG Export Plug-In . SVG Version: 6.00 Build 0)  -->
<svg version="1.1" id="Layer_1" xmlns="http://www.w3.org/2000/svg" xmlns:xlink="http://www.w3.org/1999/xlink" x="0px" y="0px"
	 viewBox="0 0 1920 1080" style="enable-background:new 0 0 1920 1080;" xml:space="preserve">
<style type="text/css">
	.st0{fill:#C3D8CC;}
	.st1{fill:#272525;}
</style>
<g id="object">
	<g id="XMLID_4884_">
		<g id="XMLID_5014_">
			<g id="XMLID_5017_">
				<g id="XMLID_5020_">
					
						<ellipse id="XMLID_5023_" transform="matrix(0.7071 -0.7071 0.7071 0.7071 -47.5404 780.2324)" class="st0" cx="918.1" cy="447.5" rx="326.8" ry="326.8"/>
				</g>
			</g>
		</g>
		<g id="XMLID_4922_">
			<g id="XMLID_5007_">
				<path id="XMLID_5010_" d="M206.3,516.3c1.8,0.9,3.5,1.9,5.3,2.2c13.5,5.2,24,13.1,35.1,20.9c15.8,11.9,26.9,28.5,32.8,49.9
					c3.5,14.7,1.2,32-8.8,51c-2.9,6.3-6.4,13.2-11.1,19.1c-1.8,2.6-4.7,6.5-7.6,9.3c-11.1,12.1-23.4,20.8-36.9,28
					c-6.4,4.4-13.5,6-19.9,6.3c-5.3,0.7-10,2-15.2,5.6c-4.7,3-8.8,4.7-14.1,7.2c-12.3,4.6-22.8,6.7-33.4,6.4
					c-15.8-0.2-31-2.7-41-11.9c-8.8-8.2-11.1-20.1-5.9-37.3c4.1-10.5,9.4-21.2,17-32.2c6.4-10.3,14.1-20.7,23.4-30.2
					c1.8-1.4,2.9-3.9,4.1-5.8c4.7-9.4,7-11.5,15.8-11.6c3.5-1.7,5.9-7.3,10.5-6.1c-2.3,1.5-4.1,2.9-7.6,5.2c2.9,0.2,4.7,0.5,5.9,0.4
					c0,2.9,0,5.3,0.6,8.1c0.6,1.7,0,3.5-1.8,6.1c-3.5,5.2-6.4,10.3-10.5,16.1c-5.9,8.4-10,16-11.1,25c-1.2,5.4-1.2,10.1-1.8,16.1
					c-0.6,4.2,1.2,6.9,5.3,7.5c4.7,1.1,10.5,0.9,16.4-1.1c10.5-3.2,21.7-7.1,32.2-13.3c10.5-6.1,21.7-11.8,32.2-18.5
					c7.6-4.6,15.8-10.4,22.8-17.8c5.3-4.8,7-9.8,5.3-13c-4.1-12.9-9.4-23.9-20.5-31.1c-18.2-12.1-39.2-22.1-60.3-31.5
					c-12.9-5.8-24.6-12.4-35.7-20.2c-12.9-8.2-22.3-19.8-29.3-32.3c-13.5-20.4-1.2-52.6,17.6-78c17-23.4,39.8-40.7,63.3-56.8
					c7-3.9,14.1-6.6,20.5-10.5c35.7-17.9,69.1-23.7,101.3-25.8c10-0.2,19.3,0.2,29.3,0c10.5-0.3,20.5,0.7,28.1,5.5
					c2.9,1.9,4.7,4,2.9,9c-0.6,1.2-0.6,3-0.6,4.2c-0.6,3-0.6,5.9-1.8,9c-4.7,10.6-8.2,21.1-8.8,31.1c-0.6,4.2-3.5,10.4-6.4,15.5
					c-2.3,5-5.9,9-8.2,13.4c-2.3,4.4-5.3,7.8-9.4,10.7c-6.4,3.8-11.7,7.5-18.2,10.1c-3.5,2.3-7,2.7-9.4,1.3
					c-8.8-2.3-18.2-2.8-27.5-2.6c-18.7,0.3-37.5-0.1-58,3.4c-5.9,1.4-12.3,2.9-18.2,5.4c-7,2.1-13.5,4.8-19.9,6.9
					c-42.2,16.4-17.6,43.4,3.5,55.8C188.2,504.8,197.5,510.5,206.3,516.3z"/>
			</g>
			<g id="XMLID_4997_">
				<path id="XMLID_5000_" d="M547.9,511.1c-0.6,4.2-6.4,19.1-9.4,21.8c-1.8,0.8-2.3,2.7-3.5,3.4c-2.3,3.3-4.1,5.8-6.4,8.5
					c-1.2,1.3-2.9,2.8-3.5,4.6c-1.8,3.8-4.1,5.8-7,8c-1.2,0.7-2.3,1.5-2.9,2.7c-3.5,4.6-8.2,8.8-11.7,12.8c-3.5,3.4-7,5.7-11.1,7.4
					c-5.3,1.9-10,2.6-14.6,5c-4.1,2.3-8.8,3-13.5,4.8c-1.8,0.2-3.5,0.5-5.3,0.7c-7-1.4-14.1-1.6-19.9-5.4c-0.6-0.5-1.8-0.9-2.9-1.4
					c-5.3-1.6-10.5-3.8-14.1-8c-4.7,3-8.8,5.9-12.3,9.3c-2.3,1.5-4.1,2.9-6.4,5c-0.6,0.1-1.2,0.7-1.2,0.7c-3.5,5.2-8.2,6.4-12.9,8.8
					c-8.2,3.5-16.4,4.6-24,1.6c-2.9-1.4-5.9-2.1-8.8-2.9c-17-4.7-26.4-16.3-28.1-34.2c-1.2-9.2,0.6-18.2,4.7-27
					c4.1-8.2,8.2-16.4,14.1-23.6c0-0.6,0.6-1.3,1.2-1.9c7.6-12.8,17-25.2,25.8-37c6.4-7.9,13.5-14.8,22.3-21.3
					c1.2-0.7,3.5-1.7,5.3-1.9c3.5-1.1,7-2.1,11.1-2.7c0.6-0.1,1.2-0.2,1.8-0.2c3.5,1.3,8.2,0.6,12.3,1.2c1.2,0.4,2.3,0.8,3.5,0.7
					c2.9,0.2,5.3-0.1,6.4,2c0.6,0.5,1.2,0.4,1.2,0.4c2.9-0.4,5.3,2.2,8.2,1.8c1.2-0.2,2.3,0.3,2.9,0.8c3.5,3,7.6,5.4,10,9.2
					c0.6,1.7,1.2,2.8,1.8,4.4c1.2,5.1,0,8.8-5.3,12.4c-5.3,3.1-10,7.2-14.6,11.4c0,0,0,0,0,0.6c-6.4,7.3-14.1,14.3-19.3,22.6
					c-2.3,3.2-4.7,5.9-7,8.6c-5.3,6.6-9.4,13.6-14.1,20.7c-1.8,3.2-4.1,6.4-5.9,9c-1.2,1.3-1.8,2.6-2.3,3.8
					c-3.5,6.9-5.9,13.7-7,20.3c-0.6,0.7,0,1.2,0,2.3c1.2-0.8,1.8-1.4,2.3-2.1c5.9-6.7,12.3-13.4,19.3-19.7c3.5-3.4,6.4-6.7,8.8-11.2
					c1.2-1.9,2.9-3.9,4.7-5.9c3.5-4.6,7-9.2,10-14.3c4.1-7,8.2-14,12.3-21.6c5.3-1.3,9.4-1.3,12.9,2.3c1.2,1,2.3,2,3.5,3
					c4.1,4.7,4.7,10.5,5.3,16.3c0,1.2-0.6,1.8-1.2,3.1c-2.3,5.6-5.3,11.9-8.2,17.5c-1.8,4.3-2.3,8.5-1.8,12.5
					c1.2,4.5,2.9,9.5,5.3,13.9c1.2,1.6,2.9,2.5,5.3,2.2c4.1-1.2,8.2-2.3,12.3-4.6c3.5-2.2,7.6-4.6,11.1-7.4
					c4.1-2.9,8.2-5.8,12.9-9.4c2.9-3.3,6.4-6.2,9.4-9.5c7.6-8.7,19.3-29.6,26.9-38.3c0.6-0.7,1.2-0.8,1.8-1.4
					C542,506.6,544.9,508.5,547.9,511.1z"/>
			</g>
			<g id="XMLID_4986_">
				<path id="XMLID_4987_" d="M700.8,486.3c0,3.5-1.8,3.8-1.2,6.6c0.6,2.3-5.9,20.1-7,22.7c-3.5,9.9-7.6,19.8-11.1,29.7
					c-5.3,11.3-10.5,21.4-15.8,32.1c-2.3,4.4-29.9,43.4-32.8,46.1c-7.6,6.3-20.5,23.3-27.5,29c-4.7,3.6-22.3,12.5-26.4,13.6
					c-7.6,1.6-15.8,3.4-22.8,2.6c-12.3-0.1-30.5-15.7-36.3-26.6c-2.9-4.9-6.4-9.1-8.2-14.7c-2.3-7.3-4.1-19.3-4.7-28
					c0-49.2,5.9-57.1,19.9-106.5c1.2-4.3,1.8-7.9,2.9-12.1c0.6-4.2,2.3-8.5,3.5-12.2c1.8-6.7,3.5-13.4,5.3-19.5
					c2.9-13.3,18.2-37.7,4.1-38.7c-4.1,0-7.6,1.1-11.1-1.4c-3.5-1.8-7-3.1-10.5-5c-1.2-1-2.9-1.9-3.5-4.8c1.2-0.8,2.3-1.5,2.9-1.6
					c8.2-2.9,15.8-5.7,24-8.6c5.3-1.9,11.1-3.3,17-4.7c2.3-0.9,4.7-2.4,5.9-5.5c1.8-4.9,4.7-9.4,5.9-14.9
					c5.9-11.9,10-24.2,16.4-35.7c5.9-10.2,11.7-19.2,19.3-27.3c1.2-1.9,2.9-3.9,4.1-5.3c2.3-2.1,4.7-3.6,7.6-3.4
					c3.5,0.7,7-1.6,11.1-2.1c0.6-0.1,0.6-0.1,1.2-0.8c8.2-2.9,11.1,0.2,13.5,6.3c2.9,5.5,4.1,11.2,4.1,18.2c0,3.5,0.6,6.4,1.2,9.2
					c0.6,2.3,0.6,5.2,0,8.2s-1.2,6-1.8,9.6c-1.2,4.9-2.3,9.7-3.5,14.6c0,1.8,0,2.9-0.6,4.8c1.8,0.9,3.5,0.7,5.9,0.4
					c7-1.6,14.6-3.2,21.7-4.8c10-1.4,20.5-2.8,30.5-4.2c3.5-0.5,7,0.2,11.1,0.2c-1.2,1.9-1.8,3.2-2.3,3.8c-1.2,1.3-2.9,2.7-4.1,3.5
					c-4.1,2.3-8.8,5.3-12.9,7.7c0,0.6-0.6,0.7-0.6,0.7c-6.4,1.5-13.5,5.4-20.5,5.8c-4.1,0.6-8.2,1.7-12.3,3.5
					c-2.3,1.5-5.3,1.9-7.6,2.8c-4.7,1.2-8.8,2.4-13.5,3.6c-2.3,0.9-3.5,2.8-4.7,5.3c-0.6,0.7-0.6,1.2-1.2,1.9
					c-7,20.9-16.4,40.9-24,61.3c-1.2,2.5-2.3,5-2.9,6.9c-2.9,6.3-5.3,11.9-7,18.5c-1.8,5.5-4.7,11.2-7.6,16.3
					c-2.3,4.4-1.8,9.6-4.7,14.1c-6.4,15.5-14.1,61.1-12.9,83.2c0.6,9.3,2.9,17.8,5.9,26.1c1.2,2.8,3.5,4.2,5.3,6.3
					c0.6-0.1,1.2,0.4,2.3,0.3c5.3-0.7,15.8-1.6,21.1-5.9c3.5-2.8,21.1-19.3,24.6-22.8c8.8-10,28.7-34.4,34.6-47
					c5.3-10.7,8.2-24,13.5-34.1c2.3-6.2,8.2-19.9,11.1-26.7C697.2,487.4,701.3,484.5,700.8,486.3z M610,412.2
					c5.9-15.5,7.6-27.4-11.7-12.4c-6.4,20.2-8.8,34-14.1,52.9c-12.9,50.4,5.9,11.5,14.1-11.3C602.4,429.7,604.7,423.5,610,412.2z
					 M628.1,342.3c0.6-2.4,1.2-5.4,1.8-8.4c0.6-4.8,1.8-9.6,2.3-14.4c0.6-5.3,0-10.5-0.6-15.7c-0.6-2.3-2.3-2.6-3.5-1.3
					c-2.3,2.1-4.1,3.5-5.3,6.6c-2.3,5-4.7,10.6-5.9,16c-0.6,1.8-1.8,3.8-2.3,5.6c-1.2,2.5-2.3,5-3.5,8.1c-1.2,6-2.3,12.6-4.1,19.3
					c-2.3,15.6,14.1,13.9,17.6,2.8C625.8,355,626.9,348.9,628.1,342.3z"/>
			</g>
			<g id="XMLID_4977_">
				<path id="XMLID_4980_" d="M745.9,543.9c-10,6.7-22.8,7.9-29.3,10.5c-5.3,0.7-18.7-0.3-22.8-2.1c-14.6-6.7-15.2-10.8-18.2-29.7
					c-1.8-4.4-0.6-15.2,2.9-25c2.9-13.9,34.6-66.9,39.8-79.9c2.9-6.9,5.9-13.7,10.5-21.4c1.8-4.3,4.7-5.9,7.6-8.1
					c4.1-2.3,8.2-2.9,11.1-6.2c8.8-5.9,2.3-9.1,8.2-10.5c5.9-0.8,10,1,12.9,4.7c2.3,0.3,2.3,3.2,4.7,5.2c1.8,0.9,1.2,3.4,1.2,5.7
					c-3.5,15.1-16.4,44.5-19.9,59c-2.9,4.5-4.1,21.1-5.3,24.7c-1.2,6-2.3,11.5-5.3,17.7c-1.2,4.9-4.1,14-1.2,16
					c2.3,2.6,3.5,12.4,7,10.7c14.1-9.6,32.8-12.8,40.4-23.2c4.7-7.1,7.6-4.6,12.3-11.1c4.1-4.7,5.3-8.3,7-11.5
					c3.5-8.1,4.1-5.8,7-12.7c3.5-8.1,8.8-15.9,13.5-23c1.8-5.5,4.1-9.4,7.6-14.5c5.9-2.6,5.3-1.9,7.6-1.6c8.8-1.8,1.2-0.2,6.4,2
					c1.2,2.2,0,4.7,1.8,5.6c-4.1,11.7-4.7,23.5-10,37.1c-1.8,4.3-0.6,0.1-4.1,5.8c0.6,3.4-1.8,9-4.1,14c-2.3,5.6-1.8,12-5.3,17.1
					c-4.7,20.6-7,31.4-7,33.8c-1.8,7.9,18.7,10.3,39.2,1c13.5-7.7,37.5-33.9,48.6-53.6c4.1-7.6,7.6-15.1,14.1-25.4
					c5.9-11.3,10.5,5.6,8.2,10c-1.8,3.2-2.9,5.7-3.5,7.5c-4.7,4.2-10,23.6-14.1,27.7c-1.2,1.3-0.6,3-3.5,4.6
					c-7.6,11-22.8,29.5-34.6,40.5c-5.3,1.9-5.9,3.7-11.1,6.8c-4.1,4.7-5.3,5.4-10.5,9.1c-4.1,2.3-4.7,3-6.4,5
					c-4.7-0.5-5.9,1.4-7.6,2.8c-11.1,8-58.6,16.9-62.1-2.5c-2.9-17.8-5.9-27.3-0.6-48c0-1.8,0-1.8,0-2.3
					C771.1,525.8,755.8,536.1,745.9,543.9z"/>
			</g>
			<g id="XMLID_4970_">
				<path id="XMLID_4973_" d="M985.5,467.3c2.3-9.1,22.8-53.6,26.9-61.1c3.5-5.8,7-11.5,10-17.8c3.5-5.2,7-10.9,9.4-15.9
					c2.3-4.4,5.9-7.2,9.4-8.3c4.1-0.6,7.6-1.6,11.1-2.1c7-1,11.1,3.7,14.6,10.9c0,0.6,0,1.2,0,2.3c1.2,7.5,2.9,15.4,4.1,23.5
					c1.2,7.4,0.6,15.7,0.6,23.3c0,5.3,0.6,10.5,0,15.8c2.9,1.4,2.3,3.8,2.9,3.1c1.2-1.3,5.3-0.1,6.4-1.5c0.6-1.2,1.8-2,2.3-3.2
					c2.3-2.1,4.7-4.2,7-7.4c1.8-3.2,3.5-3.4,5.9-0.8c0,1.8-0.6,3.6-2.3,5c-0.6,0.7-1.2,1.9-1.8,3.2c-0.6,1.8-1.8,3.8-3.5,4.6
					c-0.6,0.7-1.2,1.3-1.8,2c-0.6,0.7-1.8,1.4-1.8,2c-0.6,0.7-1.2,0.8-1.8,1.4c-2.3,2.7-4.1,3.5-6.4,3.8c-0.6,0.1-2.9,1-5.3,3.1
					c-1.8,1.4-3.5,1.7-4.7,0.6c-4.1-1.8-8.2-1.8-12.3-3c-7-0.8-12.3-6.5-15.2-14.3c-3.5-10.1-3.5-21.8-1.8-33.1
					c1.2-5.4,1.2-10.1,1.8-14.9c0.6-3.6,1.2-7.2,1.8-10.8c1.2-2.5,1.2-4.3,0.6-6.5c-0.6,0.1-1.8-0.3-1.8,0.8c-0.6,0.7-1.8,2-2.3,3.3
					c-2.3,5-5.3,10.1-8.2,15.8c-1.8,3.2-2.9,6.8-3.5,11c0.6,2.3-1.2,4.3-1.8,6.1c-5.3,10.7-10,20.7-13.5,32.3
					c-2.9,8.6-7,16.2-10.5,24.9c-5.3,13-11.7,25.1-15.8,38.5c-1.2,4.3-3.5,9.3-5.3,14.2c-1.2,3.7-15.8,33.8-19.3,37.2
					c0,1.2-1.8,2-2.9,3.3c-7,10.9-15.2,11.5-24.6,10.4c-1.2,1.3-2.3,0.3-3.5-0.7c-9.4-1-14.1-9.2-16.4-20.6
					c-1.8-9.7-1.8-20.3-1.8-30.2c0.6-15.3,1.2-30.6,2.3-46c2.9-17.4,0.6-15.9,5.3-32.4c4.1-23.4,1.8-19.6,10-43.6
					c0.6-4.2,2.9-7.4,4.1-11.7c4.1-11.1,7.6-21,12.3-31c2.3-7.9,4.7-9.4,10.5-9.1c4.1-0.6,9.4-0.1,14.6,0.3c3.5,0.1,7,0.8,11.7,4.2
					c4.1,7.1,10,11.5,15.8,17.7c5.3,8.6,6.4,15.5,2.9,27.1c-2.9,12.1-4.1,3.5-7,16.2c-7.6,25.7-21.7,46.9-28.1,70.1
					C956.2,508.8,983.1,477.6,985.5,467.3z"/>
			</g>
			<g id="XMLID_4943_">
				<path id="XMLID_4945_" d="M1321.7,536c1.2-1.3,2.9-2.7,4.1-4.7c7-10.4-1.8-0.3,4.7-11.2c2.3-5,4.7-9.4,7.6-13.9
					c5.9-9.6,5.3-17.1,15.8-39.1c14.1-21.3,23.4-43.1,35.1-64.6c7-13.3,4.7-21.7,15.8-15.1c7,4.3-2.3,2.7-2.3,13.2
					c4.1-0.6-7,11.5-5.9,10.2c3.5,4.2,1.2,8-1.2,11.3c-5.3,4.3,1.2,16.8-8.2,15.2c-7.6,12.8-15.2,16.8-20.5,29.2
					c-2.3,9.7-7.6,2.2,0,8.8l-5.3,7.2c-10.5,15.5-9.4,16.5-11.1,25.6c-1.2,0.7-1.8,1.4-1.8,2c-2.9,4.5-5.3,8.3-8.2,12.3
					c-1.8,2-2.9,4.5-3.5,6.9c-1.8,5.5-4.1,10.5-7,15.6c-2.3,3.8-4.7,7.7-7,10.9c-3.5,4.6-7,9.2-11.7,12.8
					c-2.9,3.9-8.2,7.6-12.3,11.1c-7,4.5-12.3,9.3-19.3,13.2c-0.6,0.7-1.2,2.5-2.3,3.8c-5.3,0.7-10,0.8-15.8-0.7
					c-11.7-3.1-12.3-0.6-22.3-11c-8.8-5.2-14.6-13.2-19.9-21.2c-2.9-6-7-11.9-8.2-19.4c-0.6-1.1-0.6-2.3-1.8-2.7
					c-2.3-2.6-2.3-4.4-2.3-7.9c0.6-4.2-1.8-8.5-2.3-13.2c-1.2-5.1-2.3-10.2-2.9-16c-0.6-2.8-1.2-6.3-0.6-9.3
					c-0.6-1.1-1.8-1.5-1.8-2.7c-1.2,1.3-2.3,2.7-3.5,4c-2.9,3.9-4.7,8.3-5.9,13.1c-2.3,10.9-8.2,18.7-18.2,23
					c-2.9,1.6-5.3,2.5-7.6,5.2c-3.5,4-10,6.1-15.2,5.6c-7-0.8-15.2-2-22.3-5.1c-10.5-3.8-17.6-11-22.3-20.9
					c-3.5-6-5.3-12.7-4.7-19.9c0-2.3-0.6-4-1.2-6.3c0-2.3-0.6-4.6,0-6.4c0-7.6,0-15.8,1.8-23.1c3.5-14.6,6.4-29,13.5-42.3
					c7.6-13.9,15.8-28.6,26.9-41.2c11.1-13.8,25.8-24.7,42.2-32.2c2.9-2.2,7-2.7,10.5-3.8c1.8-0.2,2.9,0.2,4.7,0.5
					c3.5,0.7,7,2,10,2.7c21.1,25.8,17-19.9,25.8-37.5c1.2-2.5,1.8-5.5,2.9-8c1.8-3.8,2.9-8,4.1-12.3c2.3-5.6,4.7-11.2,6.4-16.7
					c1.8-3.2,2.3-6.2,3.5-9.9c4.7-8.9,9.4-18.3,13.5-27.7c4.1-7,8.2-14,13.5-20c5.3-4.8,10.5-10.3,15.2-15.6c1.8-2,4.7-4.2,7-6.2
					c5.3-3.7,10-7.2,14.6-11.4c7-6.3,15.2-6.2,22.8-3.2c5.3,2.2,8.8,6.4,14.6,9.1c1.2,1,1.8,2.7,2.3,4.4c0.6,6.4,1.8,12.6,0.6,19.2
					c-0.6,4.2-1.2,8.4-1.8,13.1c0,4.7,0,10-2.9,15c-0.6,1.2,0,2.3-0.6,3.6c-0.6,3.6-1.8,7.3-3.5,10.5c-2.9,4.5-5.3,9.5-7.6,15.1
					c-1.8,4.9-3.5,9.9-5.9,14.9c-1.2,3.7-2.3,6.8-2.9,10.4c-1.8,5.5-4.1,11.1-7,15.6c-4.7,5.3-7.6,11-9.4,17.1
					c-1.8,4.9-5.3,8.9-8.8,11.8c-2.9,3.3-5.9,6.7-7.6,10.4c-2.3,8.5-8.2,16.4-13.5,23.5c-4.7,6.5-1.8,7.9-4.7,14.1
					c-2.3,2.1-2.9,4.5-3.5,6.9c-1.2,4.8-2.3,10.3-2.9,15c-0.6,4.8-1.8,9-3.5,14.6c0.6,3.4-0.6,7.1-0.6,11.2c0.6,1.1,0,2.9-1.2,4.3
					c0,2.9-0.6,6,0,8.8c1.2,3.9,0.6,8.1,0,11.7c0,5.3,0,10,0,15.2c0,1.2,0,1.8,0.6,2.3c1.8,3.3,0.6,7,1.2,10.4
					c0.6,8.1,2.9,15.4,5.3,22.7c2.3,1.4,2.9,3.1,3.5,5.4c1.2,1.6,2.3,3.8,1.8,5c-0.6,3.6,1.2,5.7,2.9,7.2c4.1,7.6,10,12.1,16.4,17.1
					c-1.8,0.8-3.5,0.5-4.7,2.4c-0.6-1.1,0-2.9-1.8-3.8c0-0.6-0.6-1.1-2.3,0.3c2.3,1.4,2.9,1.9,4.1,3.5c2.9,1.4,5.3,3.4,8.8,3.5
					c0-0.6,0.6-2.4,1.2-3.1l-0.6,0.1C1315.3,542.2,1315.9,539.2,1321.7,536z M1169.4,460.5c-1.2,1.9-1.8,3.8-2.9,5.7
					c-2.9,5.7-5.3,11.3-8.2,17.5c-2.3,10.9-3.5,22.2,2.3,32.5c0,1.2,1.2,1.6,1.8,2.1c4.7-2.4,7.6-6.3,10.5-9.7
					c4.7-6.5,10.5-13.2,15.8-19.8c3.5-4,6.4-8.5,8.8-13.5c0-1.2,0.6-2.4,0.6-3.6c0.6-4.2,0.6-7.7,1.2-11.9c-0.6-4-0.6-8.1,0-12.3
					c10-34.2,1.8-45.9-16.4-12.9C1176.5,442.5,1174.1,451.1,1169.4,460.5z M1236.2,571.9c-0.6-0.5,0-1.8,0-2.3
					c-0.6-0.5-1.2-1-1.8-1.5l-1.2,0.8c0,0.6,0.6,1.1,1.8,1.5c0,0.6,0.6,1.1,0.6,1.1c1.2,1.6,1.2,2.8,2.3,4.4
					c6.4,6.7,12.9,11.7,22.8,13.2c0.6,0.5,2.3,0.3,4.7-0.1c-1.8-1.5-2.3-2.6-4.1-3.5c-7-4.3-14.6-9.1-21.7-13.4
					c-1.2-0.4,25.2-5.8,24.6-4.6L1236.2,571.9z M1256.1,579.1c0,0,0,0,0.6,0.5c-0.6-0.5,0-0.6,0-0.6s0,0,0-0.6
					C1256.7,578.4,1256.1,578.5,1256.1,579.1z M1262.6,526.6l-1.2,0.2c1.8,0.3,1.8,0.3,1.8,0.9c0-0.6,0-0.6,0-0.6
					C1262.6,526.6,1262.6,526.6,1262.6,526.6z M1264.3,531.1v-0.6l-0.6,0.7L1264.3,531.1z M1266.7,534.3l-0.6,0.7
					c0.6,0.5,0.6,0.5,0.6,1.1c0,0,0.6-0.1,1.2-0.2C1267.8,535.3,1266.7,534.9,1266.7,534.3z M1276.6,518.8c0.6-0.1,0.6-0.1,1.2-0.2
					c-0.6-0.5-0.6-1.1-1.2-1.6c-1.2-3.9-2.3-6.7-4.1-10.6c-1.8-3.3-1.8-6.8-5.9-9.7c1.8,7.4,5.3,13.3,8.8,18.7c0,0.6,0,1.8,1.2,1.6
					C1277.2,517.6,1277.2,518.2,1276.6,518.8z M1287.8,544.8c-0.6-1.1-2.9-2.5-4.7-4c-1.8-4.4-4.7-8.1-8.8-11.7
					c-0.6-0.5-0.6-1.7-2.9-0.2c4.7,5.2,8.2,10.6,12.9,15.2c0,1.8,1.8,2.1,3.5,3C1287.8,546,1287.8,545.4,1287.8,544.8z
					 M1306.5,315.5c4.7-7.1,10-14.3,14.1-22.5c4.1-10.5,8.8-20.6,14.1-31.2c1.2-3.1,1.8-5.5,1.8-9c0-2.3,0-5.3,1.2-7.8
					c5.9-14.3,6.4-29.6,7-44.9c0-3.5-0.6-7-1.2-10.4c-2.3-4.9-4.7-5.2-8.8-2.3c-1.2,1.3-2.9,2.2-3.5,4c-1.8,5.5-5.9,10.2-8.8,14.7
					c-0.6,1.8-1.8,3.8-1.8,5.5c0.6,4-1.2,7.8-3.5,11.6c-1.8,4.9-4.7,8.9-7.6,12.2c-2.9,2.2-4.1,4.1-4.1,7c0.6,3.4,0,6.4-1.2,10.1
					c-1.8,4.3-3.5,8.7-4.1,12.9c-3.5,14.5-10.5,26.6-12.3,41c-4.1,19.9-17.6,59.9,7,30.7C1298.9,329.5,1301.8,322.6,1306.5,315.5z"
					/>
			</g>
			<g id="XMLID_4935_">
				<path id="XMLID_4938_" d="M1607.6,363.9c-0.6,4.2-6.4,19-9.4,21.8c-1.8,0.8-2.3,2.7-3.5,3.4c-2.3,3.2-4.1,5.8-6.4,8.5
					c-1.2,1.3-2.9,2.8-3.5,4.6c-1.8,3.8-4.1,5.8-7,8c-1.2,0.7-2.3,1.5-2.9,2.7c-3.5,4.6-8.2,8.8-11.7,12.8c-3.5,3.4-7,5.7-11.1,7.4
					c-5.3,1.9-10,2.6-14.6,5c-4.1,2.3-8.8,3-13.5,4.8c-1.8,0.2-3.5,0.5-5.3,0.7c-7-1.4-14.1-1.6-19.9-5.4c-0.6-0.5-1.8-0.9-2.9-1.4
					c-5.3-1.6-10.5-3.8-14.1-8c-4.7,3-8.8,5.9-12.3,9.3c-2.3,1.5-4.1,2.9-6.4,5c-0.6,0.1-1.2,0.7-1.2,0.7c-3.5,5.2-8.2,6.4-12.9,8.8
					c-8.2,3.5-16.4,4.6-24,1.6c-2.9-1.4-5.9-2.1-8.8-2.9c-17-4.7-26.4-16.3-28.1-34.2c-1.2-9.2,0.6-18.2,4.7-27
					c4.1-8.2,8.2-16.4,14.1-23.6c0-0.6,0.6-1.3,1.2-1.9c7.6-12.8,17-25.2,25.8-37c6.4-7.9,13.5-14.8,22.3-21.3
					c1.2-0.7,3.5-1.7,5.3-1.9c3.5-1.1,7-2.1,11.1-2.7c0.6-0.1,1.2-0.2,1.8-0.2c3.5,1.3,8.2,0.6,12.3,1.2c1.2,0.4,2.3,0.8,3.5,0.7
					c2.9,0.2,5.3-0.1,6.4,2c0.6,0.5,1.2,0.4,1.2,0.4c2.9-0.4,5.3,2.2,8.2,1.8c1.2-0.2,2.3,0.3,2.9,0.8c3.5,3,7.6,5.4,10,9.2
					c0.6,1.7,1.2,2.8,1.8,4.4c1.2,5.1,0,8.8-5.3,12.4c-5.3,3.1-10,7.2-14.6,11.4c0,0,0,0,0,0.6c-6.4,7.4-14.1,14.3-19.3,22.6
					c-2.3,3.3-4.7,5.9-7,8.6c-5.3,6.6-9.4,13.6-14.1,20.7c-1.8,3.2-4.1,6.4-5.9,9c-1.2,1.3-1.8,2.6-2.3,3.8
					c-3.5,6.9-5.9,13.7-7,20.3c-0.6,0.7,0,1.2,0,2.3c1.2-0.8,1.8-1.4,2.3-2.1c5.9-6.7,12.3-13.4,19.3-19.7c3.5-3.4,6.4-6.7,8.8-11.2
					c1.2-1.9,2.9-3.9,4.7-5.9c3.5-4.6,7-9.2,10-14.3c4.1-7,8.2-14,12.3-21.6c5.3-1.3,9.4-1.3,12.9,2.3c1.2,1,2.3,2,3.5,3
					c4.1,4.7,4.7,10.5,5.3,16.3c0,1.2-0.6,1.8-1.2,3.1c-2.3,5.6-5.3,11.9-8.2,17.5c-1.8,4.3-2.3,8.5-1.8,12.5
					c1.2,4.5,2.9,9.6,5.3,13.9c1.2,1.6,2.9,2.5,5.3,2.2c4.1-1.1,8.2-2.3,12.3-4.6c3.5-2.2,7.6-4.6,11.1-7.4
					c4.1-2.9,8.2-5.8,12.9-9.4c2.9-3.3,6.4-6.2,9.4-9.5c7.6-8.7,19.3-29.6,26.9-38.3c0.6-0.7,1.2-0.7,1.8-1.4
					C1601.8,359.5,1604.7,361.4,1607.6,363.9z"/>
			</g>
			<g id="XMLID_4925_">
				<path id="XMLID_4928_" d="M1844.3,336.3c4.1-5.8,7.6-11.6,11.7-18.6c1.2-1.9,2.3-3.8,3.5-6.3c0,0,0,0,0.6-0.7c0,0.6,0,1.2,0,2.3
					c-1.8,7.9,8.2,4.7,2.9,13.6c-2.3,3.3-10.5,14.4-11.7,18c-0.6,4.2-10,13.1-12.9,17c-2.3,3.3-4.1,7-5.9,11.4
					c-3.5,5.2-6.4,9.7-10.5,14.9c-3.5,4-5.9,8.4-8.2,12.3c-1.8,4.3-4.7,8.8-8.2,12.9c-8.2,11.1-8.8,12.9-17.6,24.1
					c-4.1,4.7-12.3,22.8-17,27c-2.3,2.7-5.3,6-7,9.8c-4.1,4.7-48,30.1-51.5,32.9c-1.8,2-2.3,3.3-3.5,4c-5.3,3.7-8.8,8.8-10,14.9
					c-4.7,12.4-11.1,24.4-17.6,36.4c-4.7,7.1-8.2,14-11.7,21c-2.9,8-7,13.9-12.9,19.9c-4.7,6.5-11.7,11.6-16.4,19.3
					c-10.5,10.8-19.9,18.6-32.2,26.1c-8.8,5.9-23.4,7.4-32.8,8.7c-34,12.3-79.7-10-86.7-41.8c-0.6-5.2,4.1-13.5,10-15.5
					c6.4-2.6,13.5-4.8,19.3-6.8c21.1-5.3,42.8-14.7,64.4-27.1c14.6-7.3,26.4-13,42.2-22.8c4.7-3,11.7-10.4,14.6-16.1
					c4.1-9.4,16.4-38,21.1-46.9c42.8-86.8,28.1-49.6-22.3-26.2c-7-0.2-26.4-9.2-30.5-15.1c-4.1-6.5-32.2-40.6-29.3-49.8
					c2.9-10.9,4.1-5.8,3.5-21c1.8-17.2,7-25.6,10.5-46c1.2-5.4,7.6-18.6,7.6-25.7c4.7-9.4,9.4-30.6,15.2-38.4
					c3.5-7.5,6.4-13.2,11.1-20.3c1.8-2.6,2.9-4.5,6.4-7.9c1.8,0.9,4.1,2.4,5.9,3.3c2.9,4.9,15.2,10.2,21.7,13.4
					c1.8,1.5,3.5,3,5.3,5.1c1.2,1.6,1.8,3.3,2.3,3.8c8.2,4.7,11.1,13.1,12.3,21.7c1.8,6.8,0.6,12.2-1.8,19c-2.9,4.5-4.7,10.6-8.8,17
					c-2.9,7.4-7.6,16.3-11.7,24.5c-2.9,8-9.4,15.9-14.1,24.8c-2.3,3.2-4.1,7.6-7.6,12.8c-69.7,115.7,82-33.6,95.5-56.6
					c8.8-14.7,2.9-6.8,10.5-22c5.3-6,9.4-13,14.1-20.1c1.8-3.8,2.9-6.8,5.9-9c2.9-3.9,4.1-4.1,7-3.3c4.7,1.7,11.7,15.9,8.8,24.6
					c0,2.3-1.2,5.4-3.5,7.5c-1.2,2.5-7.6,15.1-8.2,18.1c0,5.9-2.9,10.4-4.7,15.3c-2.3,5-14.6,33.1-18.2,48.2
					c-2.3,9.7-22.3,64.6-23.4,73c-0.6,29.4,75.6-54.4,92.6-73.8C1824.4,363.1,1834.3,350,1844.3,336.3z M1598.3,611.3
					c22.8-26,39.2-47.6-19.9-17.2c-13.5,5.4-26.9,9.6-40.4,13.8c-4.7,1.2-8.2,2.3-12.3,4.1C1501.6,638.7,1569,657.5,1598.3,611.3z"
					/>
			</g>
		</g>
		<g id="XMLID_4887_">
			<g id="XMLID_4917_">
				<path id="XMLID_4920_" class="st1" d="M789.1,938.8c-5.1-4.9-7.6-11.2-7.6-18.8s2.5-13.8,7.6-18.8c5.1-4.9,11.3-7.4,18.6-7.4
					c5.7,0,10.7,1.5,15.2,4.5c4.4,3,7.5,7.2,9.2,12.5h-14.9c-1.9-3.7-5.1-5.6-9.3-5.6c-4.3,0-7.6,1.3-10.1,4
					c-2.4,2.7-3.7,6.2-3.7,10.7s1.2,8,3.7,10.7s5.8,4,10.1,4s7.4-1.9,9.3-5.6h14.9c-1.7,5.3-4.8,9.5-9.2,12.5s-9.5,4.5-15.2,4.5
					C800.3,946.2,794.1,943.8,789.1,938.8z"/>
			</g>
			<g id="XMLID_4907_">
				<path id="XMLID_4910_" class="st1" d="M905.9,945.8l-2.8-8.6h-18.4l-2.8,8.6h-13.3l17.8-51.3h15.2l17.7,51.3H905.9z
					 M887.9,927.7H900l-6-18.2L887.9,927.7z"/>
			</g>
			<g id="XMLID_4897_">
				<path id="XMLID_4900_" class="st1" d="M958.7,945.8v-51.1H992v9.5h-20.8v11h15.6v9.5h-15.6v21.2h-12.5V945.8z"/>
			</g>
			<g id="XMLID_4890_">
				<path id="XMLID_4891_" class="st1" d="M1064.9,894.5v9.5h-18.5v11h16.3v9.5h-16.3v11.9h18.5v9.5h-31v-51.3h31V894.5z"/>
			</g>
		</g>
	</g>
</g>
</svg>
