<?xml version="1.0" encoding="utf-8"?>
<!-- Generator: Adobe Illustrator 22.0.1, SVG Export Plug-In . SVG Version: 6.00 Build 0)  -->
<svg version="1.1" id="object" xmlns="http://www.w3.org/2000/svg" xmlns:xlink="http://www.w3.org/1999/xlink" x="0px" y="0px"
	 viewBox="0 0 1920 1080" style="enable-background:new 0 0 1920 1080;" xml:space="preserve">
<style type="text/css">
	.st0{fill:#272525;}
	.st1{fill:#C6D2DB;}
</style>
<g id="XMLID_8870_">
	<g id="XMLID_8909_">
		<g id="XMLID_8937_">
			<path id="XMLID_8938_" class="st0" d="M191.4,389.8h48.7v1.8c-9.8,0-9.4,2.6-9.4,14.8v105.5c0,13.6,1.6,16.8,11.4,16.8v1.8h-60.9
				v-1.8c9.4,0,10.2-3.2,10.2-16.8V395.2l-51.7,137h-1.8L73.1,411.9v65.5c0,25.8,7.4,51.1,30.6,51.1v1.8H41.4v-1.8
				c21.4,0,30-25,30-51.1v-68.5c-7.8-13.8-14.2-17-19.8-17.4v-1.8h56.9l48.3,91.9L191.4,389.8z"/>
		</g>
		<g id="XMLID_8934_">
			<path id="XMLID_8935_" class="st0" d="M373.9,389.8v1.6c-8.4,0-13,0.2-13,17.8v98.7c0,19,4.6,20.8,13,20.8v1.8H308v-1.8
				c8.4,0,13-1.8,13-20.8v-98.7c0-17.6-4.4-17.8-13-17.8v-1.6H373.9z"/>
		</g>
		<g id="XMLID_8931_">
			<path id="XMLID_8932_" class="st0" d="M569.8,482.4l2,40.3c-5.4,3.6-25.6,9.4-46.7,9.4c-42.7,0-80.7-27-80.7-72.1
				s38-72.1,80.7-72.1c25.8,0,41.9,5.4,46.7,9.2l-2,40.4h-1.6c-6-41.3-28.6-47.7-43.1-47.7c-22.2,0-31.6,15.6-31.6,70.3
				c0,54.9,10,70.3,31.6,70.3c13.6,0,36.4-8.2,43.1-47.9H569.8z"/>
		</g>
		<g id="XMLID_8927_">
			<path id="XMLID_8928_" class="st0" d="M789.5,528.6v1.8h-39.7c-14.2,0-18.6-9-23.4-46.1c-2.6-20-26.6-18.8-26.6-18.8h-9.4v42.3
				c0,19.6,0.8,20.8,9.2,20.8v1.8h-59.7v-1.8c8.6,0,10.4-0.4,10.4-20.8v-98.7c0-12.4-1.6-17.8-10.4-17.8v-1.6h56.7
				c39.8,0,75.5,4.8,75.5,38.2c0,30-27.6,36.1-46.7,36.1c23,0,34.6,5,44.3,40.9C773.7,520.2,784.3,528.2,789.5,528.6z M725.2,427.9
				c0-38.2-5.2-36.4-28.6-36.4h-6.2v72.1h6.2C722.6,463.7,725.2,464.1,725.2,427.9z"/>
		</g>
		<g id="XMLID_8923_">
			<path id="XMLID_8924_" class="st0" d="M996,461.1c0,39.8-29,71.1-72.9,71.1c-43.9,0-72.9-31.4-72.9-71.1
				c0-39.5,29-73.1,72.9-73.1C967,388,996,421.5,996,461.1z M947.4,461.1c0-54.7-0.8-71.3-24.4-71.3c-23.8,0-24.8,16.6-24.8,71.3
				c0,54.9,1,69.3,24.8,69.3C946.6,530.4,947.4,516,947.4,461.1z"/>
		</g>
		<g id="XMLID_8920_">
			<path id="XMLID_8921_" class="st0" d="M1273.6,389.8v1.6c-8,0-20.2,6.2-34.8,41.3l-35,97.7h-7.2c-18.6-43.3-30.6-71.3-38.5-89.5
				l-32,89.5h-7.2c-50.3-117.6-52.9-122.8-52.9-122.8c-6.8-16-9.6-15.8-14.8-16.2v-1.6h62.3v1.6c-12.8,0-2.6,23.2-2.6,23.2
				l30.2,68.5l16-44.5c-12.2-28.4-13.4-31-13.4-31c-6.8-16-9.6-15.8-14.8-16.2v-1.6h62.3v1.6c-12.8,0-2.6,23.2-2.6,23.2l30,68.7
				l18-50.5c5-14.2,0.6-41.3-19.8-41.3v-1.6H1273.6z"/>
		</g>
		<g id="XMLID_8916_">
			<path id="XMLID_8917_" class="st0" d="M1389.8,389.8h1c50.5,115.9,53.9,122.4,53.9,122.4c7.2,16,14,16.2,18,16.6v1.6h-69.9v-1.6
				c16,0,4-23.4,4-23.4l-6.4-13.8h-39.2c-4,9.2-0.4,37.1,23.6,37.1v1.6h-57.5v-1.6c6-0.4,16.8-2,32.2-37.1L1389.8,389.8z
				 M1369.6,444.9l-17.8,44.9h37.7L1369.6,444.9z"/>
		</g>
		<g id="XMLID_8913_">
			<path id="XMLID_8914_" class="st0" d="M1658.8,389.8v1.6c-8.6,0-21.4,6.2-37,41.3l-39.3,97.7h-5.8
				c-53.5-117.6-56.3-122.8-56.3-122.8c-7.2-16-10.2-15.8-15.8-16.2v-1.6h66.5v1.6c-13.8,0-2.8,23.2-2.8,23.2l31,68.9l20.6-50.7
				c6-14.8,2.4-41.3-21.6-41.3v-1.6H1658.8z"/>
		</g>
		<g id="XMLID_8910_">
			<path id="XMLID_8911_" class="st0" d="M1840.9,491.2v39.2h-116.6v-1.8c8.4,0,11.6-12,11.6-25.6v-85.7c0-12.4-2.8-26-11.6-26v-1.6
				h114.1v40.9h-1.8c0-38.9-54.5-39.2-54.5-39.2h-7.2v66.9h16.2c0.2,0,21.4,0.6,23.6-23.6h1.8v48.9h-1.8
				c-2.2-24-23.4-23.6-23.6-23.6h-16.2v68.3h7.2c0,0,57.1,2.2,57.1-37.4H1840.9z"/>
		</g>
	</g>
	<g id="XMLID_8877_">
		<g id="XMLID_8906_">
			<path id="XMLID_8907_" d="M522.3,607.3h13.5v55.5h-13.5v-23h-21.4v23h-13.5v-55.5h13.5v22.2h21.4V607.3z"/>
		</g>
		<g id="XMLID_8902_">
			<path id="XMLID_8903_" d="M629.4,662.8l-3.1-9.3h-19.9l-3.1,9.3h-14.4l19.3-55.6h16.4l19.2,55.6H629.4z M609.8,643.2h13.1
				l-6.6-19.8L609.8,643.2z"/>
		</g>
		<g id="XMLID_8899_">
			<path id="XMLID_8900_" d="M696.9,662.8v-55.5h13.5v55.5H696.9z"/>
		</g>
		<g id="XMLID_8895_">
			<path id="XMLID_8896_" d="M782.2,641.2v21.6h-13.5v-55.5h21.9c6.4,0,11.4,1.7,15,5c3.6,3.3,5.4,7.3,5.4,12c0,3.2-1,6.3-2.9,9.4
				c-1.9,3.1-5.1,5.2-9.6,6.5l13.6,22.6h-15.8l-12.5-21.6H782.2z M782.2,617.6v13.4h8.4c2.1,0,3.7-0.6,4.9-1.8
				c1.2-1.2,1.8-2.8,1.8-4.8c0-2-0.6-3.6-1.8-4.9c-1.2-1.3-2.8-1.9-4.8-1.9H782.2z"/>
		</g>
		<g id="XMLID_8892_">
			<path id="XMLID_8893_" d="M956.9,617.2c-1.7,0-3.1,0.5-4.1,1.3s-1.6,2.2-1.6,3.9c0,1.7,0.5,3,1.5,4.1c1,1,2.3,1.8,3.9,2.4
				c1.6,0.6,3.4,1.1,5.4,1.6c2,0.5,3.9,1.1,5.9,1.8c1.9,0.7,3.7,1.6,5.3,2.6c1.6,1.1,2.9,2.5,3.9,4.5c1,1.9,1.5,4.2,1.5,6.9
				c0,4.7-1.9,8.7-5.7,12.1c-3.8,3.3-8.9,5-15.1,5c-6.2,0-11.3-1.5-15.1-4.5c-3.8-3-5.7-7.3-5.7-12.8h14.4c0.4,4.4,2.6,6.6,6.8,6.6
				c1.9,0,3.5-0.5,4.6-1.5c1.1-1,1.7-2.3,1.7-3.9c0-1.6-0.5-2.9-1.5-3.9c-1-1-2.3-1.8-3.9-2.4c-1.6-0.6-3.4-1.1-5.4-1.6
				c-2-0.5-3.9-1.1-5.9-1.9c-1.9-0.7-3.7-1.6-5.3-2.6c-1.6-1-2.9-2.5-3.9-4.4c-1-1.9-1.5-4.2-1.5-6.8c0-5.2,1.9-9.3,5.8-12.4
				c3.8-3.1,8.8-4.7,14.7-4.7c6,0,10.8,1.4,14.5,4.1c3.7,2.7,5.6,7,5.8,12.8H963c-0.2-2-0.9-3.5-1.9-4.6
				C960,617.7,958.6,617.2,956.9,617.2z"/>
		</g>
		<g id="XMLID_8888_">
			<path id="XMLID_8889_" d="M1070.9,662.8l-3.1-9.3h-19.9l-3.1,9.3h-14.4l19.3-55.6h16.4l19.2,55.6H1070.9z M1051.3,643.2h13.1
				l-6.6-19.8L1051.3,643.2z"/>
		</g>
		<g id="XMLID_8885_">
			<path id="XMLID_8886_" d="M1138.5,607.3h13.5v45.2h16.8v10.3h-30.3V607.3z"/>
		</g>
		<g id="XMLID_8881_">
			<path id="XMLID_8882_" d="M1227.8,655.2c-5.5-5.4-8.3-12.2-8.3-20.4c0-8.2,2.8-15,8.3-20.3c5.5-5.3,12.2-8,20.2-8
				c8,0,14.7,2.7,20.1,8c5.5,5.3,8.2,12.1,8.2,20.3c0,8.2-2.7,15-8.2,20.4c-5.5,5.4-12.2,8.1-20.1,8.1
				C1240,663.3,1233.3,660.6,1227.8,655.2z M1258.6,646.5c2.7-2.9,4-6.8,4-11.6c0-4.8-1.3-8.7-4-11.6c-2.7-2.9-6.2-4.3-10.7-4.3
				c-4.5,0-8,1.4-10.7,4.3c-2.7,2.9-4,6.8-4,11.6c0,4.9,1.3,8.7,4,11.6c2.7,2.9,6.2,4.3,10.7,4.3
				C1252.4,650.8,1255.9,649.4,1258.6,646.5z"/>
		</g>
		<g id="XMLID_8878_">
			<path id="XMLID_8879_" d="M1367.6,607.1h13.5v55.6h-13.5l-22.6-35v35h-13.5v-55.6h13.5l22.6,35V607.1z"/>
		</g>
	</g>
	<g id="XMLID_8874_">
		<g id="XMLID_8875_">
			<path id="XMLID_8876_" class="st1" d="M804.7,171c20.9-9.6,47.8-10.7,72-2.5c12.3,3.9,23.5,10.5,32.8,16.9
				c9.4,6.5,17.5,12.9,25.2,17.8c4.6,3,9.1,5.7,13.4,8.1c4.3,2.5,8.5,4,12.8,5.9c8.7,3.3,18.1,5.2,27.6,6.3
				c19.1,1.7,39-1.8,55.9-9.4c0.9,1.8-0.9,6,2.4,5.4c13.1-2.9,15-0.4,17.1,3.2c0.5,0.8-1.8,2.3-3.7,3.4c-2,1-3.7,1.8-1.6,1.9
				c-9.4,5.5-26.9,11.6-15.7,10.1c2,0.2,6.5-1.3,10.8-3.1c4.2-2,8.7-3.7,11-3.5c4.8,0.5-0.5,7.2,4.4,7.8c3.5-2.1,10.6-6.3,13.7-9
				c4.5-0.9,0.2,7.3,3.5,4.8c11.6-6,24-19,33.1-34c0.8,0.5,2.2,0.2,2.9,0.7c0.8,0.4,1,1.6-1.3,5.7c-22.2,33.6-58.7,55-97.4,61.7
				c-19.4,3.4-39.7,3-59.5-1.7c-9.9-2.4-19.6-5.8-28.8-10.5c-9.5-4.5-17.6-10.2-25-15.6c-14.6-10.9-26.5-21-37.8-26.4
				c-10.8-5.4-23.4-7.6-35.7-6.6c-12.4,1.1-23.8,5.2-33.6,12.5c-9.9,7.2-18,17.2-22.8,28.4c-4.5,10.1-6.3,1.3-4.8-8.6
				c-0.4,3.2-3.2,2-3.5,5.3c-2.6-0.9-5.5-9.5,2.1-21.9c-2.1,2.9-4,5.9-5.7,9c-2.6,2.7-2.6-1.4-4.3-2.4c1.8-3.3,3.9-6.4,3.1-6.9
				c-0.8-0.6-2.5-1.7-3.3-2.2c-2.3,3.2-6.2,10.1-7.7,13.8c1.6-3.6,3.6-7.1,2.7-7.5c-0.9-0.5-2.6-1.4-3.5-1.9
				c3.1-8,12.3-16.7,17.6-23l-2.1-2.1c-7,5.2-14.2,16.2-18.1,23.7c1.3-4.2,0.5-4.7-1.2-5.8c6.3-12.1,17.3-19.9,26-30.3
				c-3.6,2.7-6.9,5.7-10.2,8.8c1.4-4.9,7.4-10.5,14.7-15.1C789.8,177.2,798.4,173.8,804.7,171z"/>
		</g>
	</g>
	<g id="XMLID_8871_">
		<g id="XMLID_8872_">
			<path id="XMLID_8873_" class="st1" d="M804.7,779.2c20.9-9.6,47.8-10.7,72-2.5c12.3,3.9,23.5,10.5,32.8,16.9
				c9.4,6.5,17.5,12.9,25.2,17.8c4.6,3,9.1,5.7,13.4,8.1c4.3,2.5,8.5,4,12.8,5.9c8.7,3.3,18.1,5.2,27.6,6.3
				c19.1,1.7,39-1.8,55.9-9.4c0.9,1.8-0.9,6,2.4,5.4c13.1-2.9,15-0.4,17.1,3.2c0.5,0.8-1.8,2.3-3.7,3.4c-2,1-3.7,1.8-1.6,1.9
				c-9.4,5.5-26.9,11.6-15.7,10.1c2,0.2,6.5-1.3,10.8-3.1c4.2-2,8.7-3.7,11-3.5c4.8,0.5-0.5,7.2,4.4,7.8c3.5-2.1,10.6-6.3,13.7-9
				c4.5-0.9,0.2,7.3,3.5,4.8c11.6-6,24-19,33.1-34c0.8,0.5,2.2,0.2,2.9,0.7c0.8,0.4,1,1.6-1.3,5.7c-22.2,33.6-58.7,55-97.4,61.7
				c-19.4,3.4-39.7,3-59.5-1.7c-9.9-2.4-19.6-5.8-28.8-10.5c-9.5-4.5-17.6-10.2-25-15.6c-14.6-10.9-26.5-21-37.8-26.4
				c-10.8-5.4-23.4-7.6-35.7-6.6c-12.4,1.1-23.8,5.2-33.6,12.5c-9.9,7.2-18,17.2-22.8,28.4c-4.5,10.1-6.3,1.3-4.8-8.6
				c-0.4,3.2-3.2,2-3.5,5.3c-2.6-0.9-5.5-9.5,2.1-21.9c-2.1,2.9-4,5.8-5.7,9c-2.6,2.7-2.6-1.4-4.3-2.4c1.8-3.3,3.9-6.4,3.1-6.9
				c-0.8-0.6-2.5-1.7-3.3-2.2c-2.3,3.2-6.2,10.1-7.7,13.8c1.6-3.6,3.6-7.1,2.7-7.5c-0.9-0.5-2.6-1.4-3.5-1.9
				c3.1-8,12.3-16.7,17.6-23l-2.1-2.1c-7,5.2-14.2,16.2-18.1,23.7c1.3-4.2,0.5-4.7-1.2-5.8c6.3-12.1,17.3-19.9,26-30.3
				c-3.6,2.7-6.9,5.7-10.2,8.8c1.4-4.9,7.4-10.5,14.7-15.1C789.8,785.3,798.4,782,804.7,779.2z"/>
		</g>
	</g>
</g>
</svg>
