<?xml version="1.0" encoding="utf-8"?>
<!-- Generator: Adobe Illustrator 22.0.1, SVG Export Plug-In . SVG Version: 6.00 Build 0)  -->
<svg version="1.1" id="Layer_1" xmlns="http://www.w3.org/2000/svg" xmlns:xlink="http://www.w3.org/1999/xlink" x="0px" y="0px"
	 viewBox="0 0 1920 1080" style="enable-background:new 0 0 1920 1080;" xml:space="preserve">
<style type="text/css">
	.st0{fill:#C1DCF2;}
</style>
<g id="object">
	<g id="XMLID_45_">
		<g id="XMLID_77_">
			<g id="XMLID_173_">
				<path id="XMLID_174_" class="st0" d="M928.7,127.9l9.9-4.6c-17.3-10.7-65.4-22.7-105.4-35.5l25.4,10
					c-5.3,3.3,16.4,12.7,14.7,16.7C875.1,105.1,909,123.2,928.7,127.9z"/>
			</g>
			<g id="XMLID_171_">
				<polygon id="XMLID_172_" class="st0" points="1000.8,134.6 932.9,117.9 959.7,129.2 				"/>
			</g>
			<g id="XMLID_169_">
				<path id="XMLID_170_" class="st0" d="M989,146c2.9,1.6,7.3,3.5,11,4.6C996.3,148.7,992.7,147.3,989,146z"/>
			</g>
			<g id="XMLID_167_">
				<path id="XMLID_168_" class="st0" d="M1091.6,167.4c-35.8-8.7-61.2-18.7-90.2-29.4c7.9,4.7,11.5,5.3,23.1,10.7
					c-21.1-6-50.4-11.4-75.2-18.1c9.2,8.7,24.1,10,39.8,15.5c-4-2.3-5.2-4.2,2.5-3.4c22.3,12.7,39.5,9.4,60.3,20.7l-22-4
					c1.2,6.7,46.2,7.4,42,17.4C1102.8,178.1,1052.6,161.3,1091.6,167.4z"/>
			</g>
			<g id="XMLID_165_">
				<path id="XMLID_166_" class="st0" d="M1113.3,176.8c-2.4,0.3-3,0.9-2.5,1.7C1112.8,178.1,1114.2,177.6,1113.3,176.8z"/>
			</g>
			<g id="XMLID_163_">
				<path id="XMLID_164_" class="st0" d="M1106.2,184.1c22.5,7.4,57.5,18.1,65.9,12.1c-22.3-12.7-28.5-7.4-40.3-7.4
					c-5-2.6-19.6-7.6-21.1-10.3C1106.6,179.3,1100,180,1106.2,184.1z"/>
			</g>
			<g id="XMLID_161_">
				<path id="XMLID_162_" class="st0" d="M1213.6,210.2l-11-2l0.3-5.3c-2.3,0.7-12.9,7.3-35.5-0.1c10.7,7.3,16.1,4,27.6,9.4
					L1213.6,210.2z"/>
			</g>
			<g id="XMLID_159_">
				<path id="XMLID_160_" class="st0" d="M1187.3,174.2c0,0-24.2-3.4-42-3.4c26.3,2.7,68.1,22.9,65.4,9.1
					c-11.9-3.1-21.8-5.4-25.7-5.1L1187.3,174.2z"/>
			</g>
			<g id="XMLID_157_">
				<path id="XMLID_158_" class="st0" d="M1212.2,180.3c13.5,7.2,23.1,8.1,40.8,11.3C1240.4,188.2,1225.2,183.8,1212.2,180.3z"/>
			</g>
			<g id="XMLID_155_">
				<path id="XMLID_156_" class="st0" d="M1210.8,179.9c0.5,0.1,1,0.3,1.4,0.4c-0.5-0.3-1-0.5-1.5-0.8
					C1210.8,179.7,1210.7,179.8,1210.8,179.9z"/>
			</g>
			<g id="XMLID_153_">
				<polygon id="XMLID_154_" class="st0" points="1265.7,231.6 1231.7,218.9 1239.5,223.6 				"/>
			</g>
			<g id="XMLID_151_">
				<path id="XMLID_152_" class="st0" d="M1230.5,198.2c27.6,9.4-13.6-10,12.6-2c7.3,1.4-38.6-11.4-41.7-8.7
					C1207.9,190.9,1229.3,191.6,1230.5,198.2z"/>
			</g>
			<g id="XMLID_149_">
				<path id="XMLID_150_" class="st0" d="M1316,248.3c11.8,0,28.2,12.7,42.8,15.4l6.7-2C1333.1,259,1332.5,241.7,1316,248.3z"/>
			</g>
			<g id="XMLID_147_">
				<path id="XMLID_148_" class="st0" d="M1439.3,278.5c-4.5,1.3-13.2-1.3-12.7,2c-10.1-4-7-6.7-13.6-10
					c-19.1-1.3-45.9-12.7-61.4-13.4c7.3,1.3,8.7,2.7,13.8,4.7c26.8,11.4,65.7,17.4,83.4,31.4
					C1445.6,287.2,1463.3,287.2,1439.3,278.5z"/>
			</g>
			<g id="XMLID_145_">
				<path id="XMLID_146_" class="st0" d="M1335.2,230.2c-6-2-11.3-3.9-16.8-5.9c2.5,1.7,7,3.6,16.9,6.1
					C1335.3,230.3,1335.3,230.2,1335.2,230.2z"/>
			</g>
			<g id="XMLID_143_">
				<path id="XMLID_144_" class="st0" d="M1339.8,229c9.1-2.6,29.9,8.7,35.3,5.4c-0.4-2.4-12.6-7.5-16.2-9.9
					c-8,7.1-31.6-9.7-23.6,5.7c7.6,2.5,16.4,5,28.6,7.6L1339.8,229z"/>
			</g>
			<g id="XMLID_141_">
				<path id="XMLID_142_" class="st0" d="M1294.1,211l-11.3,3.3c16.1,3.4,26.3,6.7,35.5,10C1312.8,220.4,1317.3,217.5,1294.1,211z"
					/>
			</g>
			<g id="XMLID_139_">
				<path id="XMLID_140_" class="st0" d="M1358.8,224.5c0.5-0.4,0.9-0.8,1.2-1.4C1357.3,222.9,1357.4,223.5,1358.8,224.5z"/>
			</g>
			<g id="XMLID_137_">
				<path id="XMLID_138_" class="st0" d="M1472.1,270.5c-2.8-0.9-5.6-1.8-8.6-2.6l0.1,0.1c0.8,0.3,1.6,0.7,2.5,1
					c1.8,0.7,3.7,1.5,5.6,2.2c2.1,0.8,4.2,1.5,6.3,2.3c6.3,2.2,12.6,4.3,18.9,6.2c-4.8-2-9.9-4.1-15.4-6.1
					C1478.4,272.6,1475.3,271.6,1472.1,270.5z"/>
			</g>
			<g id="XMLID_135_">
				<path id="XMLID_136_" class="st0" d="M1446.2,260.1c7.6,4.5,10.2,8.6-1.8,6.4l-9.9-9.3l-33.2-0.7c25.1,1.4,48.5,20.7,56.3,11.4
					l10.7,7.3l-4.7-7.2c-2.7-1.1-5.4-2.3-7.8-3.3C1452.2,263,1449,261.5,1446.2,260.1z"/>
			</g>
			<g id="XMLID_133_">
				<path id="XMLID_134_" class="st0" d="M1535.9,288.2l1.4,1.3c-13-2-26.7-5.5-40.4-9.7c1.1,0.5,2.2,0.9,3.3,1.4
					c11.4,5,20.3,9.9,27.1,14.3c-7.6,14.9-14.4,26.4-19.5,35.9c-1.8,3.3-3.3,6.3-4.7,9.3c-0.5,0.5-1,0.8-1.5,0.5
					c-0.7-6,2.1-12.5,6-20.1c3.9-7.4,9-15.9,11.4-21.2c-2.6-1.3-4.8-1.7-6.7-0.3c0.7,0.8,1.7,1.6,2.8,2.4
					c-5.5,10.1-9.7,21.1-13.3,30.4c-1.8,4.6-3.5,8.8-5,12c-1.7,3.7-3.3,6.6-4.7,7.6c0.2,5.6,6.9-8.1,4.5,6.3
					c-7.9,20.7-9.4,16.8-16.9,28.5l1.1,13.1c-7.2-0.1-12.6,22-19.1,45.6c6.8-15.6,13.9-31.5,20.8-48.2c4-9.6,7.9-19.4,11.7-29.6
					c0.8-2.1,1.5-4.3,2.3-6.4c-5.5,42.1-27.2,76.6-38.4,118c-1.4,21.8,8.6-18.8,12.1-20.1c7.4,8.6-10.8,18.5-6.1,30.2
					c5.8,4.7,20-40.8,29.4-57.6c3.8-15.9,1.6-16.3-0.7-22.2c4.9-2.9,10.8-18.4,15.7-21.3c1.2-8.5,2.9-15.8,5.1-22.5
					c1.1-3.3,2.2-6.5,3.4-9.6c1.4-3.5,2.7-7,4-10.5c5.9-15.7,12.4-33.6,15.2-52.9c1.2-1.9,2.1-3,2.6-3.4c0-0.1,0.1-0.1,0.2-0.1
					c0,0,0,0,0.1,0v-0.1L1535.9,288.2z"/>
			</g>
			<g id="XMLID_131_">
				<path id="XMLID_132_" class="st0" d="M1538.9,289.2l-5.9,20.2c-2.2,6.2-0.1,1.1,2.4-5.7C1537.8,296.9,1540.4,288.7,1538.9,289.2
					z"/>
			</g>
			<g id="XMLID_129_">
				<path id="XMLID_130_" class="st0" d="M1446.2,260.1c-1.7-1-3.6-2-5.7-3C1442,258.1,1444,259.1,1446.2,260.1z"/>
			</g>
			<g id="XMLID_127_">
				<path id="XMLID_128_" class="st0" d="M1406.9,247.4l-17.4-5C1399.3,246.1,1404.3,247.4,1406.9,247.4z"/>
			</g>
			<g id="XMLID_125_">
				<path id="XMLID_126_" class="st0" d="M1426.9,247.1c-26.6-10.5-12.4,0.3-20,0.3l24.9,7.1L1426.9,247.1z"/>
			</g>
			<g id="XMLID_123_">
				<path id="XMLID_124_" class="st0" d="M1457.5,502.9c-0.2,14.7,7.8-0.6,11.6-16.5C1464.5,500.4,1459.1,506.8,1457.5,502.9z"/>
			</g>
			<g id="XMLID_121_">
				<path id="XMLID_122_" class="st0" d="M1372.4,675.6c-2.3,0.9-5,5-6.8,16.5C1367.5,689.9,1369.9,683.6,1372.4,675.6z"/>
			</g>
			<g id="XMLID_119_">
				<path id="XMLID_120_" class="st0" d="M1501.7,322.9c-0.6,1.9-1.2,3.8-1.8,5.6C1500.4,326.9,1501.1,325,1501.7,322.9z"/>
			</g>
			<g id="XMLID_117_">
				<path id="XMLID_118_" class="st0" d="M1416.8,546.8l1.5-2.3C1417.7,545.2,1417.4,545.9,1416.8,546.8
					C1416.8,546.7,1416.8,546.7,1416.8,546.8z"/>
			</g>
			<g id="XMLID_115_">
				<path id="XMLID_116_" class="st0" d="M802,91.7c-4-1-8.1-2.1-12.2-3.1C793,89.6,796.9,90.7,802,91.7C802,91.7,802,91.7,802,91.7
					z"/>
			</g>
			<g id="XMLID_113_">
				<path id="XMLID_114_" class="st0" d="M815.4,88.1c-4-2.8-7-5.3-11.6-7.6c-4.5-2.2-10.1-4-16.9-4.7c9.5,4.6,13.1,6.7,14.3,7.8
					c1.2,1.1-0.1,1.1-1.8,1.1c-1.6,0-3.5-0.1-3.7,0.8c-0.2,0.8,1.6,2.7,6.2,6.1c14.8,3.8,29.9,7.6,44.3,11
					C830.4,98.5,822.2,93,815.4,88.1z"/>
			</g>
			<g id="XMLID_111_">
				<path id="XMLID_112_" class="st0" d="M846.3,102.7c2.3,0.6,4.8,1.2,7.4,1.8C851.3,103.9,848.8,103.3,846.3,102.7z"/>
			</g>
			<g id="XMLID_109_">
				<path id="XMLID_110_" class="st0" d="M1132.1,169.4c-0.5-0.1-1-0.1-1.5-0.2C1133.3,169.8,1134.6,169.9,1132.1,169.4z"/>
			</g>
			<g id="XMLID_107_">
				<path id="XMLID_108_" class="st0" d="M718.7,903.1c6.4,3.3,21.9,4,33.5,9.4C742.1,908.4,724.9,897.8,718.7,903.1z"/>
			</g>
			<g id="XMLID_105_">
				<path id="XMLID_106_" class="st0" d="M712.3,927.7l0.5-1.1c-1.6,0-3.8-0.2-6.1-0.5C708.5,926.7,710.4,927.3,712.3,927.7z"/>
			</g>
			<g id="XMLID_103_">
				<path id="XMLID_104_" class="st0" d="M714,923.7l-1.2,2.9C716.2,926.6,717.6,926,714,923.7z"/>
			</g>
			<g id="XMLID_101_">
				<path id="XMLID_102_" class="st0" d="M667.2,913l22.5,7.4c-1.7,4-2.5,6-16.3,1.3c2.8,2.7,16.1,4,23.4,5.4l-5.1-2
					c3.4-0.3,9.6,0.5,14.9,1.1C686.7,919.4,674.4,904.4,667.2,913z"/>
			</g>
			<g id="XMLID_99_">
				<path id="XMLID_100_" class="st0" d="M634.3,907c8.7,2.7,29.8,8.7,25,1.4L634.3,907z"/>
			</g>
			<g id="XMLID_97_">
				<path id="XMLID_98_" class="st0" d="M601.8,890.3c25.2,11.3,12.8,0.4,28.5,3.7c-4.7-1.4-9-3-13-3
					C630.3,897.6,607.7,890.3,601.8,890.3z"/>
			</g>
			<g id="XMLID_95_">
				<path id="XMLID_96_" class="st0" d="M630.3,893.9c2.1,0.7,4.4,1.3,6.7,1.7C634.3,894.8,632.2,894.3,630.3,893.9z"/>
			</g>
			<g id="XMLID_93_">
				<path id="XMLID_94_" class="st0" d="M881.6,942.6l-0.8-2.6C879.3,940.3,879,941,881.6,942.6z"/>
			</g>
			<g id="XMLID_91_">
				<path id="XMLID_92_" class="st0" d="M549.9,868.1l-2.5-1.1c-3.6-0.9-7.3-1.9-11.3-3.1L549.9,868.1z"/>
			</g>
			<g id="XMLID_89_">
				<path id="XMLID_90_" class="st0" d="M928,82.6l-2.5,0.4C926.4,82.9,927.2,82.8,928,82.6z"/>
			</g>
			<g id="XMLID_87_">
				<path id="XMLID_88_" class="st0" d="M508.7,773.9c0.2-0.2,0.3-0.3,0.5-0.5C509.2,773,509,773.3,508.7,773.9z"/>
			</g>
			<g id="XMLID_82_">
				<path id="XMLID_83_" class="st0" d="M1415.4,540.2c7.9-17.9-0.1,13.5,7.6-1.1c-1.9,19.1-21.1,38.6-26.8,71.8
					c2.4-11.8,5.5-6,4.9,0.3c-9.1,20.2-17.7,54.8-24.4,75.7c1.3-0.6,2.5-0.2,3.4,0.5c-7.9,17.9-9.7,23.4-20.2,42.7
					c-32,74.7-54.9,183.5-85.7,245.5c-11.9,18.8,1-23.1-4.2-15.4c-3.6,25.5-5,45.2-4.7,60.2c-52.7-23.2-112.5-44.2-176.6-64
					c-9.2-1.2-17.4-1.5-5.7,4.1c20.6,2.7,29.1,10.7,13.6,10c-22-4,3.9-4.7-22.6-7.4l11.6,5.3c-24.8-6.7-38.1-8.1-54.4-6.7
					c-95-36.8-206-49.6-286.9-87l-31-1.4c-0.5-3.3-2.5-8-17.2-10.7c5.1,2,13.8,4.7,11.6,5.3l-64.9-19.4l5.7,5.3
					c-9.7-5-24.5-8.5-39.4-12.5c-14.5-3.8-31.6-8.8-35.4-13.6c-1.1,1.9-12.5,0.2-14.1,2.9c-5-2.2-9.9-4.2-15-6.1
					c4.2-11.6,7.6-22.4,10.8-33.6c4.1-14.5,8.2-29,12.2-43.1c8.2-28.7,16.8-55.9,28.1-78.4c-4,4.2-4-1.7-4.6-4c6-21.1,4-4.2,8-8.4
					c-14.6-14.1,92-282.7,93.3-319.6c-2,5-4,10.1-4.7,7.9c13-44.4,26.4-90.5,39.8-136.3c6.6-22.9,13.2-45.8,19.8-68.3
					c2.9-10.5,5.9-20.8,8.7-31.1c2.6-9.4,5.1-18.8,7.6-28c9.1,2.4,17.7,4.6,26.1,6.8c-10.7-3.4-13.1-6.8-14.3-10.1
					c-1.3-3.3-1-6.3-9.9-10c-8.1-0.9-1.7,2.1,3.3,4.5c5.2,2.5,9,4.6-0.9,2.9c-4.2-2.6-7.8-4.6-10.8-6.1c-4.1,7.2-3.7,13.8-3.7,20
					c0,3.2-0.2,6.3-1.3,9.9s-3,7.6-6.9,13.5c0.1-6.2,0.3-12.9,0.8-20.2c-4.4,21.8-9.1,42.2-15,64.8c-5.9,22.4-12.6,45.8-19.2,67.6
					l-5.3-6.2c-2,16.9-9.4,39.4-16,40.5c16.7-50.1,4.1-63.4,20.1-92.1c1.3,4.5,0.7,2.2,3.3-0.6c-0.3-7-0.1-16.8,1.5-27.7
					c0.8-5.5,2-11.2,3.6-17c0.8-2.9,1.7-5.8,2.8-8.8c0.7-1.9,1.4-3.9,2.1-5.9c0.8-2.1,1.7-4.2,2.5-6.4v7.4c0,2.3,0,5,0.3,6.5
					c6.5-21.3,13.2-43.4,19.9-65.2c15.9,4.8,31.6,9.5,47,14.2c7.2,2,14.2,4.1,21.2,6c5.5,1.5,10.9,2.9,16.2,4.2c-9.3-6,2.5-6,18.6-2
					c24,8.7-8.2,0.6,1.2,6.7c12.7,12,59.2,14.1,76.6,19.4c-5.9,0,45.6,18,12.7,12c37.8,13.4,68.2,11.4,91,27.4
					c4.5-1.3,14.9-2.7,25.9-0.6l-2.5,6l14.1-0.6c25.7,7.9,34.7,24,62.2,26.5c-5.1-1-15.3-3.7-15.1-7.1c3.9-4.7,53.5,8.7,45.9-1.3
					l-22.8-2c9-2.7-19.5-10-12.7-12l-59.2-14.1l0.3-5.3l12.9,6.7c20.3-6-28.4-7.4-43.4-18.7l-1.7,4c-49.3-18.7-19.5-10-60.1-26.1
					l-14.1,0.6c-2.2,0.7,38.9,6.1,36.4,12c-27.9-4-64.3-16.1-94.4-19.4l22.8-3.6c-11,0.6-25.5-14.3-51.9-21.1l23.1,10.7
					c-11.6,1.6-28.7-3.4-47.1-9.3c-9.2-3-18.8-6.2-28.2-8.9c-2.6-0.7-5.1-1.4-7.6-2.1c-3.9-1-7.8-2.1-11.6-3.1
					c-7.6-1.9-14.8-3.6-21.4-4.8c14.7,4.5,29.4,8.9,30.9,12.5c-12.5-0.6-44.1-12.1-65.1-20.2c0.3-5.7,33.2,2.7,64.6,11
					c1.9,0.5,3.7,1,5.6,1.5c1.1,0.3,2.2,0.5,3.2,0.8c2.1,0.5,4.2,1,6.2,1.4c4,0.9,7.5,1.6,10.5,2c5.9,0.9,9.2,0.5,7.9-2.1
					c-7-2.3-13.9-4.1-20.7-5.4c-1.7-0.3-3.4-0.6-5.1-1c-0.5-0.1-2.3-0.5-3.8-0.8l-4.6-1c-6-1.3-11.9-2.5-17.6-3.8
					c-22.8-4.7-41.7-7.7-58.3-11.5c-2.7,11.4-5.4,21.1-8.6,29.5c1.4-11.5,3-23.6,4.8-36.5l2.1,0.2l-2.3-0.5L723,52.2l3.2-9
					c-0.1,9.4-3.2,18.9-7.1,30c-2,5.6-4.1,11.6-6.2,17.6c-1,3.1-2.1,6.2-3,9.4l-1.4,4.8l-0.6,2.4l-0.3,1.5c-0.1-0.5-0.3-0.9-0.4-1.4
					l-0.1-2.4l-0.2-4.8l-0.3-10.2l-10.6,34l2.7-2.8c-10.1,43.1-22.1,79.5-37.5,116.4l9.4-21.7c0.7,2.3-2.7,14.6-6.7,24.8
					c4.7-2,12-30.4,14.7-27.3c-12.1,36.4-18,39.7-32.1,75.3c1.3,4.5,16.7-20.6,10,10.1c-4.7-4-14.7,21.4-14,0
					c-3.9,26.9-10.1,18.3-10,40.7c0.4-2.6,1.9-6.3,3.3-10c5.4-5.7,0,11.8-1.4,19.2c-7.3,10.7-12.7,16.3-19.4,35.2l-8.7,41.7
					c-1.3,1.4-2-0.9-2-0.9c-9.4,39.5-25.4,80.1-30.8,109.4c1.3,4.5,1.3,16.3,7.3-4.8c0,17.7-11.4,38.6-18.7,55.2l-1.3-16.3
					c-13.4,49.6-38.8,106-46.2,152.2l6.7-7c-2.5,10.7-5.5,21.3-8.6,31.4c-1.6,5.1-3.2,10-4.8,14.9c-1.7,5.1-3.3,10-4.9,14.8
					c-11,34.3-20.9,65.7-25.1,86.1c0.2,0,0.3,0.1,0.5,0.1c-0.1-0.1-0.3-0.1-0.3-0.2c6.2-14.9,8.9-19.7,9.5-19s-0.8,7-3.1,15.5
					c18.7,5,46.2,13.4,54.7,14.8c-15.5-5.5-33.7-11-52.3-16.2c5.8-21,11.1-41.7,15.2-57.5c3.2-12.5,5.8-22,6.8-24.4
					c-0.3,0.3-0.5,0.5-0.9,1.2l12.8-58.1l6,2.5c-12.7-7.3,28.7-74.7,13.4-67.4c4-16,11.4-20.9,14-17.7l9.4-45.3
					c4-4.2,7.3,7,5.3,12.1c-5.3,17.5-8.7,47.6-20.1,62.5c-0.7,15.5,10.7-11.3,2.6,20.8c-10.4,22.8-18.5,48.4-25.9,73
					c-4.5,15.1-8.9,29.9-13.1,43.9c-5.3,17.4-10.5,33.7-15.9,49.2c7.2,2.6,13.8,5.1,20,7.7c-11.5-5.8-24.1-9.6-4-7.1
					c10.8,5,22.5,10.2,35.1,15.8c8.5,2.2,16.5,3.8,22.8,4.8c4.5,0.4,8.7,0.7,12.6,1.1c7.8,0.7,14.7,1.8,21.8,6.1
					c3.4-1-5.9-4.9-17.6-9.3c-6.2-2.3-13.1-4.9-19.3-7.1c-8-2.9-14.9-5.5-19-7.4c9.2-0.9,16.2-0.2,23,1.8c1.8,0.5,3.2,1,4.5,1.5
					c1.4,0.5,2.7,1.1,4.1,1.7c2.7,1.2,5.4,2.6,8,4c10.7,5.6,21.5,11.6,34.2,9.6c12.1-5.3-56.9-14.7-35.3-19.4l29,10.7
					c-8.5-8-21.1-10.9-32.1-13.3c-10.5-2.3-22.4-5-22.6-10.7c6.4,0.2,15.9,2.9,25.7,6.3c9.4,3.3,17.8,7,19.2,8.3
					c9.6,0.7-15-11.4,1.9-9.3c15.8,9.3,25.6,4.7,37.8,13.4l-9,2.7c12.4,3.4,42.9,15.4,57.5,18.1c-1.1,7.3-37.7,0.6-51.5-4.1
					c10.7,7.3,34.1,12.7,46.5,16.1L668,883c33.6,9.4,29-3.3,66.8,10.1c32.1,8,6.2,8.7,15.6,14.7c36.6,6.7,12.4,3.3,13.5-4
					c28.4,7.4,34.1,12.7,71.3,22.7c-22-4-28.8-2.1-49.1-10.1l4.8,7.3c29.3,5.4,53,5.4,88.2,10.8l1.7,5.4
					c8.1-1.7,280.1,80.1,265.7,66.6c3.7,2.4-54.4-15.1-105.6-30.4l3.3-1c42.5,9.7,162.5,42.4,127.4,32.7c4.8-6.6,22,4,23.1-3.3
					c28.9,6.1,50.9,12.6,70.8,19.3c1.3,28,9.6,37.7,22.3,35.6c0.6-3.7,1.2-7.4,1.8-11c1.1,0.9,6.1,1.3,8.5-10.6
					c3.6-18-2.8-6.3-5.5-5.1c-0.3-0.2-0.7-0.3-1-0.5c-0.2-0.5-0.2-1.4-0.1-2.9c21.9-21,14-81.4,39.7-102.9
					c30.4-109.9,66.8-242.7,99.8-340.5l-2.9,4.6c1.1-11.4,11.5-37.4,14.9-36.9l-4.6-6.3c8.6-37.9,14,24.1,25.4-18.1
					c-10,20.4-14.2-0.5-8.3-16.1c-2.7,3.2-12.6,0-14.7,8.8l-13.1,20.7c9.5,3.8-6.3,39.6-12.5,52c-0.2-0.5-0.3-1-0.4-1.6
					c1.4-4.9,0.9-4.3-0.4-1.5c-2-8.5-1.8-20.6,6.8-33.4c3.8-17.2,8.9-33.7,14.8-49.9C1428.6,514.7,1421,520,1415.4,540.2z
					 M971.6,955.9c3.2,1,6.3,1.9,9.3,2.8c-5.3-1.5-9.3-2.5-11.8-3.1C969.9,955.7,970.7,955.7,971.6,955.9z M1036.2,974.8
					c-2.1-0.6-4.2-1.2-6.3-1.9c-0.6-0.7,4.2,0.1,12.3,1.9H1036.2z"/>
			</g>
			<g id="XMLID_80_">
				<path id="XMLID_81_" class="st0" d="M1436,508.1c4.9-4.4,9.7-9.4,13.6-19.8c-0.5-1.3-1.1-2.7-2-1.7
					c5.6-10.9,10.1-26.4,14.2-41.3c-1,2.3-2,4.5-3,6.8C1450.6,471,1442.7,489.4,1436,508.1z"/>
			</g>
			<g id="XMLID_78_">
				<path id="XMLID_79_" class="st0" d="M1442.8,553.6l0.9,1.3C1443.5,554,1443.2,553.7,1442.8,553.6z"/>
			</g>
		</g>
		<g id="XMLID_46_">
			<g id="XMLID_72_">
				<path id="XMLID_73_" d="M588.5,531.2c0,4.4-2.2,4.4-1.5,8c0.7,2.9-7.3,23.9-8.7,26.8c-4.4,11.6-9.4,23.2-13.8,34.8
					c-6.5,13.1-13.1,24.7-19.6,37c-2.9,5.1-37,48.6-40.6,51.5c-9.4,6.5-25.4,25.4-34.1,31.2c-5.8,3.6-27.6,11.6-32.6,12.3
					c-9.4,0.7-19.6,1.5-28.3-0.7c-15.2-2.2-37.7-24.7-45-39.2c-3.6-6.5-8-12.3-10.2-19.6c-2.9-9.4-5.1-24.7-5.8-35.6
					c0-61,7.3-69.7,24.7-128.4c1.5-5.1,2.2-9.4,3.6-14.5c0.7-5.1,2.9-10.2,4.4-14.5c2.2-8,4.4-16,6.5-23.2
					c3.6-16,22.5-43.5,5.1-47.2c-5.1-0.7-9.4,0-13.8-3.6c-4.4-2.9-8.7-5.1-13.1-8c-1.5-1.5-3.6-2.9-4.4-6.5c1.5-0.7,2.9-1.5,3.6-1.5
					c10.2-2.2,19.6-4.4,29.7-6.5c6.5-1.5,13.8-2.2,21-2.9c2.9-0.7,5.8-2.2,7.2-5.8c2.2-5.8,5.8-10.9,7.3-17.4
					c7.3-13.8,12.3-28.3,20.3-41.4c7.3-11.6,14.5-21.8,23.9-30.5c1.4-2.2,3.6-4.4,5.1-5.8c2.9-2.2,5.8-3.6,9.4-2.9
					c4.4,1.5,8.7-0.7,13.8-0.7c0.7,0,0.7,0,1.5-0.7c10.2-2.2,13.8,2.2,16.7,10.2c3.6,7.3,5.1,14.5,5.1,23.2c0,4.4,0.7,8,1.5,11.6
					c0.7,2.9,0.7,6.5,0,10.2c-0.7,3.6-1.5,7.3-2.2,11.6c-1.5,5.8-2.9,11.6-4.3,17.4c0,2.2,0,3.6-0.7,5.8c2.2,1.5,4.4,1.5,7.3,1.5
					c8.7-0.7,18.1-1.5,26.8-2.2c12.3,0,25.4,0,37.7,0c4.3,0,8.7,1.5,13.8,2.2c-1.5,2.2-2.2,3.6-2.9,4.4c-1.5,1.5-3.6,2.9-5.1,3.6
					c-5.1,2.2-10.9,5.1-16,7.3c0,0.7-0.7,0.7-0.7,0.7c-8,0.7-16.7,4.4-25.4,3.6c-5.1,0-10.2,0.7-15.2,2.2c-2.9,1.5-6.5,1.5-9.4,2.2
					c-5.8,0.7-10.9,1.5-16.7,2.2c-2.9,0.7-4.3,2.9-5.8,5.8c-0.7,0.7-0.7,1.5-1.5,2.2c-8.7,24.7-20.3,47.9-29.8,71.8
					c-1.5,2.9-2.9,5.8-3.6,8c-3.6,7.3-6.5,13.8-8.7,21.8c-2.2,6.5-5.8,13.1-9.4,18.9c-2.9,5.1-2.2,11.6-5.8,16.7
					c-8,18.1-17.4,73.3-16,100.9c0.7,11.6,3.6,22.5,7.3,33.4c1.5,3.6,4.4,5.8,6.5,8.7c0.7,0,1.5,0.7,2.9,0.7
					c6.5,0,19.6,0.7,26.1-3.6c4.4-2.9,26.1-20.3,30.5-23.9c10.9-10.9,35.6-37.7,42.8-52.2c6.5-12.3,10.2-28.3,16.7-39.9
					c2.9-7.3,10.2-23.2,13.8-31.2C584.2,531.9,589.3,529,588.5,531.2z M476.1,423.8c7.3-18.1,9.4-32.7-14.5-17.4
					c-8,23.9-10.9,40.6-17.4,63.1c-16,60.2,7.3,15.2,17.4-11.6C466.6,444.2,469.5,436.9,476.1,423.8z M498.6,340.4
					c0.7-2.9,1.5-6.5,2.2-10.2c0.7-5.8,2.2-11.6,2.9-17.4c0.7-6.5,0-13.1-0.7-19.6c-0.7-2.9-2.9-3.6-4.4-2.2
					c-2.9,2.2-5.1,3.6-6.5,7.3c-2.9,5.8-5.8,12.3-7.3,18.9c-0.7,2.2-2.2,4.4-2.9,6.5c-1.5,2.9-2.9,5.8-4.4,9.4
					c-1.5,7.3-2.9,15.2-5.1,23.2c-2.9,18.9,17.4,19.6,21.8,6.5C495.7,355.6,497.1,348.4,498.6,340.4z"/>
			</g>
			<g id="XMLID_69_">
				<path id="XMLID_70_" d="M633.5,556.6c2.9-10.9,28.3-62.4,33.4-71.1c4.4-6.5,8.7-13.1,12.3-20.3c4.4-5.8,8.7-12.3,11.6-18.1
					c2.9-5.1,7.3-8,11.6-8.7c5.1,0,9.4-0.7,13.8-0.7c8.7,0,13.8,6.5,18.1,16c0,0.7,0,1.4,0,2.9c1.5,9.4,3.6,19.6,5.1,29.8
					c1.5,9.4,0.7,19.6,0.7,29c0,6.5,0.7,13.1,0,19.6c3.6,2.2,2.9,5.1,3.6,4.4c1.5-1.5,6.5,0.7,8-0.7c0.7-1.5,2.2-2.2,2.9-3.6
					c2.9-2.2,5.8-4.4,8.7-8c2.2-3.6,4.4-3.6,7.3,0c0,2.2-0.7,4.4-2.9,5.8c-0.7,0.7-1.5,2.2-2.2,3.6c-0.7,2.2-2.2,4.4-4.3,5.1
					c-0.7,0.7-1.5,1.5-2.2,2.2s-2.2,1.5-2.2,2.2c-0.7,0.7-1.5,0.7-2.2,1.5c-2.9,2.9-5.1,3.6-8,3.6c-0.7,0-3.6,0.7-6.5,2.9
					c-2.2,1.5-4.4,1.5-5.8,0c-5.1-2.9-10.2-3.6-15.2-5.8c-8.7-2.2-15.2-10.2-18.9-20.3c-4.3-13.1-4.3-27.6-2.2-41.4
					c1.5-6.5,1.5-12.3,2.2-18.1c0.7-4.4,1.5-8.7,2.2-13.1c1.5-2.9,1.5-5.1,0.7-8c-0.7,0-2.2-0.7-2.2,0.7c-0.7,0.7-2.2,2.2-2.9,3.6
					c-2.9,5.8-6.5,11.6-10.2,18.1c-2.2,3.6-3.6,8-4.3,13.1c0.7,2.9-1.5,5.1-2.2,7.3c-6.5,12.3-12.3,23.9-16.7,37.7
					c-3.6,10.2-8.7,18.9-13.1,29c-6.5,15.2-14.5,29-19.6,45c-1.5,5.1-4.4,10.9-6.5,16.7c-1.5,4.4-19.6,39.2-23.9,42.8
					c0,1.5-2.2,2.2-3.6,3.6c-8.7,12.3-18.9,11.6-30.5,8.7c-1.5,1.5-2.9,0-4.4-1.5c-11.6-2.9-17.4-13.8-20.3-28.3
					c-2.2-12.3-2.2-25.4-2.2-37.7c0.7-18.9,1.5-37.7,2.9-56.6c3.6-21,0.7-19.6,6.5-39.2c5.1-28.3,2.2-23.9,12.3-52.2
					c0.7-5.1,3.6-8.7,5.1-13.8c5.1-13.1,9.4-24.7,15.2-36.3c2.9-9.4,5.8-10.9,13.1-9.4c5.1,0,11.6,1.5,18.1,2.9
					c4.3,0.7,8.7,2.2,14.5,7.3c5.1,9.4,12.3,16,19.6,24.7c6.5,11.6,8,20.3,3.6,34.1c-3.6,14.5-5.1,3.6-8.7,18.9
					c-9.4,30.5-26.8,54.4-34.8,82C597.2,603.1,630.6,569,633.5,556.6z"/>
			</g>
			<g id="XMLID_66_">
				<path id="XMLID_67_" d="M1034.7,535.6c-0.7,5.1-8,22.5-11.6,25.4c-2.2,0.7-2.9,2.9-4.4,3.6c-2.9,3.6-5.1,6.5-8,9.4
					c-1.5,1.5-3.6,2.9-4.3,5.1c-2.2,4.3-5.1,6.5-8.7,8.7c-1.5,0.7-2.9,1.5-3.6,2.9c-4.4,5.1-10.2,9.4-14.5,13.8
					c-4.4,3.6-8.7,5.8-13.8,7.3c-6.5,1.5-12.3,1.5-18.1,3.6c-5.1,2.2-10.9,2.2-16.7,3.6c-2.2,0-4.4,0-6.5,0
					c-8.7-2.9-17.4-4.3-24.7-10.2c-0.7-0.7-2.2-1.5-3.6-2.2c-6.5-2.9-13.1-6.5-17.4-12.3c-5.8,2.9-10.9,5.8-15.2,9.4
					c-2.9,1.5-5.1,2.9-8,5.1c-0.7,0-1.5,0.7-1.5,0.7c-4.4,5.8-10.2,6.5-16,8.7c-10.2,2.9-20.3,2.9-29.7-2.2
					c-3.6-2.2-7.3-3.6-10.9-5.1c-21-8.7-32.7-24.7-34.8-47.2c-1.5-11.6,0.7-22.5,5.8-32.6c5.1-9.4,10.2-18.9,17.4-26.9
					c0-0.7,0.7-1.5,1.5-2.2c9.4-14.5,21-28.3,31.9-41.4c8-8.7,16.7-16,27.6-22.5c1.5-0.7,4.4-1.5,6.5-1.5c4.3-0.7,8.7-1.5,13.8-1.5
					c0.7,0,1.4,0,2.2,0c4.4,2.2,10.2,2.2,15.2,3.6c1.5,0.7,2.9,1.5,4.4,1.5c3.6,0.7,6.5,0.7,8,3.6c0.7,0.7,1.5,0.7,1.5,0.7
					c3.6,0,6.5,3.6,10.2,3.6c1.5,0,2.9,0.7,3.6,1.5c4.3,4.4,9.4,8,12.3,13.1c0.7,2.2,1.4,3.6,2.2,5.8c1.5,6.5,0,10.9-6.5,14.5
					c-6.5,2.9-12.3,7.3-18.1,11.6c0,0,0,0,0,0.7c-8,8-17.4,15.2-23.9,24.7c-2.9,3.6-5.8,6.5-8.7,9.4c-6.5,7.3-11.6,15.2-17.4,23.2
					c-2.2,3.6-5.1,7.3-7.3,10.2c-1.5,1.5-2.2,2.9-2.9,4.4c-4.4,8-7.3,16-8.7,23.9c-0.7,0.7,0,1.5,0,2.9c1.5-0.7,2.2-1.4,2.9-2.2
					c7.3-7.3,15.2-14.5,23.9-21c4.4-3.6,8-7.3,10.9-12.3c1.5-2.2,3.6-4.4,5.8-6.5c4.3-5.1,8.7-10.2,12.3-16c5.1-8,10.2-16,15.2-24.7
					c6.5-0.7,11.6,0,16,5.1c1.5,1.5,2.9,2.9,4.4,4.4c5.1,6.5,5.8,13.8,6.5,21c0,1.5-0.7,2.2-1.5,3.6c-2.9,6.5-6.5,13.8-10.2,20.3
					c-2.2,5.1-2.9,10.2-2.2,15.2c1.5,5.8,3.6,12.3,6.5,18.1c1.5,2.2,3.6,3.6,6.5,3.6c5.1-0.7,10.2-1.5,15.2-3.6
					c4.4-2.2,9.4-4.4,13.8-7.3c5.1-2.9,10.2-5.8,16-9.4c3.6-3.6,8-6.5,11.6-10.2c9.4-9.4,23.9-33.4,33.4-42.8
					c0.7-0.7,1.5-0.7,2.2-1.5C1027.5,529,1031.1,531.9,1034.7,535.6z"/>
			</g>
			<g id="XMLID_58_">
				<path id="XMLID_59_" d="M1259.6,542.8c-2.2,2.9-2.9,13.8-3.6,17.4c-0.7,2.2-5.1,4.4-6.5,5.8c-1.5,4.4-25.4,10.2-27.6,10.2
					c-7.3,4.4-26.1-8.7-28.3-9.4c0,0-10.2-7.3-10.9-8c-0.7-1.5-12.3-11.6-13.8-13.1c-6.5-12.3-10.2-16-16.7-27.6
					c-6.5,8.7-5.1,9.4-10.9,21c-5.8,10.9-10.2,22.5-17.4,34.1c-2.2,1.5-2.9,3.6-4.3,5.1c-2.2,7.3-6.5,13.1-12.3,18.9
					c-4.4,5.8-7.3,11.6-10.2,18.9c0,0.7-0.7,2.9-0.7,3.6c0.7,5.1-2.2,8.7-4.4,13.1c-4.4,5.1-8,10.2-10.9,16.7
					c-4.4,10.2-8.7,18.1-18.9,24.7c-2.2,2.9-5.1,4.4-8.7,4.4c-2.2,0-5.1,0-8-0.7c-3.6,0-8,0.7-13.1,1.5c-10.2,4.4-20.3,1.5-24.7-8.7
					c-2.2-5.1-24.7-20.3-28.3-23.9c-5.1-5.1-13.1-21.8-11.6-28.3c0-5.8,1.5-10.9,2.2-16c2.9-10.9,4.4-23.9,7.3-35.6
					c2.2-8.7,3.6-17.4,5.8-26.9c5.1-20.3,8.7-39.9,13.8-58.8c3.6-11.6,5.8-21.8,8-33.4c0.7-6.5,0.7-13.8,2.9-20.3
					c0.7-7.3,0-4.4,0.7-10.2c0.7-2.2,0.7-3.6,2.2-5.8c2.2-1.5,5.1-0.7,7.3,1.5c0.7,1.5,2.9,3.6,3.6,4.4c2.9,3.6,1.5,4.4,6.5,4.4
					c1.5,0,4.3,2.2,4.3,2.9c3.6,6.5,9.4,10.2,14.5,14.5c2.9,5.8,8,9.4,8.7,16.7c-2.9,0-4.3,0-7.3-0.7c-1.5,4.4-2.9,7.3-0.7,12.3
					c3.6,7.3,3.6,15.2,4.4,23.9c0,3.6,0.7,7.3,0.7,9.4c2.9,8.7,2.9,18.1,2.9,26.8c0,2.2,0,3.6,0,5.8c0.7,7.3,0.7,14.5,0.7,21.8
					c-0.7,5.8,0,11.6,0.7,16.7c0,5.1,0,5.1-2.2,10.2l-2.2-0.7c-0.7-3.6-0.7-6.5-1.5-9.4c0-0.7-1.5-1.5-2.2-2.2c-0.7,0-1.5-1.5-2.2,0
					c-0.7,0-1.5,1.5-1.5,2.2c0,8,0,15.2,0.7,22.5c0.7,3.6,1.5,8,0.7,11.6c-0.7,2.9,0,5.1,1.5,6.5c0.7,0,2.9,0.7,3.6,0
					c0.7,0,1.5-1.5,0.7-2.9c-0.7-3.6,0.7-8.7,2.2-13.8c0,0,0.7-0.7,1.5-1.5c0,0.7,0.7,1.5,0.7,2.9c1.5,4.4,1.5,8,1.5,11.6
					c0.7,2.2,0.7,2.9,1.5,4.4c0,1.5,0.7,2.2,0.7,2.2c-3.6,5.1,0.7,6.5,1.5,10.2c1.5-0.7,2.9-2.2,3.6-2.9
					c10.9-13.1,21.8-25.4,31.2-40.6c3.6-5.1,7.3-10.2,10.9-15.2c5.1-6.5,8.7-13.8,11.6-21.8c1.5-5.1,4.3-11.6,7.3-16
					c8-18.9,9.4-6.5,14.5-23.2c0.7-2.2-3.6-18.9-4.4-21.8c0-13.8-3.6-13.1,5.1-15.2c2.9,0,16,2.9,18.1,4.4c4.4,2.2,0.7,2.9,5.8,2.9
					c2.9-0.7,5.1,0.7,7.3,1.5c1.5,0.7,2.2,1.5,2.9,3.6c0,1.5,0.7,2.2,1.5,4.4c4.4,28.3,7.3,34.1,15.2,53c6.5,5.1,14.5,24.7,29,21.8
					c7.3-2.2,10.9-5.1,18.1-6.5c6.5-1.5,11.6-9.4,18.1-13.1c0.7-0.7,1.5-0.7,2.2-0.7C1261.1,541.4,1260.4,542.1,1259.6,542.8z
					 M1046.3,537.8l0.7,1.5c0,0.7,0.7,0,0.7,0c0.7-2.2,0.7-3.6,1.5-5.1c0-1.5,0-2.2,0-3.6c-0.7-0.7-1.5-1.5-2.2-0.7
					c0,0.7-0.7,2.2,0,2.2c0.7,0.7,1.5,1.5,2.2,2.2C1048.5,535.6,1047.8,537,1046.3,537.8z M1047.8,544.3c0-0.7-0.7-0.7-0.7-0.7
					c-0.7,0-0.7,0.7-0.7,0.7c0,1.5,0.7,1.5,0.7,2.2C1047.8,545.7,1047.8,544.3,1047.8,544.3z M1048.5,550.8c0,0.7,0,0.7,0,0.7
					s0,0,0.7,0C1049.2,550.8,1049.2,550.8,1048.5,550.8z M1052.9,622.6c-0.7,1.5-1.5,1.5-1.5,2.2c0,0,0,0.7,0.7,0.7
					c0,0,0.7-0.7,1.5-0.7C1052.9,624.1,1052.9,624.1,1052.9,622.6z M1053.6,616.1c1.5-0.7,1.5-2.2,0-2.9c-0.7,0-0.7,0-0.7,0
					c0,0.7-0.7,1.5-0.7,2.9c0,0,0.7,0,0.7,1.5L1053.6,616.1z"/>
			</g>
			<g id="XMLID_51_">
				<path id="XMLID_52_" d="M1285.8,533.4c0,1.5-1.5,2.9-2.9,3.6c-0.7,0.7-2.2,1.5-2.2,3.6c-0.7,2.9-1.5,3.6-3.6,4.4
					c-1.5,0.7-1.5,1.5-2.2,5.8c1.4,0,2.2,0,2.9,0.7c0,0,0,0,0,0.7c-1.5,0-2.9,0-5.1,0c0.7-2.2,0.7-4.4,0.7-5.8c-0.7,0-1.5,0-1.5,0
					c-0.7,5.1-1.5,10.2-2.2,15.2c1.5,0.7,2.2,1.5,2.9,1.5c0.7,5.1,0.7,9.4,0.7,14.5s1.5,9.4,2.9,13.1c2.2,2.9,8,18.9,10.2,21.8
					c10.2,10.2,22.5,23.2,34.1,23.9c3.6,0.7,24.7-2.9,28.3-3.6c17.4-5.1,34.1-14.5,50.1-26.8c12.3-9.4,23.9-20.3,36.3-30.5
					c0.7-0.7,1.5-1.5,2.2-2.2c4.3-5.1,8.7-9.4,13.1-14.5c8-8,15.2-16,21.8-25.4c2.2-3.6,4.4-7.3,8.7-8.7c-1.5,6.5-2.9,12.3-5.8,18.1
					c-0.7,2.2-2.2,4.4-3.6,5.8c-4.4,5.1-8,9.4-10.9,15.2c-2.2,2.9-5.1,5.8-7.3,8.7c-0.7,0.7-1.5,2.2-2.9,4.4
					c2.2-0.7,3.6-1.5,5.8-2.2c-0.7,4.4-4.4,5.1-5.1,8.7c0.7,0.7,0.7,1.5,2.2,2.2c-2.2,3.6-4.4,5.8-7.3,8.7c-4.4,3.6-8.7,8-12.3,12.3
					c-6.5,7.3-13.8,13.1-21,18.9c-3.6,2.9-6.5,5.8-10.2,8c-2.9,2.2-5.8,3.6-8.7,5.8c-4.3,2.2-8.7,4.3-13.1,7.3
					c-7.3,4.4-15.2,8-23.2,9.4c-2.2,0.7-4.4,1.5-6.5,2.2c-8.7,2.9-17.4,4.4-26.1,5.1c-10.2,1.5-53-6.5-62.4-10.2
					c-25.4-10.2-30.5-22.5-42.1-32.7c-4.3-3.6-8-9.4-10.2-15.2c-3.6-9.4-4.4-19.6-5.1-30.5c0-22.5,5.8-44.3,15.2-64.6
					c2.2-4.4,2.2-4.4,1.5-10.9c-3.6,2.2-5.8,3.6-7.3,8c-2.2,6.5-5.1,12.3-8.7,18.9c0-6.5,2.9-10.9,5.1-16
					c5.8-13.1,12.3-25.4,20.3-37c8-12.3,16.7-23.2,26.9-33.4c10.2-10.9,21-20.3,32.6-27.6c2.9-1.5,5.1-2.2,7.3-3.6
					c3.6-1.4,7.3-2.2,9.4,1.5c2.2,2.2,5.1,1.5,6.5,2.9c2.2,1.5,2.9,4.4,4.4,5.8c7.3,3.6,34.8,10.9,41.4,15.2
					c2.2,1.5,3.6,4.4,5.1,7.3c3.6,6.5,6.5,13.8,11.6,18.1c1.5,1.5,2.2,4.4,2.9,6.5c1.5,8.7,2.2,16.7,0,26.1
					c-1.5,10.2-5.8,19.6-10.9,28.3c-2.9,5.1-5.8,9.4-8,15.2c-1.5,5.1-4.4,9.4-7.3,14.5c-2.9,5.8-8,9.4-13.1,10.9
					c-4.4,2.2-9.4,2.9-13.8,2.2c-2.2-0.7-4.4,0-5.8-2.9c0-0.7-0.7-0.7-0.7-0.7c-5.8,0.7-9.4-5.8-13.8-8c-0.7-0.7-1.5-2.9-1.5-3.6
					c1.5-2.9,0-4.3-0.7-6.5c-2.9-5.8-5.8-12.3-9.4-18.1c-0.7-2.2-2.9-2.9-5.1-0.7C1288.6,526.1,1285.8,529,1285.8,533.4z
					 M1216.8,598.7c0.7,2.2,1.5,3.6,2.2,5.8c0,2.2,2.2,3.6,0.7,6.5c-0.7-0.7-1.5-0.7-1.5-1.5c-3.6-7.3-5.1-16.7-6.5-26.1
					c-0.7-0.7,0-1.4,0-2.2c0-10.9,0-21,2.9-31.9c0.7-2.2,1.5-4.3,1.5-6.5c0-1.5,0-2.2,0-5.1c-2.2,4.4-3.6,7.3-4.4,10.2
					c-0.7,3.6-1.5,6.5-2.2,10.2c-2.9,18.9-2.2,36.3,5.8,51.5c1.5,2.9,3.6,5.1,5.8,8c1.5,1.4,2.9,2.2,5.1,2.9c0,0.7,0.7,0,2.2,0
					c-2.2-3.6-4.4-6.5-5.8-10.2c-2.2-4.4-2.2-8.7-4.4-12.3C1217.6,598,1216.8,598.7,1216.8,598.7z M1216.8,552.3
					c-3.6,11.6-2.9,22.5-1.5,33.4c0,0.7,0.7,0.7,1.5,1.5c0.7-8,1.5-15.2,2.2-22.5c0.7-5.1,1.5-10.2-0.7-14.5
					C1217.6,550.8,1216.8,551.5,1216.8,552.3z M1268.3,570.4c0,0.7,0,0.7,0,1.5C1268.3,571.1,1268.3,571.1,1268.3,570.4z
					 M1308.2,494.2c-1.5,2.2-3.6,5.1-5.1,8c-2.9,5.1-2.2,8.7,1.5,10.9c2.2,1.5,5.1,2.9,6.5,5.1c4.4,5.1,10.2,4.4,16,3.6
					c5.1-1.5,8.7-6.5,11.6-11.6c5.1-12.3,8-14.5,12.3-26.8c11.6-27.6-11.6-21-22.5-12.3C1320.6,476.8,1314.8,486.2,1308.2,494.2z"/>
			</g>
			<g id="XMLID_47_">
				<path id="XMLID_48_" d="M1668.8,566c-3.6,7.3-16,23.2-16,31.2c-0.7,0.7-2.9,2.9-4.4,3.6c-2.2,2.2-4.4,5.1-5.8,8.7
					c-1.5,3.6-3.6,5.1-5.1,8c-10.2,18.1-16.7,28.3-33.4,44.3c-4.4,3.6-42.8,40.6-45.7,44.3c-21,17.4-49.3,9.4-70.4,10.2
					c-5.8,0-11.6-0.7-15.2-2.9c-6.5-3.6-21-9.4-25.4-16c-6.5-16-23.2-26.8-24.7-49.3c-0.7-5.8-3.6-9.4-4.3-15.2
					c0.7-23.2,4.3-46.4,7.3-70.4c4.4-16.7,8-34.8,10.9-51.5c7.3-31.2,9.4-34.8,23.2-63.1c7.3-18.9,13.8-20.3,21-39.2
					c5.1-10.2,10.9-20.3,16.7-29c4.3-10.9,11.6-21,18.1-31.9c13.8-23.9,29-45,45-62.4c10.9-10.9,22.5-22.5,33.4-31.9
					c6.5-5.1,13.1-10.9,19.6-13.1c2.2-1.5,4.3-2.2,6.5-2.9c10.2-0.7,19.6,0.7,26.8,8c7.3,6.5,9.4,16.7,7.3,30.5
					c-1.5,8.7-2.2,17.4-4.4,25.4c-0.7,6.5-3.6,12.3-7.3,19.6c-5.1,12.3-10.9,23.9-18.9,35.6c-5.1,9.4-10.9,18.9-16,28.3
					c-8.7,13.1-16,26.8-24.7,39.2c-15.2,20.3-28.3,42.1-42.1,62.4c-22.5,38.5-20.3,45-28.3,83.4c-2.9,15.2-1.5,23.9-2.2,39.2
					c0.7,4.4,2.9,32.6,3.6,35.6c2.2,10.2,4.4,13.8,8.7,23.2c1.5,2.9,11.6,5.1,15.2,6.5c5.1,3.6,43.5-22.5,48.6-26.1
					c11.6-6.5,21-17.4,31.2-27.6c10.9-10.2,16-21.8,25.4-35.6c13.1-17.4,17.4-31.9,31.2-50.8C1684.8,532.7,1679,547.9,1668.8,566z
					 M1552.8,435.5c23.2-37,26.9-42.8,47.9-82.7c8-15.2,14.5-30.5,22.5-45.7c3.6-10.9,5.8-21.8,7.3-32.6c1.5-3.6,1.5-5.8-2.2-4.4
					c-3.6,0.7-5.8,2.2-8,3.6c-9.4,3.6-18.1,10.9-24.7,21c-5.1,5.8-8.7,12.3-14.5,18.1c-6.5,8-10.2,16-13.1,25.4
					c-3.6,7.3-7.3,16-10.9,23.2c-5.1,15.2-12.3,30.5-19.6,45.7c-2.9,7.3-5.1,15.2-8,22.5c-8.7,24.7-5.1,12.3-13.1,37
					c-2.2,5.8-0.7,22.5,8.7,12.3C1536.1,463,1543.3,452.1,1552.8,435.5z"/>
			</g>
		</g>
	</g>
</g>
</svg>
