<?xml version="1.0" encoding="utf-8"?>
<!-- Generator: Adobe Illustrator 22.0.1, SVG Export Plug-In . SVG Version: 6.00 Build 0)  -->
<svg version="1.1" id="object" xmlns="http://www.w3.org/2000/svg" xmlns:xlink="http://www.w3.org/1999/xlink" x="0px" y="0px"
	 viewBox="0 0 1920 1080" style="enable-background:new 0 0 1920 1080;" xml:space="preserve">
<style type="text/css">
	.st0{fill:#272525;}
	.st1{fill:#C3D8CC;}
</style>
<g id="XMLID_4294_">
	<g id="XMLID_4369_">
		<g id="XMLID_4463_">
			<path id="XMLID_4466_" class="st0" d="M164.7,378.2h51.1v1.9c-10.3,0-9.8,2.7-9.8,15.5v110.5c0,14.2,1.7,17.6,11.9,17.6v1.9
				h-63.8v-1.9c9.8,0,10.7-3.4,10.7-17.6V383.9l-54.2,143.6h-1.9l-67.8-126v68.6c0,27,7.7,53.6,32,53.6v1.9H7.6v-1.9
				c22.4,0,31.4-26.2,31.4-53.6v-71.8c-8.2-14.4-14.9-17.8-20.7-18.2v-1.9h59.6l50.6,96.3L164.7,378.2z"/>
		</g>
		<g id="XMLID_4457_">
			<path id="XMLID_4458_" class="st0" d="M356,378.2v1.7c-8.8,0-13.6,0.2-13.6,18.6v103.4c0,19.9,4.8,21.8,13.6,21.8v1.9h-69.1v-1.9
				c8.8,0,13.6-1.9,13.6-21.8V398.5c0-18.4-4.6-18.6-13.6-18.6v-1.7H356z"/>
		</g>
		<g id="XMLID_4452_">
			<path id="XMLID_4453_" class="st0" d="M561.3,475.4l2.1,42.3c-5.7,3.8-26.8,9.8-49,9.8c-44.8,0-84.6-28.3-84.6-75.6
				s39.8-75.6,84.6-75.6c27,0,44,5.6,49,9.6l-2.1,42.3h-1.7c-6.3-43.3-29.9-50-45.2-50c-23.2,0-33.1,16.3-33.1,73.7
				c0,57.6,10.5,73.7,33.1,73.7c14.2,0,38.1-8.6,45.2-50.2H561.3z"/>
		</g>
		<g id="XMLID_4440_">
			<path id="XMLID_4443_" class="st0" d="M791.4,523.7v1.9h-41.6c-14.9,0-19.5-9.4-24.5-48.3c-2.7-20.9-27.8-19.7-27.8-19.7h-9.8
				v44.4c0,20.5,0.8,21.8,9.6,21.8v1.9h-62.6v-1.9c9,0,10.9-0.4,10.9-21.8V398.5c0-13-1.7-18.6-10.9-18.6v-1.7h59.4
				c41.7,0,79.1,5,79.1,40c0,31.4-28.9,37.9-49,37.9c24.1,0,36.2,5.2,46.5,42.9C774.9,514.9,786,523.3,791.4,523.7z M724,418.2
				c0-40-5.4-38.1-29.9-38.1h-6.5v75.6h6.5C721.3,455.7,724,456.1,724,418.2z"/>
		</g>
		<g id="XMLID_4432_">
			<path id="XMLID_4435_" class="st0" d="M1007.8,453c0,41.7-30.3,74.5-76.4,74.5c-46,0-76.4-32.9-76.4-74.5
				c0-41.4,30.3-76.6,76.4-76.6C977.5,376.4,1007.8,411.5,1007.8,453z M956.9,453c0-57.3-0.8-74.7-25.5-74.7
				c-24.9,0-26,17.4-26,74.7c0,57.6,1,72.6,26,72.6C956.1,525.6,956.9,510.5,956.9,453z"/>
		</g>
		<g id="XMLID_4398_">
			<path id="XMLID_4427_" class="st0" d="M1298.7,378.2v1.7c-8.4,0-21.1,6.5-36.4,43.3l-36.6,102.3h-7.5
				c-19.5-45.4-32-74.7-40.4-93.8l-33.5,93.8h-7.5c-52.7-123.3-55.5-128.7-55.5-128.7c-7.1-16.7-10-16.5-15.5-17v-1.7h65.3v1.7
				c-13.4,0-2.7,24.3-2.7,24.3l31.6,71.8l16.7-46.7c-12.8-29.7-14-32.4-14-32.4c-7.1-16.7-10-16.5-15.5-17v-1.7h65.3v1.7
				c-13.4,0-2.7,24.3-2.7,24.3l31.4,72l18.8-52.9c5.2-14.9,0.6-43.3-20.7-43.3v-1.7H1298.7z"/>
		</g>
		<g id="XMLID_4386_">
			<path id="XMLID_4389_" class="st0" d="M1420.4,378.2h1c52.9,121.4,56.5,128.3,56.5,128.3c7.5,16.7,14.6,17,18.8,17.4v1.7h-73.3
				v-1.7c16.7,0,4.2-24.5,4.2-24.5l-6.7-14.4h-41c-4.2,9.6-0.4,38.9,24.7,38.9v1.7h-60.3v-1.7c6.3-0.4,17.6-2.1,33.7-38.9
				L1420.4,378.2z M1399.3,436l-18.6,47.1h39.6L1399.3,436z"/>
		</g>
		<g id="XMLID_4379_">
			<path id="XMLID_4382_" class="st0" d="M1702.3,378.2v1.7c-9,0-22.4,6.5-38.7,43.3l-41.2,102.3h-6.1
				c-56.1-123.3-59-128.7-59-128.7c-7.5-16.7-10.7-16.5-16.5-17v-1.7h69.7v1.7c-14.4,0-2.9,24.3-2.9,24.3l32.4,72.2l21.6-53.2
				c6.3-15.5,2.5-43.3-22.6-43.3v-1.7H1702.3z"/>
		</g>
		<g id="XMLID_4371_">
			<path id="XMLID_4375_" class="st0" d="M1893.1,484.6v41h-122.2v-1.9c8.8,0,12.1-12.6,12.1-26.8v-89.8c0-13-2.9-27.2-12.1-27.2
				v-1.7h119.5v42.9h-1.9c0-40.8-57.1-41-57.1-41h-7.5v70.1h16.9c0.2,0,22.4,0.6,24.7-24.7h1.9v51.3h-1.9
				c-2.3-25.1-24.5-24.7-24.7-24.7h-16.9v71.6h7.5c0,0,59.9,2.3,59.9-39.1H1893.1z"/>
		</g>
	</g>
	<g id="XMLID_4305_">
		<g id="XMLID_4362_">
			<path id="XMLID_4365_" d="M511.5,606.2h14.2v58.1h-14.2v-24.1h-22.4v24.1h-14.2v-58.1h14.2v23.3h22.4V606.2z"/>
		</g>
		<g id="XMLID_4352_">
			<path id="XMLID_4355_" d="M623.7,664.3l-3.2-9.8h-20.9l-3.2,9.8h-15.1l20.2-58.3h17.2l20.1,58.3H623.7z M603.1,643.8h13.7
				l-6.9-20.7L603.1,643.8z"/>
		</g>
		<g id="XMLID_4345_">
			<path id="XMLID_4348_" d="M694.4,664.3v-58.1h14.2v58.1H694.4z"/>
		</g>
		<g id="XMLID_4334_">
			<path id="XMLID_4336_" d="M783.8,641.7v22.6h-14.2v-58.1h22.9c6.7,0,12,1.7,15.7,5.2c3.8,3.5,5.6,7.7,5.6,12.6
				c0,3.4-1,6.7-3.1,9.9c-2,3.2-5.4,5.5-10,6.8l14.2,23.7h-16.6l-13.1-22.6H783.8z M783.8,616.9v14h8.8c2.2,0,3.8-0.6,5.1-1.9
				c1.2-1.3,1.9-2.9,1.9-5c0-2.1-0.6-3.8-1.9-5.1c-1.3-1.3-3-2-5-2H783.8z"/>
		</g>
		<g id="XMLID_4329_">
			<path id="XMLID_4330_" d="M966.9,616.5c-1.8,0-3.2,0.5-4.3,1.4c-1.1,0.9-1.7,2.3-1.7,4.1c0,1.8,0.5,3.2,1.6,4.3
				c1,1.1,2.4,1.9,4.1,2.5c1.7,0.6,3.6,1.1,5.6,1.7c2.1,0.5,4.1,1.2,6.2,1.9c2,0.7,3.9,1.7,5.6,2.8c1.7,1.1,3,2.7,4.1,4.7
				c1,2,1.6,4.4,1.6,7.2c0,4.9-2,9.1-6,12.6c-4,3.5-9.3,5.3-15.8,5.3c-6.5,0-11.8-1.6-15.8-4.7c-4-3.1-6-7.6-6-13.4H961
				c0.4,4.6,2.8,7,7.1,7c2,0,3.6-0.5,4.8-1.6c1.2-1.1,1.7-2.4,1.7-4.1c0-1.6-0.5-3-1.6-4c-1-1.1-2.4-1.9-4.1-2.5
				c-1.7-0.6-3.6-1.2-5.6-1.7c-2.1-0.5-4.1-1.2-6.2-1.9c-2-0.8-3.9-1.7-5.6-2.8c-1.7-1.1-3-2.6-4.1-4.6c-1.1-2-1.6-4.4-1.6-7.2
				c0-5.4,2-9.7,6-13c4-3.3,9.2-4.9,15.4-4.9c6.3,0,11.3,1.4,15.2,4.3c3.9,2.8,5.9,7.3,6,13.4h-15.4c-0.2-2.1-0.9-3.7-2-4.8
				C970.1,617.1,968.6,616.5,966.9,616.5z"/>
		</g>
		<g id="XMLID_4325_">
			<path id="XMLID_4326_" d="M1086.3,664.3l-3.2-9.8h-20.9l-3.2,9.8h-15.1l20.2-58.3h17.2l20.1,58.3H1086.3z M1065.8,643.8h13.7
				l-6.9-20.7L1065.8,643.8z"/>
		</g>
		<g id="XMLID_4319_">
			<path id="XMLID_4320_" d="M1157.1,606.2h14.2v47.3h17.6v10.8h-31.8V606.2z"/>
		</g>
		<g id="XMLID_4313_">
			<path id="XMLID_4316_" d="M1250.7,656.4c-5.8-5.6-8.7-12.7-8.7-21.4c0-8.6,2.9-15.7,8.7-21.3c5.8-5.6,12.8-8.4,21.2-8.4
				c8.4,0,15.4,2.8,21.1,8.4c5.7,5.6,8.6,12.7,8.6,21.3c0,8.6-2.9,15.7-8.6,21.4c-5.7,5.6-12.8,8.4-21.1,8.4
				C1263.5,664.9,1256.4,662.1,1250.7,656.4z M1283,647.2c2.8-3,4.2-7.1,4.2-12.2c0-5.1-1.4-9.1-4.2-12.2c-2.8-3-6.5-4.6-11.2-4.6
				c-4.7,0-8.4,1.5-11.2,4.6c-2.8,3-4.2,7.1-4.2,12.2c0,5.1,1.4,9.1,4.2,12.2c2.8,3,6.5,4.5,11.2,4.5
				C1276.4,651.8,1280.2,650.3,1283,647.2z"/>
		</g>
		<g id="XMLID_4308_">
			<path id="XMLID_4309_" d="M1397.2,606h14.2v58.3h-14.2l-23.7-36.7v36.7h-14.2V606h14.2l23.7,36.7V606z"/>
		</g>
	</g>
	<g id="XMLID_4300_">
		<g id="XMLID_4301_">
			<path id="XMLID_4304_" class="st1" d="M807.4,149c21.9-10,50.1-11.2,75.5-2.6c12.9,4.1,24.7,11,34.4,17.8
				c9.9,6.8,18.3,13.5,26.4,18.7c4.8,3.1,9.5,6,14,8.5c4.6,2.6,8.9,4.2,13.4,6.2c9.1,3.5,19,5.5,28.9,6.6c20,1.8,40.9-1.9,58.6-9.9
				c0.9,1.9-0.9,6.2,2.6,5.7c13.7-3.1,15.7-0.4,17.9,3.3c0.5,0.9-1.9,2.4-3.9,3.6c-2.1,1-3.8,1.9-1.6,2
				c-9.9,5.8-28.2,12.1-16.4,10.6c2.1,0.2,6.8-1.4,11.4-3.3c4.4-2.1,9.1-3.9,11.5-3.6c5.1,0.6-0.5,7.6,4.6,8.1
				c3.7-2.2,11.1-6.6,14.3-9.4c4.7-1,0.2,7.7,3.7,5c12.2-6.2,25.1-20,34.7-35.6c0.9,0.5,2.3,0.3,3.1,0.7c0.8,0.4,1,1.6-1.4,5.9
				c-23.2,35.2-61.5,57.6-102,64.6c-20.3,3.6-41.6,3.2-62.4-1.8c-10.3-2.6-20.6-6-30.2-11c-10-4.8-18.5-10.7-26.2-16.4
				c-15.3-11.5-27.8-22-39.6-27.7c-11.3-5.7-24.5-8-37.4-6.9c-13,1.1-24.9,5.5-35.3,13.1c-10.4,7.5-18.9,18.1-23.9,29.7
				c-4.7,10.6-6.6,1.4-5-9.1c-0.4,3.4-3.4,2.1-3.6,5.6c-2.7-0.9-5.8-9.9,2.2-22.9c-2.2,3-4.2,6.1-6,9.4c-2.7,2.8-2.7-1.5-4.5-2.5
				c1.9-3.4,4.1-6.7,3.3-7.3c-0.9-0.6-2.6-1.7-3.4-2.3c-2.4,3.4-6.5,10.6-8.1,14.5c1.7-3.8,3.8-7.4,2.8-7.9c-0.9-0.5-2.7-1.5-3.6-2
				c3.3-8.3,12.9-17.5,18.5-24.1l-2.2-2.2c-7.3,5.5-14.8,16.9-19,24.8c1.3-4.4,0.5-5-1.3-6c6.6-12.7,18.2-20.9,27.3-31.7
				c-3.8,2.8-7.3,6-10.6,9.2c1.5-5.2,7.8-11,15.4-15.8C791.7,155.5,800.8,152,807.4,149z"/>
		</g>
	</g>
	<g id="XMLID_4295_">
		<g id="XMLID_4296_">
			<path id="XMLID_4299_" class="st1" d="M807.4,786.3c21.9-10,50.1-11.2,75.5-2.6c12.9,4.1,24.7,11,34.4,17.8
				c9.9,6.8,18.3,13.5,26.4,18.7c4.8,3.1,9.5,6,14,8.5c4.6,2.6,8.9,4.2,13.4,6.2c9.1,3.5,19,5.5,28.9,6.6c20,1.8,40.9-1.9,58.6-9.9
				c0.9,1.9-0.9,6.2,2.6,5.7c13.7-3.1,15.7-0.4,17.9,3.3c0.5,0.9-1.9,2.4-3.9,3.6c-2.1,1-3.8,1.9-1.6,2
				c-9.9,5.8-28.2,12.1-16.4,10.6c2.1,0.2,6.8-1.4,11.4-3.3c4.4-2.1,9.1-3.9,11.5-3.6c5.1,0.6-0.5,7.6,4.6,8.1
				c3.7-2.2,11.1-6.6,14.3-9.4c4.7-1,0.2,7.7,3.7,5c12.2-6.2,25.1-20,34.7-35.6c0.9,0.5,2.3,0.2,3.1,0.7c0.8,0.4,1,1.6-1.4,5.9
				c-23.2,35.2-61.5,57.6-102,64.6c-20.3,3.6-41.6,3.2-62.4-1.8c-10.3-2.6-20.6-6-30.2-11c-10-4.8-18.5-10.7-26.2-16.4
				c-15.3-11.5-27.8-22-39.6-27.7c-11.3-5.7-24.5-8-37.4-6.9c-13,1.1-24.9,5.5-35.3,13.1c-10.4,7.5-18.9,18.1-23.9,29.7
				c-4.7,10.6-6.6,1.4-5-9.1c-0.4,3.4-3.4,2.1-3.6,5.6c-2.7-0.9-5.8-9.9,2.2-22.9c-2.2,3-4.2,6.1-6,9.4c-2.7,2.8-2.7-1.5-4.5-2.5
				c1.9-3.4,4.1-6.7,3.3-7.3c-0.9-0.6-2.6-1.7-3.4-2.3c-2.4,3.4-6.5,10.6-8.1,14.5c1.7-3.8,3.8-7.4,2.8-7.9c-0.9-0.5-2.7-1.5-3.6-2
				c3.3-8.3,12.9-17.5,18.5-24.1l-2.2-2.2c-7.3,5.5-14.8,16.9-19,24.8c1.3-4.4,0.5-5-1.3-6c6.6-12.7,18.2-20.9,27.3-31.7
				c-3.8,2.8-7.3,6-10.6,9.2c1.5-5.2,7.8-11.1,15.4-15.8C791.7,792.7,800.8,789.2,807.4,786.3z"/>
		</g>
	</g>
</g>
</svg>
