<?xml version="1.0" encoding="utf-8"?>
<!-- Generator: Adobe Illustrator 22.0.1, SVG Export Plug-In . SVG Version: 6.00 Build 0)  -->
<svg version="1.1" id="Layer_1" xmlns="http://www.w3.org/2000/svg" xmlns:xlink="http://www.w3.org/1999/xlink" x="0px" y="0px"
	 viewBox="0 0 1920 1080" style="enable-background:new 0 0 1920 1080;" xml:space="preserve">
<style type="text/css">
	.st0{fill:#C1DCF2;}
	.st1{fill:#FFFFFF;}
	.st2{fill:#272525;}
</style>
<g id="object">
	<g id="XMLID_175_">
		<g id="XMLID_239_">
			<g id="XMLID_240_">
				<path id="XMLID_241_" class="st0" d="M767.1,814.6c98.1-12.9,216.9,14.1,315.9,2.8c118.9-15.7,247.1-10.4,365.5-5.5
					c-0.3,10.3-10.5,25.3-0.8,30.8c39.1,17,38.5,37.6,38,58.1c-0.3,10.3-29.6-1.2-20,9.5c-29.6-1.2-79.1,1.9-49.7,13.4
					c9.6,10.7,49.3,2,58.8,17.8s-10.6,30.4-1.2,46.2c9.9,0.4,29.6,1.2,39.5,1.6c9.6,10.7-10.6,30.4-0.8,30.8
					c29.3,11.5,68.9,8,108.4,9.6c-0.3,10.3,9.4,21-10.5,25.3c-345.5-4-701.2,1.9-1046.1-27.7c-39.3-6.8-9.2-26.1,20.8-40.3
					c-10,4.7-9.6-10.7-19.6-5.9c0.4-15.4,20.8-40.3,60.4-43.8c-9.9-0.4-19.7-0.8-29.6-1.2c-9.7-5.5,0.4-15.4,0.7-25.7
					c9.9,0.4,19.7,0.8,19.9-4.3c0.1-5.1,0.4-15.4,0.5-20.5c-9.9-0.4-29.6-1.2-39.5-1.6c9.9,0.4,19.7,0.8,19.9-4.3
					c0.1-5.1,0.4-15.4,0.5-20.6c19.9-4.3,49.2,7.2,69.1,2.8l0.4-15.4c-19.6-6-49.3-2-69.1-2.8c10-4.7,10.1-9.9,10.4-20.2
					c29.7-3.9,58.9,12.7,88.9-1.5c-9.9-0.4-19.7-0.8-29.6-1.2C688.6,795.9,737.3,818.5,767.1,814.6z"/>
			</g>
		</g>
		<g id="XMLID_218_">
			<g id="XMLID_236_">
				<path id="XMLID_237_" class="st1" d="M719.4,904.7c-2.2,0-4,0.6-5.4,1.8s-2.1,2.9-2.1,5.1c0,2.2,0.7,4,2,5.3s3,2.4,5.1,3.1
					c2.1,0.7,4.4,1.4,7,2.1c2.6,0.7,5.1,1.4,7.7,2.4c2.5,0.9,4.9,2.1,7,3.5s3.8,3.3,5.1,5.8s2,5.5,2,9c0,6.1-2.5,11.4-7.5,15.7
					c-5,4.4-11.6,6.6-19.7,6.6c-8.2,0-14.7-2-19.7-5.9s-7.5-9.5-7.5-16.7H712c0.5,5.8,3.4,8.7,8.9,8.7c2.5,0,4.5-0.7,6-2
					c1.4-1.3,2.2-3.1,2.2-5.1s-0.7-3.8-2-5.1s-3-2.3-5.1-3.1s-4.4-1.5-7-2.1c-2.6-0.7-5.1-1.5-7.7-2.4c-2.5-1-4.9-2.1-7-3.5
					c-2.1-1.3-3.8-3.3-5.1-5.8s-2-5.5-2-8.9c0-6.7,2.5-12.1,7.5-16.2c5-4.1,11.4-6.1,19.2-6.1s14.1,1.8,18.9,5.3
					c4.8,3.5,7.3,9.1,7.5,16.8h-19.2c-0.3-2.6-1.1-4.6-2.5-6C723.4,905.4,721.6,904.7,719.4,904.7z"/>
			</g>
			<g id="XMLID_233_">
				<path id="XMLID_234_" class="st1" d="M808.2,905.2v-13.4h57.2v13.4h-19.8v59h-17.7v-59H808.2z"/>
			</g>
			<g id="XMLID_230_">
				<path id="XMLID_231_" class="st1" d="M927.2,935.1v-43.2h17.6v43.2c0,4.3,1.1,7.7,3.2,10c2.1,2.3,5.3,3.5,9.4,3.5
					c4.1,0,7.3-1.2,9.5-3.5s3.3-5.7,3.3-10v-43.2h17.7v43.2c0,6.4-1.5,11.9-4.5,16.6c-3,4.6-6.8,8-11.4,10.2
					c-4.6,2.1-9.5,3.2-14.9,3.2c-8.4,0-15.5-2.6-21.3-7.8C930.1,951.9,927.2,944.6,927.2,935.1z"/>
			</g>
			<g id="XMLID_226_">
				<path id="XMLID_227_" class="st1" d="M1080.1,891.8c11.6,0,21.1,3.4,28.5,10.1c7.4,6.7,11.1,15.4,11.1,26.1
					c0,10.7-3.7,19.4-11.1,26.2c-7.4,6.7-16.9,10.1-28.5,10.1h-25.5v-72.5L1080.1,891.8L1080.1,891.8z M1072.3,950.9h7.8
					c6.7,0,12-2.1,15.9-6.2c3.9-4.1,5.8-9.7,5.8-16.6c0-6.9-1.9-12.5-5.8-16.6s-9.1-6.2-15.9-6.2h-7.8V950.9z"/>
			</g>
			<g id="XMLID_223_">
				<path id="XMLID_224_" class="st1" d="M1182.5,964.3v-72.5h17.6v72.5H1182.5z"/>
			</g>
			<g id="XMLID_219_">
				<path id="XMLID_220_" class="st1" d="M1273.8,954.5c-7.2-7-10.8-15.9-10.8-26.6c0-10.7,3.6-19.6,10.8-26.6
					c7.2-7,16-10.5,26.4-10.5s19.2,3.5,26.3,10.5c7.1,7,10.7,15.8,10.7,26.6c0,10.7-3.6,19.6-10.7,26.6c-7.2,7-15.9,10.5-26.3,10.5
					C1289.7,965,1281,961.5,1273.8,954.5z M1314,943c3.5-3.8,5.2-8.8,5.2-15.2c0-6.3-1.7-11.4-5.2-15.2s-8.1-5.7-13.9-5.7
					s-10.5,1.9-13.9,5.7c-3.5,3.8-5.2,8.8-5.2,15.2c0,6.3,1.7,11.4,5.2,15.2s8.1,5.7,13.9,5.7S1310.5,946.8,1314,943z"/>
			</g>
		</g>
		<g id="XMLID_187_">
			<g id="XMLID_213_">
				<path id="XMLID_214_" class="st2" d="M215.1,441.7c0.5,0.9,1.2,1.4,2,1.5s1.7,0.3,2.6,0.7c7.1,2.9,13.9,6.2,20.3,10
					c6.5,3.7,12.4,8.2,17.9,13.5c4.7,4.7,8.9,9.9,12.5,15.4s6.7,11.5,9.3,17.9c2.7,6.4,4.8,12.8,6.1,19.2c1.4,6.5,2.6,13.1,3.7,20
					c1.1,7.8,2,15.6,2.7,23.3s1,15.6,0.8,23.6c0,6.5-0.8,12.8-2.5,18.8c-1.6,6-3.9,11.8-6.8,17.5c-7.6,14.9-18.3,27.3-31.9,37.1
					c-13.1,9.3-27.3,14.3-42.5,15c-13.6,0.5-26.6-1.3-39-5.5c-8.5-2.9-16.2-7.7-22.9-14.4c-0.9-0.9-1.7-1.8-2.5-2.7
					c-0.7-0.9-1.8-1.6-3.3-2.2c-0.4,1.5-0.6,2.8-0.7,4c-0.1,1.2-0.3,2.4-0.7,3.7c-0.2,0.9-0.5,1.7-0.8,2.3c-0.4,0.6-1,1-1.9,1
					s-2.4,0-4.5,0s-3.3-0.4-3.7-1.1c-1.5-3.3-2.5-6.7-3.1-10.2s-1-7.1-1.1-10.8c-0.1-3.6,0-7.3,0.1-10.9c0.2-3.6,0.3-7.3,0.3-10.9
					c-0.2-15.6-0.3-31.2-0.3-46.6c0-15.4-0.1-30.9-0.3-46.3c0-8.7-0.2-17.4-0.5-26c-0.4-8.6-0.5-17.3-0.3-26
					c0-6.4-0.1-12.7-0.4-19.1s-0.5-12.7-0.7-19.1c-0.5-16-1.6-31.7-3.3-47.2c-0.9-7.6-1.5-15.1-1.8-22.4s0-14.7,0.7-22.4
					c0.4-2.5,0.5-5,0.4-7.5s-0.1-4.9-0.1-7.5c0.2-1.8,0.5-3.5,0.8-5.2c0.4-1.6,0.7-3.3,1.1-4.9c0.4-2.2,1.2-3.8,2.6-4.8s3-1.7,5-2
					c1.8-0.4,3.3-0.1,4.5,0.7c1.2,0.8,2.2,2,3.1,3.4c1.5,2,2.6,4,3.5,5.9s2.1,3.8,3.5,5.6c0.7,0.7,1.1,1.5,1.1,2.5
					c0,0.9,0,1.8,0,2.7c0.4,6.2,0.7,12.3,1.1,18.4c0.4,6.1,0.7,12.2,1.1,18.4c0.4,6.4,0.8,12.7,1.2,18.9c0.4,6.3,1.1,12.6,2,18.9
					c1.5-2.5,2.8-5.1,4.1-7.6s2.6-5.1,4.1-7.6c4.2-8.2,9-15.9,14.3-23c5.4-7.2,11-14.1,17-20.9c4.5-5.3,9.3-10.2,14.3-14.9
					c5-4.6,10.4-8.8,16.2-12.4c8.4-5.5,17.5-8.8,27.5-10.1c6.5-0.9,12.1,1.2,16.6,6.3c3.6,4.4,6,9.5,7.1,15.3
					c0.5,2.7,1.1,5.5,1.6,8.2s1,5.5,1.4,8.2c0.5,5.3,0.4,10.4-0.5,15.5s-2.3,10.1-4.1,15c-3.6,10.4-8.7,19.6-15.1,27.7
					c-6.5,8.1-14,15.5-22.5,22.2c-2.2,1.8-4.4,3.6-6.5,5.5c-2.2,1.8-4.5,3.5-7.1,4.9c-0.7,0.4-1.4,0.8-2,1.4
					C215.6,439.8,215.2,440.6,215.1,441.7z M253.5,557.3c0.2-14.4-1.1-29-3.8-43.9c-1.1-6.2-2.9-12-5.3-17.6
					c-2.5-5.5-6-10.5-10.8-14.9c-10.2-9.1-21.5-15.1-34.1-18c-3.1-0.7-6.3-1.1-9.5-1.2c-3.3-0.1-6.5,0.4-9.5,1.5
					c-3.3,1.3-6.6,2.2-10,2.9c-3.4,0.6-6.8,1.1-10.2,1.5c-2.6,0.4-4.1,0.8-4.6,1.2c-0.5,0.5-1.1,2-1.6,4.5
					c-0.9,4.2-1.4,8.3-1.4,12.4s0,8.2,0,12.4c0,4,0,8,0,11.9c0,3.9-0.1,7.9-0.3,11.9c-0.2,6-0.5,11.9-1,17.9
					c-0.5,5.9-0.7,11.8-0.7,17.6c0,4.7-0.2,9.5-0.6,14.2c-0.4,4.7-0.8,9.5-1.4,14.2c-0.6,6,0.1,11.5,1.9,16.5
					c1.8,5,5.2,9.4,10.1,13.2c8.4,6.5,17,10.9,26,13s18.6,1.3,28.8-2.3c10.4-3.6,18.6-9.1,24.8-16.4c6.2-7.3,10.2-16.5,12-27.5
					c0.6-4.2,0.8-8.3,0.8-12.4C253.2,565.6,253.3,561.5,253.5,557.3z M245.3,330.7c-10.2,4.4-18.9,10.3-26.2,17.7
					c-10.9,12-20.8,24.6-29.6,37.8c-8.8,13.2-16.7,27.1-23.6,41.9c-0.4,0.9-0.8,2-1.2,3.1c-0.5,1.2-0.8,2.7-1,4.5
					c2.4-2.5,4.7-4.6,7.1-6.3c2.4-1.6,4.6-3.3,6.8-4.9c3.6-2.5,7.3-5.1,10.9-7.8c3.6-2.6,7.1-5.5,10.4-8.6c3.4-3.3,6.7-6.6,9.8-10
					s6.2-6.9,9.3-10.5C232.2,371.7,241.3,352.7,245.3,330.7z"/>
			</g>
			<g id="XMLID_209_">
				<path id="XMLID_210_" class="st2" d="M549.4,663.4c0,2-1.1,3.8-3.1,5.3c-2.1,1.6-4,2.8-5.9,3.7c-1.5,0.7-2.9,1.5-4.2,2.2
					c-1.4,0.7-2.8,1-4.2,0.8c-4.2-0.4-8.4-0.4-12.5-0.3c-4.2,0.2-8.2-0.8-12-3c-4-2-7.5-4.6-10.4-7.8s-5.4-6.9-7.4-11
					c-3.3-6.4-6-12.8-8.2-19.4c-2.2-6.5-4-13.3-5.5-20.2c-1.6-8.2-3.6-16.2-5.9-24s-4.5-15.7-6.7-23.7c-2.4-8.5-4.4-17.1-6.1-25.8
					c-1.7-8.6-3.5-17.3-5.3-26c0-0.4,0-0.7-0.1-1s-0.1-0.6-0.1-1c-0.4-2-0.7-3.5-1.1-4.6s-0.9-1.9-1.5-2.5c-0.6-0.5-1.5-0.9-2.6-1
					S444,504,442,504c-17.1,0-34.2-0.8-51.3-2.5c-0.9-0.2-1.9-0.2-3-0.1s-2.5,0.1-4.1,0.1c-2.4,0.2-4.1,0.2-5.2,0.1s-2,0-2.6,0.4
					s-1.2,1.2-1.8,2.5c-0.5,1.3-1.4,3.4-2.5,6.3c-6,14.7-12,29.4-18.1,44s-12.1,29.3-18.1,44c-2.2,5.3-4.1,10.6-5.9,16
					c-1.7,5.4-3.6,10.8-5.6,16.2c-0.9,2.9-2.1,5.5-3.7,7.9c-1.5,2.4-3.6,4.5-6.1,6.5c-1.1,0.9-2.2,1.7-3.4,2.3
					c-1.2,0.6-2.5,0.5-3.9-0.4c-1.5-0.9-2.3-2-2.6-3.4c-0.3-1.4-0.2-2.8,0.1-4.2c2-7.8,3.9-15.6,5.9-23.3c1.9-7.7,4.1-15.4,6.7-23
					c6.4-19.8,13.4-39.3,21.1-58.5s15-38.7,22-58.5c3.8-11.3,7.9-22.2,12.4-32.9c4.4-10.6,9-21.4,13.5-32.3
					c4.5-10.7,9-21.4,13.4-31.9s8.7-21.1,13.1-31.6l7.1-19.1c0.7-1.5,1.3-2.8,1.6-4.1c0.4-1.3,1.3-2.4,2.7-3.3c2.5-1.5,4.9-3,7-4.6
					s4.2-3.3,6.4-4.9c1.8-1.3,4-2.4,6.5-3.3c3.3-0.7,6.5-1,9.5-0.7c3.1,0.3,4.9,2,5.5,5.3c2.7,8,5.8,17.6,9.3,28.9
					c3.1,9.6,6.6,21.5,10.6,35.7s8.6,30.8,13.9,49.9c2.5,12.9,5.2,25.7,7.9,38.3c2.7,12.6,5.9,25.2,9.5,37.8
					c2.2,7.6,4.1,15.4,5.7,23.2s3.4,15.6,5.2,23.4c5.3,19.6,10.1,37.5,14.5,53.5c1.8,6.9,3.6,13.7,5.3,20.3s3.3,12.7,4.6,18.1
					c1.4,5.5,2.4,10.1,3.1,13.9C549,660.1,549.4,662.4,549.4,663.4z M430.7,369.4c-4.4,9.5-8.6,18.6-12.8,27.4
					c-4.2,8.8-8.3,17.6-12.3,26.3c-8.4,17.6-15.6,35.3-21.8,52.9c-0.4,1.1-0.7,2.1-1.1,3.1s-0.4,2.2,0,3.7c4.2-0.4,8.3-0.7,12.3-1.1
					s8-0.6,12-0.6c5.3-0.2,10.5-0.2,15.8-0.1s10.5,0.1,15.8,0.1c3.3,0,5.2-0.3,5.7-1c0.5-0.6,0.6-2.5,0.3-5.6
					c-1.6-13.1-3.3-26.1-4.9-39.1s-3.3-26-4.9-39.1c-0.5-4.2-1.1-8.5-1.6-13C432.7,379,431.8,374.3,430.7,369.4z"/>
			</g>
			<g id="XMLID_206_">
				<path id="XMLID_207_" class="st2" d="M675.9,310.2c13.5,1.1,25.8,4.8,37.1,11c11.3,6.3,20.6,16,28.1,29.3
					c5.1,9.1,7.4,19.1,6.8,30c0,1.1-0.1,1.9-0.3,2.5c-0.4,1.5-0.9,2.8-1.6,4.1c-0.7,1.3-1.9,2.1-3.5,2.5c-3.1,0.7-5.7-0.5-7.9-3.8
					c-2-3.4-4.1-6.8-6.4-10.1c-2.3-3.3-4.6-6.6-7-10.1c-3.3-4.7-7.2-8.5-11.7-11.4s-9.6-5.1-15-6.5c-3.1-0.9-6-0.9-8.9,0
					c-2.8,0.9-5.7,1.9-8.6,3c-7.6,3.1-13.9,7.5-18.7,13.4c-4.8,5.8-9.1,12.1-12.9,18.8c-3.8,6.7-6.9,13.6-9.1,20.7
					c-2.3,7.1-4.1,14.4-5.6,22.1c-1.5,7.6-2.6,15.2-3.5,22.8c-0.9,7.5-1.8,15.1-2.7,22.8c-0.5,4.7-1,9.4-1.2,13.9
					c-0.3,4.5-0.6,9.2-1,13.9c-0.2,4.7-0.4,9.4-0.5,14c-0.2,4.6-0.3,9.3-0.3,14c-0.2,9.6,0.1,19.2,0.8,28.6
					c0.7,9.5,1.9,18.9,3.5,28.4c0.7,4.4,1.5,8.8,2.2,13.2s1.8,8.8,3.3,12.9c1.6,5.1,3.7,9.9,6.1,14.3c2.5,4.4,5.9,8.3,10.2,11.6
					c1.5,0.9,2.9,1.7,4.2,2.5c1.4,0.7,2.8,1.3,4.2,1.6c2.5,0.7,4.9,0.8,7.2,0.3s4.5-2,6.7-4.4c5.8-6.2,10.5-12.9,14.2-20
					c3.6-7.2,6.4-14.9,8.5-23c2.2-8.7,3.8-17.8,4.9-27.3c0.4-2.4,1-4.5,1.8-6.4s2-3.8,3.4-5.6c1.8-2,3.9-2.8,6.4-2.3
					s4.2,1.9,5.3,4.2c0,0.4,0,0.6,0.1,0.7c0.1,0.1,0.1,0.3,0.1,0.7c0.2,4.4,0.8,8.7,1.9,13c1.1,4.3,1.3,8.7,0.5,13.2
					c-0.9,6.4-2.1,12.7-3.7,18.9c-1.5,6.3-3.6,12.3-6.1,18.1c-2.4,5.6-5.2,10.9-8.5,15.7s-6.8,9.5-10.6,14c-2,2.4-4,4.6-6.1,6.7
					c-2.1,2.1-4.1,4.2-6.1,6.4c-3.6,3.8-7.7,6.5-12.3,8c-4.5,1.6-9.3,2.8-14.2,3.7c-9.1,1.5-17.6,1-25.5-1.2
					c-7.9-2.3-15.7-5.8-23.3-10.5c-10.2-6.2-17.8-14-22.9-23.4c-5.1-9.5-8.9-19.7-11.4-30.8c-1.5-6.9-2.8-13.8-4.1-20.7
					s-2.1-13.9-2.5-21c-0.9-10.9-1.4-21.8-1.5-32.6s0.2-21.7,1-32.6c0.7-12,1.7-23.8,3-35.4s3.1-23.3,5.5-34.9
					c1.8-10,3.8-19.9,5.9-29.6c2.1-9.7,5.3-19.2,9.7-28.5c4.7-9.8,10.3-18.7,16.6-26.7c6.4-8,14-15.1,22.9-21.3
					c7.6-5.3,15.8-9,24.5-11.3C656,311.9,665.5,310.6,675.9,310.2z"/>
			</g>
			<g id="XMLID_203_">
				<path id="XMLID_204_" class="st2" d="M823.1,479.3c0.9,0.7,1.7,1.4,2.5,1.9c0.7,0.6,1.5,1,2.2,1.4c13.6,7.8,27.2,15.6,40.8,23.5
					c13.5,7.8,27.1,15.5,40.8,23.2c9.3,5.1,18.5,10,27.8,14.7s18.5,9.6,27.8,14.7c4.4,2.5,8.6,5.1,12.7,7.8c4.1,2.6,8.2,5.3,12.4,8
					c2.7,1.8,5.4,3.5,7.9,5.2c2.5,1.6,5.1,3.5,7.6,5.5c2.7,2.2,5.3,4.4,7.8,6.5c2.5,2.2,5,4.4,7.5,6.8c2,1.8,4,3.7,6,5.6
					c2,1.9,4,3.9,6,5.9s2.5,4.2,1.4,6.5c-0.6,1.5-1.3,2.6-2.2,3.3c-0.9,0.7-2.2,1-3.8,0.8c-4.5-0.4-9.1-0.9-13.6-1.6
					c-4.5-0.7-8.9-2.2-13.1-4.4c-6-3.1-12-6.3-18.1-9.5c-6.1-3.3-12-6.6-17.9-10.1c-8.9-5.3-17.7-10.6-26.4-16.1
					s-17.6-10.8-26.4-16.1c-9.3-5.4-18.5-10.8-27.8-15.9c-9.3-5.2-18.5-10.4-27.8-15.7c-7.6-4.2-15.2-8.3-22.6-12.4
					c-7.5-4.1-15-8.2-22.6-12.4c-0.9-0.4-2.5-1.1-4.6-2.2c0,1.5-0.1,2.6-0.1,3.6c-0.1,0.9,0,1.8,0.1,2.7c0.7,7.6,1.4,15.3,2,23
					s1.4,15.4,2.3,23c0.9,7.6,1.8,15.3,2.6,22.9c0.8,7.6,1.7,15.4,2.6,23.2c0.4,3.6,0.6,7.2,0.8,10.8c0.2,3.5,0.4,7.1,0.8,10.8
					c0.4,5.4,0.7,10.9,1,16.4s0.4,10.8,0.4,16.1c0,2.4-0.3,4.7-0.8,7.1c-0.5,2.4-1.3,4.6-2.2,6.8c-0.7,2.2-2,3.4-3.8,3.7
					s-3.7,0.5-5.7,0.7c-3.5,0.4-6.2-1-8.2-4.1c-3.8-6.5-6.7-13.3-8.7-20.3s-3.6-14.3-4.9-21.9c-1.6-10-3.3-19.9-5-29.9
					c-1.7-9.9-3.4-19.9-5-29.9c-1.3-7.4-2.4-14.8-3.3-22.1c-0.9-7.3-1.8-14.6-2.7-22.1c-1.1-8.4-2.1-16.7-3-25.1s-1.7-16.7-2.5-25.1
					c-0.7-6.4-1.3-12.8-1.6-19.4c-0.4-6.5-0.7-13-1.1-19.4c-0.9-10.9-1.6-21.7-2.2-32.3c-0.5-10.6-1.2-21.4-1.9-32.3
					c-0.4-6.9-0.5-13.9-0.5-20.9s0.4-13.9,1.1-20.9c0.4-3.4,1-6.7,2.1-9.7c1-3,2.2-6,3.7-8.9c2.2-4.5,5.4-5.4,9.6-2.5
					c2,1.1,3.7,2.5,5,4.2c1.4,1.7,2.6,3.6,3.7,5.6c2.4,4.7,4.3,9.6,5.9,14.5c1.5,4.9,3,10,4.2,15.3c1.3,4.7,2.4,9.5,3.4,14.3
					s1.9,9.7,2.6,14.6c1.1,9.1,2.1,18.1,2.9,27c0.8,8.9,1.6,17.9,2.3,27c0.4,4.7,0.6,9.4,0.7,14c0.1,4.6,0.3,9.3,0.7,14
					c0.4-0.2,0.7-0.3,1.1-0.3c0.4,0,0.7-0.1,1.1-0.3c7.6-5.3,15.5-10.3,23.6-15s16.2-9.4,24.4-13.9c8.5-4.7,16.9-9.4,25.1-14
					c8.2-4.6,16.5-9.2,25.1-13.8c4.5-2.6,9.2-5,13.9-7.2c4.7-2.3,9.4-4.6,14.2-7c1.5-0.7,3-1.3,4.8-1.8c1.7-0.5,3.4-0.9,5-1.2
					c0.9-0.4,1.9-0.5,2.9-0.4s2,0.2,2.9,0.4c3.3,0.9,5.2,2.1,5.9,3.7c0.6,1.5,0.2,3.9-1.2,7c-1.6,3.3-3.7,6-6.1,8.2
					c-2.5,2.2-5.2,4.2-8.3,6c-18.2,11.1-36.3,22.1-54.4,33c-18.1,10.9-36.2,21.9-54.4,33c-0.9,0.5-1.8,1.1-2.7,1.8
					C825.7,477.6,824.6,478.4,823.1,479.3z"/>
			</g>
			<g id="XMLID_200_">
				<path id="XMLID_201_" class="st2" d="M1191.5,452.8l-3.3,7.4c-2.7,7.1-5.4,14.1-8.2,21.1c-2.7,7-5.5,13.9-8.2,20.9
					c-3.6,9.8-9.2,18.8-16.6,27c-3.1,3.5-6.6,6-10.6,7.6s-8.2,2.8-12.5,3.6c-0.9,0.4-1.9,0.5-3,0.5s-2.1,0.1-3,0.3
					c-6.9,0.9-12.9,0-18.1-2.7s-10-6.4-14.3-11.2c-3.8-4.2-6.9-8.7-9.3-13.5s-4.4-10-6-15.4c-1.5-4.4-2.5-8.8-3-13.2
					c-0.5-4.4-1.1-9-1.6-13.8c-1.1-9.1-1.3-18-0.7-26.7c0.6-8.7,1.2-17.5,1.8-26.4c0.5-6.5,1.3-13.1,2.2-19.6c0.9-6.5,2-13,3.3-19.4
					c0.7-3.6,1.7-7.2,3-10.6s2.7-6.9,4.4-10.3c0.7-1.1,1.2-1.9,1.4-2.5c0.4-1.5,0.9-2.7,1.6-3.8c0.7-1.1,1.9-1.6,3.5-1.6
					c2-0.2,3.8-0.1,5.4,0.3s3.2,1.3,4.6,2.7c2.2,2.4,3.9,4.8,5.2,7.2c1.3,2.5,1.7,5.3,1.4,8.6c0,1.5,0.1,2.5,0.3,3.3
					c1.5,7.8,2.3,15.6,2.5,23.4s0.4,15.6,0.5,23.5c0.2,12.2,0.6,24.2,1.4,36.1c0.7,11.9,2.4,23.9,4.9,35.9c0.9,3.8,2,7.5,3.3,11.2
					c1.3,3.6,3,7,5.2,10.1c0.9,1.1,1.9,2.1,2.9,3.1s2.1,2.1,3.1,3.4c2.4-2,4.5-4,6.5-5.9c2-1.9,3.6-4.1,4.9-6.7
					c2.4-4.7,4.6-9.5,6.8-14.2c2.2-4.7,4.2-9.5,6-14.4c3.1-8,6-15.9,8.6-23.7c2.6-7.8,5.4-15.7,8.3-23.7c7.3-19.1,15.7-38,25.4-56.7
					c1.3-2.5,2.3-5.2,3-7.9c0.7-2.7,1.4-5.5,1.9-8.2c1.8-7.6,4.1-15,6.8-22.1c2.7-7.1,5.8-14.1,9.3-21c0.7-1.5,1.6-2.5,2.6-3.1
					s2.2-1.1,3.7-1.5c2.2-0.5,4.3-1,6.4-1.4s4.3-0.2,6.7,0.5c2.5,0.9,4.5,2.2,6,3.8c1.4,1.6,2.6,3.5,3.5,5.7c1.8,4,2.8,8,3,12
					s0.1,8.1-0.3,12.3c-1.1,12.2-2.2,24.3-3.3,36.3c-1.1,12-2.1,24.1-3,36.3c-0.7,10-1.7,20-2.9,30c-1.2,10-2.5,19.9-3.9,29.7
					c-0.5,4-1.1,7.9-1.8,11.7c-0.6,3.8-1.3,7.7-2,11.7c-0.4,2.9-0.7,5.8-1.1,8.7c-0.4,2.9-0.7,5.8-1.1,8.7
					c-1.3,7.8-2.5,15.6-3.7,23.3s-2.5,15.5-4,23.3c-0.9,4.9-1.9,9.8-3,14.7s-2.2,9.9-3.3,15c-2.6,10.9-6.4,20.9-11.4,30
					c-5.1,9.1-11.8,17.4-20.2,24.8c-11.3,9.8-23.8,17.3-37.6,22.4c-4.5,1.6-9.1,3-13.6,4.1s-9.3,1.7-14.2,1.9
					c-7.3,0.4-14.3-0.2-21-1.6c-6.7-1.5-13.2-4.3-19.4-8.5c-0.9-0.6-1.9-1-3-1.5c-1.1-0.4-2.1-1-3-1.5c-3.6-2.2-7-4.6-10.1-7.4
					c-3.1-2.7-5.8-5.9-8.2-9.6c-4.2-5.8-7.7-11.9-10.6-18.1c-2.9-6.3-4.6-13-5.2-20c-0.4-3.8-0.6-7.6-0.7-11.3s0.3-7.4,1.2-11
					c0.9-4.5,2.5-8.8,4.8-12.8s5.8-7.1,10.5-9.3c2-0.9,3.9-0.7,5.7,0.5c3.6,2.7,5.5,6.3,5.7,10.6c0,5.8,1,11.3,2.9,16.4
					c1.9,5.1,4.1,10,6.7,14.7c2.9,5.4,6.7,9.9,11.5,13.2c4.7,3.4,9.8,5.7,15.3,7s11.1,1.5,16.9,0.7s11.2-2.8,16.1-5.9
					c11.6-7.3,20.1-17.2,25.4-29.7c1.5-2.9,2.5-5.9,3.3-9.1c0.7-3.2,1.5-6.3,2.2-9.4c1.6-6.9,3.1-13.8,4.5-20.7s2.8-13.8,4.2-20.7
					c1.6-9.1,3.2-18.1,4.6-27c1.5-8.9,3-18,4.6-27.3l3.3-18.8c0.2-0.9,0.3-1.7,0.4-2.5c0.1-0.7,0.2-1.5,0.4-2.2L1191.5,452.8
					L1191.5,452.8z"/>
			</g>
			<g id="XMLID_196_">
				<path id="XMLID_197_" class="st2" d="M1507.8,663.4c0,2-1.1,3.8-3.1,5.3c-2.1,1.6-4,2.8-5.9,3.7c-1.5,0.7-2.9,1.5-4.2,2.2
					c-1.4,0.7-2.8,1-4.2,0.8c-4.2-0.4-8.4-0.4-12.5-0.3c-4.2,0.2-8.2-0.8-12-3c-4-2-7.5-4.6-10.4-7.8s-5.4-6.9-7.4-11
					c-3.3-6.4-6-12.8-8.2-19.4c-2.2-6.5-4-13.3-5.5-20.2c-1.6-8.2-3.6-16.2-5.9-24s-4.5-15.7-6.7-23.7c-2.4-8.5-4.4-17.1-6.1-25.8
					c-1.7-8.6-3.5-17.3-5.3-26c0-0.4,0-0.7-0.1-1s-0.1-0.6-0.1-1c-0.4-2-0.7-3.5-1.1-4.6s-0.9-1.9-1.5-2.5c-0.6-0.5-1.5-0.9-2.6-1
					s-2.6-0.1-4.6-0.1c-17.1,0-34.2-0.8-51.3-2.5c-0.9-0.2-1.9-0.2-3-0.1s-2.5,0.1-4.1,0.1c-2.4,0.2-4.1,0.2-5.2,0.1s-2,0-2.6,0.4
					s-1.2,1.2-1.8,2.5c-0.5,1.3-1.4,3.4-2.5,6.3c-6,14.7-12,29.4-18.1,44s-12.1,29.3-18.1,44c-2.2,5.3-4.1,10.6-5.9,16
					c-1.7,5.4-3.6,10.8-5.6,16.2c-0.9,2.9-2.1,5.5-3.7,7.9c-1.5,2.4-3.6,4.5-6.1,6.5c-1.1,0.9-2.2,1.7-3.4,2.3
					c-1.2,0.6-2.5,0.5-3.9-0.4c-1.5-0.9-2.3-2-2.6-3.4c-0.3-1.4-0.2-2.8,0.1-4.2c2-7.8,3.9-15.6,5.9-23.3c1.9-7.7,4.1-15.4,6.7-23
					c6.4-19.8,13.4-39.3,21.1-58.5s15-38.7,22-58.5c3.8-11.3,7.9-22.2,12.4-32.9c4.4-10.6,9-21.4,13.5-32.3
					c4.5-10.7,9-21.4,13.4-31.9s8.7-21.1,13.1-31.6l7.1-19.1c0.7-1.5,1.3-2.8,1.6-4.1c0.4-1.3,1.3-2.4,2.7-3.3c2.5-1.5,4.9-3,7-4.6
					s4.2-3.3,6.4-4.9c1.8-1.3,4-2.4,6.5-3.3c3.3-0.7,6.5-1,9.5-0.7c3.1,0.3,4.9,2,5.5,5.3c2.7,8,5.8,17.6,9.3,28.9
					c3.1,9.6,6.6,21.5,10.6,35.7s8.6,30.8,13.9,49.9c2.5,12.9,5.2,25.7,7.9,38.3c2.7,12.6,5.9,25.2,9.5,37.8
					c2.2,7.6,4.1,15.4,5.7,23.2s3.4,15.6,5.2,23.4c5.3,19.6,10.1,37.5,14.5,53.5c1.8,6.9,3.6,13.7,5.3,20.3
					c1.7,6.6,3.3,12.7,4.6,18.1c1.4,5.5,2.4,10.1,3.1,13.9C1507.4,660.1,1507.8,662.4,1507.8,663.4z M1389.2,369.4
					c-4.4,9.5-8.6,18.6-12.8,27.4c-4.2,8.8-8.3,17.6-12.3,26.3c-8.4,17.6-15.6,35.3-21.8,52.9c-0.4,1.1-0.7,2.1-1.1,3.1
					s-0.4,2.2,0,3.7c4.2-0.4,8.3-0.7,12.3-1.1s8-0.6,12-0.6c5.3-0.2,10.5-0.2,15.8-0.1s10.5,0.1,15.8,0.1c3.3,0,5.2-0.3,5.7-1
					c0.5-0.6,0.6-2.5,0.3-5.6c-1.6-13.1-3.3-26.1-4.9-39.1s-3.3-26-4.9-39.1c-0.5-4.2-1.1-8.5-1.6-13
					C1391.1,379,1390.3,374.3,1389.2,369.4z"/>
			</g>
			<g id="XMLID_192_">
				<path id="XMLID_193_" class="st2" d="M1551.7,672.6c-2-1.6-3.5-3.5-4.5-5.6s-1.9-4.2-2.6-6.4c-0.4-1.5-0.7-2.9-1.1-4.4
					s-0.7-2.9-1.1-4.4c-1.8-4.9-3-9.9-3.7-14.9c-0.6-5-1.3-10.1-2.1-15.4c-0.9-8.7-1.9-17.4-2.9-26s-2-17.3-2.9-26
					c-0.9-8.2-1.8-16.2-2.6-24c-0.8-7.8-1.7-15.8-2.6-24c-1.8-14.2-3.1-28.3-3.8-42.3c-0.7-14-1.5-28.1-2.2-42.3
					c-1.3-2.4-1.6-4.7-1.1-7s0.7-4.7,0.5-7.2c-0.2-4.7-0.4-9.4-0.7-14c-0.3-4.6-0.5-9.3-0.7-14c-0.4-4.9-0.5-9.9-0.5-14.9
					s-0.1-10-0.3-14.9c0-0.5,0.1-1.1,0.3-1.8c0.2-0.6,0.2-1.2,0-1.8c-1.1-4.2-0.6-7.8,1.4-10.9s4.3-6.1,6.8-9
					c0.5-0.7,1.4-1.1,2.5-1.1c2.2-0.2,4.3-0.3,6.4-0.4s4.1,0,6.1,0.4c2.9,0.4,5.5,1.5,7.6,3.5c2.2,2,3.5,4.5,4.1,7.6
					c0.5,4,1,8,1.5,11.9s1,7.9,1.5,11.9c0,0.5,0,1.1,0.1,1.8c0.1,0.6,0.2,1.4,0.4,2.3c4.2-5.3,8.2-10.4,12.1-15.3s8-9.7,12.1-14.4
					c5.8-6.5,12-12.6,18.7-18.3c6.6-5.6,13.9-10.5,21.7-14.7c10.9-5.8,22.2-8.6,33.8-8.5c4.2,0.2,7.8,1.1,10.8,2.9
					c3,1.7,5.3,4.7,7,8.9c0.9,2.2,1.5,4.3,1.9,6.4s0.4,4.3,0,6.7c-0.5,8.6-2.5,16.4-6,23.5s-8,13.7-13.6,19.9
					c-9.5,10.4-19.7,19.6-30.8,27.8c-11.1,8.2-22.8,15.5-35.2,22.1c-1.5,0.9-2.9,1.8-4.4,2.6c-1.5,0.8-3.1,1.7-4.9,2.6
					c0.5,0.7,1,1.4,1.5,2s1,1.2,1.8,1.8c12.2,12,23.7,25.1,34.6,39.3c5.1,6.7,9.8,13.6,14.2,20.7c4.4,7.1,8.5,14.4,12.3,21.8
					c4.7,8.9,8.5,18,11.5,27.4c2.9,9.4,5.5,18.9,7.9,28.5c1.8,7.3,3.5,14.5,5,21.7s3,14.4,4.5,21.7c1.3,6.4,2.1,12.8,2.5,19.2
					c0.4,6.5,0,13-1.1,19.5c-0.4,2-0.7,3.9-1,5.9c-0.3,1.9-0.6,3.9-1,5.9c-0.9,2-1.9,3.6-3,4.9c-1.1,1.3-2.4,2.3-3.9,3
					c-1.6,0.7-3.5,0.8-5.9,0.3c-5.4-5.5-9.1-11.5-10.9-18.3c-1.5-6-2.9-12-4.2-18.1c-1.4-6.1-2.6-12.1-3.7-18.1
					c-2.6-13.8-5.5-27.5-8.7-41c-3.3-13.5-7.5-26.9-12.5-39.9c-5.1-13.4-11.1-26.3-18.1-38.6c-7-12.3-15.5-23.7-25.5-34.2
					c-2.4-2.5-4.7-5.1-7-7.8c-2.3-2.6-4.8-5.5-7.5-8.6c0,1.1,0,2-0.1,2.6s-0.1,1.1-0.1,1.5c0.4,4.2,0.7,8.4,1.1,12.7
					c0.4,4.3,0.8,8.5,1.4,12.7c0.9,8.2,2,16.2,3.1,24c1.2,7.8,2.3,15.8,3.4,24c1.5,9.5,2.9,18.9,4.4,28.2c1.5,9.4,2.7,18.8,3.8,28.2
					c0.9,6.7,1.6,13.4,2,20c0.5,6.6,0.7,13.3,0.7,20c0.2,4.7-0.1,9.3-0.8,13.6c-0.7,4.4-1.5,8.8-2.2,13.4c-0.4,2.5-0.8,5.1-1.2,7.8
					c-0.5,2.6-1.1,5.2-2,7.8c-0.9,2.4-2.8,4.5-5.7,6.4c-2.9,1.9-5.6,2.7-8.2,2.3c-1.1-0.4-2.1-0.7-3-1s-1.8-0.6-2.7-1
					C1553.5,673.4,1552.6,673,1551.7,672.6z M1557.4,410.9c0.2,0.4,0.5,0.7,0.8,1.1c1.8-0.9,3.6-1.9,5.3-3c1.7-1.1,3.5-2.1,5.3-3
					c8.9-5.3,17.8-10.5,26.6-15.8c8.8-5.3,17.3-11.1,25.5-17.5c3.8-3.1,7.6-6.1,11.4-9.1s7.3-6.4,10.4-10.2c2.9-3.6,5.2-7.5,7-11.4
					c1.7-4,2.5-8.4,2.3-13.1c-0.2-2-0.6-3.3-1.2-3.9s-2-0.6-3.9,0.1c-6.2,2-11.6,4.3-16.4,6.8c-8.2,4.2-15.6,9.3-22.2,15.3
					s-12.8,12.5-18.4,19.6c-5.3,6.7-10.4,13.5-15.4,20.2s-10,13.5-14.9,20.5c-0.5,0.5-1,1.1-1.2,1.8
					C1558.1,409.7,1557.8,410.3,1557.4,410.9z"/>
			</g>
			<g id="XMLID_188_">
				<path id="XMLID_189_" class="st2" d="M1741.5,378.7c2.2-3.3,4.2-6.3,6.1-9.1c1.9-2.8,3.9-5.6,5.9-8.3c5.8-8.5,12.4-16,19.9-22.4
					c7.4-6.4,15.5-12.2,24.3-17.5c8.2-5.3,17.5-9.2,27.8-11.7c11.1-2.6,20.5-1.6,28.2,2.7c7.7,4.4,14.2,10.9,19.5,19.6
					c3.3,5.8,5.5,11.8,6.8,18s2.1,12.5,2.5,18.8c0.4,9.1-0.4,18-2.2,26.6c-1.8,8.6-4,17.3-6.5,26c-4.5,14.9-9.7,29.5-15.4,43.9
					c-5.7,14.4-11.8,28.6-18.1,42.8c-5.1,11.4-10.2,22.8-15.3,33.9c-5.1,11.2-10.5,22.2-16.1,33.1c-4.9,9.6-9.9,19.1-14.9,28.4
					c-5,9.3-10.1,18.6-15.4,28.1c-1.6,3.1-3.2,6.2-4.6,9.4c-1.5,3.2-2.9,6.4-4.4,9.7c-2,4.5-4.6,8.5-7.9,11.7
					c-3.3,3.3-7,6.2-11.2,8.7c-3.3,2-6.6,3.1-9.9,3.3c-3.4,0.2-6.8,0.5-10.2,1.1c-1.3,0-2.2-0.3-2.7-0.8c-2-2-3.9-3.9-5.9-5.9
					c-1.9-1.9-3.4-4.3-4.5-7.2c-3.1-8.2-5.3-16.5-6.5-24.9c-1.3-8.5-2.4-17.1-3.3-25.8c-0.9-9.5-2-18.8-3.1-28.1
					c-1.2-9.3-2.3-18.6-3.4-28.1c-1.3-9.6-2.4-19.2-3.3-28.8s-1.5-19.2-1.6-29c-0.4-10.4-0.9-20.5-1.5-30.5s-1-20.2-1-30.5
					c0-8.4,0.1-16.7,0.3-25.1c0.2-8.4,0.7-16.7,1.6-25.1c0.4-3.6,0.6-7.4,0.7-11.2c0.1-3.8,0.3-7.6,0.7-11.4
					c0.4-4.7,1.6-8.8,3.8-12.3c2.2-3.5,5.1-6.5,8.7-9c4.5-3.3,9-4.1,13.5-2.5s7.9,4.8,10.2,9.5c1.5,3.3,2.8,6.7,3.9,10.4
					c1.2,3.6,2.1,7.3,2.6,10.9C1739.9,372.1,1740.6,374.9,1741.5,378.7z M1753.8,603.6c1.8-2,3.2-4,4.1-6s1.8-3.9,2.6-5.6
					c0.8-1.7,1.7-3.5,2.6-5.3c6-10.4,11.7-20.9,17.2-31.5s10.8-21.4,16.1-32.3c3.1-6.2,6-12.3,8.9-18.4c2.8-6.1,5.8-12.3,8.9-18.7
					c3.6-7.3,7.2-14.5,10.6-21.7s6.7-14.6,9.8-22.2c3.3-7.6,6.4-15.2,9.3-22.6c2.9-7.5,5.4-15.3,7.4-23.5c1.1-4.2,2.2-8.3,3.3-12.4
					c1.1-4.1,1.8-8.3,2.2-12.7c0.4-4,0.3-7.9-0.3-11.9c-0.5-3.9-1.8-7.7-3.8-11.3c-1.5-3.1-3.1-5.1-4.9-6.1s-4.5-1.3-7.9-1
					c-0.9,0.2-1.7,0.3-2.5,0.4c-0.7,0.1-1.5,0.3-2.5,0.7c-6.5,1.8-12.5,4.5-18,8s-10.7,7.4-15.8,11.6c-10.5,8.9-19.9,18.6-28.1,29.2
					c-8.2,10.5-15.7,21.7-22.6,33.5c-2.5,4.5-4.5,9.2-5.9,14s-1.8,10-1.2,15.4c0.5,6,0.9,12,1.1,18s0.4,12,0.8,18
					c0.7,13.1,1.5,26.1,2.2,39s1.6,25.9,2.7,39c0.5,5.3,1,10.6,1.4,16.1s0.7,10.9,1.1,16.4c0,0.5,0,1.2,0.1,1.9
					C1752.6,602.5,1753,603.1,1753.8,603.6z"/>
			</g>
		</g>
		<g id="XMLID_176_">
			<g id="XMLID_184_">
				<path id="XMLID_185_" class="st2" d="M867.2,30.3c-3.6-0.2-7.2-0.4-10.6-0.4c-3.5-0.1-6.9-0.2-10.5-0.4
					c-5.9-0.2-11.9-0.4-17.9-0.5s-12-0.3-18-0.5c-0.6,0-1-0.1-1.5-0.2c-0.4-0.1-0.9-0.1-1.5,0.2c-2.5,0.5-4.9,0.5-7.1-0.3
					c-2.2-0.7-4.4-1.7-6.6-3c-2.3-1.4-3.8-3.6-4.6-6.4c-0.4-1.5-0.5-2.8-0.2-3.8s1.3-1.8,2.8-2.3c1.9-0.8,3.7-1.4,5.6-1.9
					c1.9-0.5,3.7-0.9,5.6-1.1c5.6-0.4,11.2-0.8,16.9-1.1c5.6-0.3,11.3-0.5,17-0.7c5.7-0.2,11.4-0.4,17.1-0.7
					c5.7-0.2,11.4-0.4,17.1-0.7c2.9-0.1,5.7-0.1,8.5-0.1c2.8,0.1,5.6,0,8.5-0.2c8.9-0.6,17.7-0.7,26.4-0.3
					c8.7,0.3,17.5,0.8,26.4,1.3c3.3,0.2,6.9,0.3,10.7,0.2c3.8-0.1,7.3,0.4,10.5,1.5c0.9,0.2,1.5,0.6,1.9,1.1s1.1,0.8,2.2,0.9
					c-0.1,0.6-0.2,1-0.2,1.2c0,0.3-0.1,0.5-0.2,0.7l-6.4,10.9c-1.3,2.4-3.2,3.8-5.8,4.1c-3.9,0.4-7.6,0.9-11.4,1.4
					c-3.7,0.5-7.5,0.9-11.2,1.1c-5.9,0.2-11.7,0.4-17.4,0.4c-5.7,0.1-11.5,0.1-17.4,0.2c-0.3,0-0.7,0-1,0.1s-0.7,0.1-1.2,0.2
					c0,0.5,0,1-0.1,1.5c-0.1,0.4,0,0.9,0.1,1.3c1.2,6.6,2,13.2,2.3,19.8s0.6,13.3,0.8,20.1c0.2,5.9,0.5,11.8,0.7,17.5
					c0.3,5.8,0.5,11.6,0.7,17.5c0.3,8.4,0.7,16.8,1.1,25.2c0.4,8.3,0.7,16.8,0.9,25.3c0.2,5.8,0.4,11.6,0.6,17.3
					c0.2,5.7,0.2,11.5,0.2,17.4c0,2.4-0.1,4.8-0.2,7.2c-0.2,2.4-0.3,4.8-0.4,7.3c-0.1,0.9-0.2,1.8-0.2,2.8c-0.1,1-0.1,2-0.1,3
					c0,1.4-0.1,2.8-0.3,4c-0.2,1.3-0.7,2.5-1.5,3.7c-1,1.6-2.1,2.8-3.4,3.5c-1.3,0.7-2.9,0.8-4.9,0.5c-3.5-0.5-6.4-1.9-8.6-3.9
					c-2.3-2.1-4.1-4.6-5.7-7.6c-1.5-2.9-2.7-5.8-3.4-8.7c-0.7-3-1.3-6-1.9-9.1c-0.9-5.5-1.5-10.9-1.7-16.3
					c-0.3-5.4-0.4-10.8-0.2-16.3c0-1.9-0.1-3.6-0.2-5.3c-0.1-1.7-0.2-3.5-0.3-5.3l-1-22.7c-0.5-10.2-1-20.3-1.5-30.4
					c-0.4-10-0.8-20.1-1.2-30.4c-0.3-12.6,0.5-25.1,2.5-37.5c0.1-0.3,0.1-0.7,0.1-1.1C867.2,31.3,867.2,30.9,867.2,30.3z"/>
			</g>
			<g id="XMLID_181_">
				<path id="XMLID_182_" class="st2" d="M1003.9,173.3c0.2-2.2,0.5-4.4,0.8-6.6c0.3-2.2,0.6-4.4,0.8-6.6c0.5-4.3,1-8.6,1.4-12.8
					c0.4-4.3,0.9-8.6,1.6-12.8c0.8-4.5,1.6-9,2.4-13.4c0.8-4.4,1.8-8.9,2.9-13.4c1.2-4.8,2.7-9.5,4.4-14.1s3.8-9,6.3-13.3
					c1.6-2.7,3.3-5.4,5-8s3.8-4.9,6.3-7c0.9-0.8,1.8-1.5,2.7-2.2c0.9-0.7,1.9-1.3,2.9-1.9c1.2-0.8,2.5-1.2,3.8-1.2
					c1.3-0.1,2.7,0.1,4.1,0.4c2.4,0.5,4.7,1.4,6.8,2.6c2.1,1.1,4.2,2.4,6.2,3.9c0.9,0.4,1.4,0.8,1.5,1.2c1.2,2.1,2.4,4.1,3.5,6.1
					c1.2,2,2.1,4.1,2.7,6.3c0.9,2.9,1.6,5.7,2.1,8.6s1,5.8,1.6,8.7c0.3,1.6,0.5,3.4,0.6,5.1c0.1,1.8,0.3,3.5,0.7,5.1
					c0.9,3.6,1.1,7.3,0.7,10.9c-0.4,3.7-0.3,7.3,0.3,11c0.2,0.7,0.2,1.3,0.1,2.1c-0.2,0.7-0.2,1.5-0.2,2.2c0.1,2.5,0.2,5.1,0.2,7.7
					c0.1,2.6,0.2,5.2,0.4,7.7c0.3,4.2,0.7,8.4,1.2,12.7c0.4,4.3,0.9,8.5,1.3,12.7c0.3,4.2,0.6,8.4,0.9,12.6
					c0.3,4.2,0.7,8.4,1.2,12.6c0.2,1.5,0.6,3,1.2,4.4c0.5,1.4,1,2.9,1.5,4.4c0.3,1.2,0.5,2.5,0.5,3.9c0,1.3-0.1,2.6-0.4,3.9
					c-0.3,1.3-0.7,2.5-1.2,3.7c-1,2.8-2.9,3.8-5.6,3.1c-8.3-2.2-14.3-7-17.9-14.3c-3.3-6.6-5.8-13.3-7.6-20.3
					c-1.8-7-3.1-14.1-3.7-21.3c-0.9-8.9-1.5-17.8-1.7-26.6c-0.3-8.9-0.1-17.8,0.4-26.6c0.3-5.2,0.4-10.3,0.1-15.4
					s-0.5-10.2-0.7-15.4c0-0.4-0.1-0.9-0.2-1.2c-0.2-0.4-0.4-1-0.6-1.9c-1,1.5-1.9,3-2.7,4.3c-0.8,1.3-1.5,2.6-2.1,3.8
					c-2.3,4.8-4.4,9.7-6.2,14.6c-1.8,4.9-3.3,10-4.4,15.2c-0.3,1.9-0.8,3.7-1.3,5.6s-1,3.7-1.5,5.6c-0.6,2.2-1,4.4-1.4,6.7
					s-0.8,4.5-1.2,6.7c-1.2,5.6-2.2,11.2-3,16.8c-0.9,5.2-1.6,10.3-2.2,15.4c-0.6,5.1-1.3,10.2-2.1,15.4c-0.4,3-1,5.9-1.6,8.7
					c-0.6,2.9-1.5,5.7-2.6,8.6c-1,2.6-2.4,4.9-4.3,6.8c-1.9,1.9-3.8,3.8-5.8,5.5c-1.2,1.1-2.6,2.1-4,2.9c-1.5,0.8-3,1.6-4.5,2.4
					c-2.1,1-3.8,1.2-5.2,0.7s-2.7-1.7-4-3.5c-1.5-2.3-2.9-4.7-3.9-7.2c-1.1-2.5-1.9-5.2-2.3-7.9c-0.6-3.5-1-7-1.3-10.4
					s-0.7-6.9-1.2-10.4c-0.2-2.4-0.5-4.8-0.8-7.2s-0.7-4.8-1-7.2c-1-8.1-1.8-16.2-2.6-24.2c-0.7-8-1.1-16.1-1.2-24.4
					c-0.2-13-0.4-26-0.5-39c-0.1-12.9-0.2-25.9-0.3-39c-0.1-9.3-0.1-18.6,0-27.8s0.2-18.5,0.2-27.8c0-2.1,0.6-3.9,1.9-5.6
					c1.3-1.7,3.1-2.6,5.3-3c3.3-0.3,6.2,0.4,8.7,2.3c2,1.3,3.4,2.9,4.4,4.8c0.9,1.9,1.7,3.9,2.2,6.1c1,4.1,1.6,8.1,1.7,12.2
					c0.2,4.1,0.4,8.1,0.6,12.2c0.1,3.7,0.3,7.4,0.5,11s0.4,7.2,0.7,10.9c0.1,2.1,0.2,4.1,0.2,6.2c0,2,0,4.1,0.2,6.2
					c0.1,2,0.2,3.9,0.3,5.9s0.2,3.9,0.4,5.9c0.2,3.4,0.5,6.8,0.7,10.1c0.3,3.4,0.6,6.7,0.9,10.1c0.5,4.6,0.7,9.2,0.6,13.7
					c-0.2,4.5-0.4,9-0.6,13.6c-0.1,1.9-0.1,3.7,0.2,5.6c0.2,1.9,0.4,3.7,0.7,5.6c0.1,2.1,0.2,4.2,0.3,6.2c0.1,2.1,0.3,4.2,0.5,6.4
					c0.2,3,0.4,5.9,0.5,8.9s0.3,6,0.5,9.1c0.2,2.7,0.4,5.4,0.6,8.1c0.2,2.6,0.4,5.3,0.6,8.1c0.1,0.6,0.2,1.1,0.3,1.6s0.2,1,0.3,1.6
					C1003.4,173.5,1003.7,173.4,1003.9,173.3z"/>
			</g>
			<g id="XMLID_177_">
				<path id="XMLID_178_" class="st2" d="M1209.2,159.5c-2.1,4.6-4.2,9.2-6.3,13.7c-2.1,4.5-4.4,9-6.8,13.5
					c-2.2,4.3-4.7,8.4-7.5,12.3c-2.8,3.9-5.8,7.7-9,11.3c-4.8,5.7-10.3,10-16.4,12.9s-13.1,3.9-21,3c-8.2-0.9-15.2-3.5-21.1-7.7
					c-5.8-4.3-10.6-10-14.5-17.3c-2.6-5.3-4.7-10.6-6.2-16s-2.5-11-3.1-16.9c-0.5-4.5-0.8-8.9-0.7-13.3c0.1-4.4,0.2-8.8,0.4-13.3
					c0.2-4.6,0.7-9.2,1.5-13.7c0.8-4.5,1.8-9,3.1-13.5c1.9-6.6,4.1-12.9,6.8-19.1c2.7-6.1,6.2-11.9,10.6-17.3
					c2.6-3.3,5.5-6.2,8.7-8.8c3.2-2.6,6.6-4.9,10.4-6.8c3.2-1.6,6.4-3,9.8-4s6.8-1.7,10.3-1.9c3.9-0.2,7.8,0,11.7,0.7
					s7.5,2.3,11,4.8c0.9,0.7,1.8,1.3,2.7,1.9c0.9,0.6,1.9,1.2,2.9,1.7c3.4,2.2,6.3,4.8,8.8,7.9s4.7,6.4,6.8,9.9
					c2.1,3.5,3.4,7.2,3.9,11.2c0.6,3.9,0.4,8-0.3,12.2c-2.6,13.6-9.1,25.3-19.2,35c-3,2.9-6,5.6-9.1,8.3s-6.3,5.2-9.7,7.5
					c-4.8,3.2-9.8,5.8-15.1,7.7c-5.2,2-10.8,3.1-16.7,3.3c-0.1,0-0.6,0.1-1.5,0.3c0.8,4.7,1.9,9.2,3.4,13.3c1.5,4.2,3.8,8,6.7,11.5
					c2.5,2.9,5.3,5,8.5,6.4c3.1,1.4,6.5,2.3,10.3,2.5c1.5,0.1,2.9-0.2,4-0.9c1.2-0.7,2.3-1.5,3.5-2.4c2.5-2.2,4.8-4.6,6.9-7.2
					c2.1-2.6,4-5.3,5.8-8.1c2.5-3.8,4.8-7.7,6.9-11.7c2.1-3.9,3.9-8,5.6-12.2c0.9-2,1.9-3.7,3.1-5c1.2-1.4,2.8-2.2,5-2.6
					c1.3,0.1,2.5,0.4,3.4,1c0.8,0.5,1.4,1.3,1.8,2.2C1210.1,156.7,1209.9,157.9,1209.2,159.5z M1133.2,159.3
					c1.4-0.2,2.7-0.4,3.9-0.5c1.1-0.1,2.3-0.3,3.4-0.7c3.8-0.9,7.5-2.2,10.9-3.9c3.5-1.7,6.7-3.7,9.8-6c2.5-1.9,4.9-3.7,7.2-5.7
					c2.3-1.9,4.5-3.9,6.7-6c4.6-4.2,8.2-8.9,10.8-14.1c2.6-5.3,4.4-10.9,5.4-16.9c0.5-2.7,0.5-5.3,0-7.8c-0.6-2.5-1.8-4.8-3.6-7
					c-3.5-4.2-7.6-6.9-12.4-8.1c-4.8-1.3-9.6-0.7-14.6,1.7c-4.3,2.1-8,4.8-11.1,8.1c-3.1,3.3-5.7,7.1-7.8,11.3
					c-3.5,7-6,14.5-7.6,22.5c-0.9,4.3-1.5,8.6-1.9,12.8c-0.4,4.3-0.5,8.6-0.2,13c0.1,1.2,0.2,2.4,0.4,3.5
					C1132.8,156.8,1132.9,158,1133.2,159.3z"/>
			</g>
		</g>
	</g>
</g>
</svg>
