<?xml version="1.0" encoding="utf-8"?>
<!-- Generator: Adobe Illustrator 22.0.1, SVG Export Plug-In . SVG Version: 6.00 Build 0)  -->
<svg version="1.1" id="Layer_1" xmlns="http://www.w3.org/2000/svg" xmlns:xlink="http://www.w3.org/1999/xlink" x="0px" y="0px"
	 viewBox="0 0 1920 1080" style="enable-background:new 0 0 1920 1080;" xml:space="preserve">
<style type="text/css">
	.st0{fill:#D8CCEA;}
</style>
<g id="object">
	<g id="XMLID_8399_">
		<g id="XMLID_8479_">
			<g id="XMLID_8502_">
				<path id="XMLID_8503_" class="st0" d="M1531,438.1c-0.7-2.2-1.4-4.4-2.2-6.6l-2.9-6.4c-1.8-6.4-5-13.3-8.1-20.5
					c-3.8-6.8-7.6-14.1-12.2-19.9c-8.8-12.1-18.8-20.5-22.9-22.4c-10.4-6.3-21.1-10.8-31.7-14.6c-10.6-3.3-21.1-6.2-31.4-7.9
					c-20.6-3.8-40.3-5-59.2-5.7c-19-0.6-36.6-0.3-53.7-0.2c-17.1,0.2-33.6,0.6-49.5,1.6c-62.9,2.5-125.1,2.8-185.3,4.3
					c-32.1,0.7-63.5,1.9-94.1,3.8l-5.2-3.6c-10,2-19.7,3.3-21.9,5.5c-4.9,0.4-9.9,0.8-14.8,1.2c-15-1.6-27.6-0.9-37.2,3.7
					c-11.3-1.8-4-3.1-10.4-4.7c-17.1,1.2-35.6,1.6-54.6,1.2c-5.7-1.4-14-2.5-31.2-2.6l-0.4,1.5c-57.6-3.1-114.4-11.5-143.9-20.5
					c-31.2,11.4-70.3,2.4-106.3,7.5c-21.3,1.9-44.5,5.1-66.6,7.9c-11.1,1.4-21.5,2.3-32.9,3.6c-11.1,1.5-21.6,3.4-31.4,5.6
					c-11.5,2.9-22.7,8.3-32.2,15.4c-9.5,7-17.1,15.5-23.2,24c-11.9,17.3-18.4,34.2-23.3,50.4c-3.7,12.5-6,25-6.9,37.3
					c-0.3,1.4-0.6,2.7-0.9,4.1c0.1,2.2,0.3,4.3,0.5,6.5c-0.1,16.7,2.6,32.8,8,47.4c2.6,7.6,7.6,14,12.5,19.5
					c1.7,1.9,3.4,3.6,5.1,5.3c11.7,18.6,28.3,38.6,28.3,47.1c33.9,26,80.4,26,123.1,24.8c65-1.8,129.9-3.7,194.9-5.5
					c5.9,0.7,11.9,1.6,17.4,3.5l1-4c25.4-0.7,50.8-1.4,76.2-2.1c53.4,5.5,128.4,3.2,192.2,3.3c13.8-0.2,22.6-7.8,36.4-8
					c6.5,1.4,13,2.8,19.5,4.2c13.8-0.2,34.9-2,41.4-0.6c26,5.5,63.7,5.7,102.6,4.9c38.9-0.9,78.5-2.1,109.7-1.3
					c20.8,0.5,42.3-1.4,64.7-5.3c22.4-4.2,45.9-10.1,70.4-19.9c5.4-1.7,10.8-4.3,16.6-7.1c2.9-1.4,5.9-3.4,8.9-5.2
					c3-1.9,6.1-3.9,8.9-6.2c11.9-8.8,22.8-20.5,32.2-33.9c9.3-13.4,17.1-28.7,22.4-45c5.1-16.4,7.8-34,7.1-51.5
					C1533.8,447.1,1532.5,442.6,1531,438.1z"/>
			</g>
			<g id="XMLID_8500_">
				<path id="XMLID_8501_" class="st0" d="M979.7,643.4c-3,0-6-0.1-8.9-0.1C974.5,643.3,977.4,643.4,979.7,643.4z"/>
			</g>
			<g id="XMLID_8498_">
				<path id="XMLID_8499_" class="st0" d="M975.6,635.4c-0.5,2.1,24.5,7.7,4.1,7.9c11.5,0.1,21.7,0.4,11.9,4.3
					c22.1-0.3,1.5-6,16.1-9.1C995.8,642.2,986.3,636.5,975.6,635.4z"/>
			</g>
			<g id="XMLID_8496_">
				<path id="XMLID_8497_" class="st0" d="M1059.7,639.5c-11,0.2-20.8-4.4-30.2-0.1C1040.2,640.4,1053.6,642,1059.7,639.5z"/>
			</g>
			<g id="XMLID_8494_">
				<polygon id="XMLID_8495_" class="st0" points="1033.9,654.1 1039.8,652.9 1024.4,648.3 				"/>
			</g>
			<g id="XMLID_8492_">
				<path id="XMLID_8493_" class="st0" d="M1095.1,648.1c4.2,0.7,7.4,1.7,8.2,3.2l-38.9,1.8l35.1,2.4
					C1120.7,651.5,1110.3,649.7,1095.1,648.1z"/>
			</g>
			<g id="XMLID_8490_">
				<path id="XMLID_8491_" class="st0" d="M1050,645c-0.4,1.4,17.1,0.9,32.2,1.7c-10.1-1.1-19.3-2.3-20.6-4.3L1050,645z"/>
			</g>
			<g id="XMLID_8488_">
				<path id="XMLID_8489_" class="st0" d="M1095.1,648.1c-3.7-0.6-8-1.1-12.9-1.3C1086.6,647.2,1091,647.6,1095.1,648.1z"/>
			</g>
			<g id="XMLID_8486_">
				<path id="XMLID_8487_" class="st0" d="M1132,657.4l5.5-0.1l1.5-6C1127.7,652.7,1132.2,656.2,1132,657.4z"/>
			</g>
			<g id="XMLID_8484_">
				<path id="XMLID_8485_" class="st0" d="M1174.8,661.5c16.2,1,4.6,3.5,4,5.9c10.1,3.4,30.5-1,38.9-1.8
					C1205,661.7,1191,662.5,1174.8,661.5z"/>
			</g>
			<g id="XMLID_8482_">
				<path id="XMLID_8483_" class="st0" d="M1226.6,673.8l-33.1,0.5C1200.1,680.7,1212.6,674.6,1226.6,673.8z"/>
			</g>
			<g id="XMLID_8480_">
				<path id="XMLID_8481_" class="st0" d="M1261.9,665l18.4,5c3.1-0.7,0.6-2.4,6.7-3.7C1281.8,664,1270.1,665.4,1261.9,665z"/>
			</g>
		</g>
		<g id="XMLID_8427_">
			<g id="XMLID_8474_">
				<path id="XMLID_8475_" d="M780,727.7h17.5c4.4,0,7.9,1.1,10.4,3.2c2.5,2.1,3.8,4.9,3.8,8.2c0,4.8-2.8,8.1-8.4,9.7
					c2.8,0.4,5.1,1.6,6.8,3.7c1.7,2,2.6,4.4,2.6,7.1c0,3.4-1.3,6.1-3.8,8.2c-2.6,2.1-6,3.1-10.4,3.1H780V727.7z M788.8,734.4v11.2
					h7.8c1.9,0,3.5-0.5,4.6-1.5s1.7-2.3,1.7-4.1s-0.6-3.2-1.7-4.1c-1.1-1-2.7-1.5-4.6-1.5L788.8,734.4L788.8,734.4z M788.8,764.2
					h8.8c1.9,0,3.5-0.5,4.7-1.6s1.8-2.5,1.8-4.4s-0.6-3.3-1.8-4.4c-1.2-1.1-2.8-1.6-4.7-1.6h-8.7L788.8,764.2L788.8,764.2z"/>
			</g>
			<g id="XMLID_8470_">
				<path id="XMLID_8471_" d="M888.1,770.9l-2.8-8.1h-16.8l-2.8,8.1h-9.2l15.3-43.3h10.3l15.2,43.3H888.1z M870.8,756.1h12.3
					l-6.2-18L870.8,756.1z"/>
			</g>
			<g id="XMLID_8466_">
				<path id="XMLID_8467_" d="M951.6,753.7v17.2h-8.7v-43.1h15.9c5,0,8.8,1.2,11.5,3.7s4.1,5.6,4.1,9.2c0,2.7-0.8,5.3-2.5,7.6
					c-1.6,2.3-4.2,4-7.8,4.8l11,17.7h-10.3l-10.3-17.2L951.6,753.7L951.6,753.7z M951.6,734.4V747h7.2c2.2,0,3.8-0.6,5-1.7
					c1.1-1.1,1.7-2.7,1.7-4.6c0-1.9-0.6-3.5-1.7-4.6c-1.2-1.1-2.8-1.7-5-1.7H951.6z"/>
			</g>
			<g id="XMLID_8462_">
				<path id="XMLID_8463_" d="M1033.5,771.3c-3.8,0-6.9-1.3-9.5-3.9c-2.6-2.6-3.9-5.7-3.9-9.3s1-6.7,3.1-9.1
					c2.1-2.4,4.6-3.9,7.5-4.3c-2.4-3.5-3.6-6.6-3.6-9.3s1.1-5,3.2-7.2c2.1-2.1,5.1-3.2,8.8-3.2c3.8,0,6.7,1,8.9,3
					c2.2,2,3.3,4.3,3.3,7c0,1.4-0.2,2.5-0.7,3.5h-8.3c0.4-0.7,0.6-1.5,0.6-2.5s-0.3-1.9-1-2.6c-0.7-0.7-1.6-1.1-2.6-1.1
					c-1.1,0-1.9,0.4-2.6,1.1c-0.7,0.7-1,1.6-1,2.7c0,1.1,0.6,2.5,1.9,4.2l22.8,30.4H1050l-4.8-6.5c-1.1,2.1-2.7,3.7-4.8,5
					C1038.3,770.7,1036,771.3,1033.5,771.3z M1029.2,762.3c1.2,1.3,2.6,1.9,4.3,1.9c1.7,0,3.1-0.6,4.4-1.9c1.2-1.3,1.8-2.8,1.8-4.5
					c0-1.8-0.6-3.3-1.8-4.5c-1.2-1.2-2.7-1.8-4.4-1.8c-1.7,0-3.1,0.6-4.3,1.8c-1.2,1.2-1.8,2.7-1.8,4.5
					C1027.4,759.5,1028,761.1,1029.2,762.3z"/>
			</g>
			<g id="XMLID_8458_">
				<path id="XMLID_8459_" d="M552.3,854.5v17.2h-8.7v-43.1h15.9c5,0,8.8,1.2,11.5,3.7s4.1,5.6,4.1,9.2c0,2.7-0.8,5.3-2.5,7.6
					c-1.6,2.3-4.2,4-7.8,4.8l11,17.7h-10.3l-10.3-17.2L552.3,854.5L552.3,854.5z M552.3,835.3v12.6h7.2c2.2,0,3.9-0.6,5-1.7
					c1.1-1.1,1.7-2.7,1.7-4.6c0-1.9-0.6-3.5-1.7-4.6c-1.2-1.1-2.8-1.7-5-1.7H552.3z"/>
			</g>
			<g id="XMLID_8455_">
				<path id="XMLID_8456_" d="M648.1,828.4v6.7h-16.2v11.3h14.3v6.7h-14.3V865h16.2v6.7h-24.9v-43.3H648.1z"/>
			</g>
			<g id="XMLID_8452_">
				<path id="XMLID_8453_" d="M710.6,834.9c-1.7,0-3.1,0.4-4.2,1.3c-1.1,0.9-1.6,2.1-1.6,3.7c0,1.6,0.4,2.8,1.2,3.7s1.9,1.6,3.2,2
					c1.3,0.5,2.8,0.9,4.3,1.3c1.6,0.4,3.1,0.8,4.7,1.4c1.6,0.5,3,1.2,4.3,2s2.4,1.9,3.2,3.4s1.2,3.3,1.2,5.5c0,3.5-1.4,6.6-4.2,9.2
					c-2.8,2.6-6.6,3.8-11.3,3.8s-8.5-1.1-11.3-3.3c-2.9-2.2-4.3-5.3-4.3-9.3h9.3c0.3,3.8,2.5,5.7,6.5,5.7c2,0,3.5-0.5,4.7-1.5
					c1.1-1,1.7-2.4,1.7-4.1c0-1.7-0.8-3.1-2.3-4c-1.5-1-3.4-1.7-5.5-2.2c-2.2-0.5-4.3-1.1-6.5-1.8s-4-1.9-5.6-3.7
					c-1.5-1.7-2.3-4.1-2.3-7c0-3.9,1.4-7.1,4.3-9.4c2.8-2.3,6.5-3.5,11-3.5s8.1,1,10.8,3.1c2.7,2,4.2,5.1,4.4,9.3h-9.5
					c-0.2-1.6-0.8-3-1.9-3.9C713.7,835.4,712.3,834.9,710.6,834.9z"/>
			</g>
			<g id="XMLID_8449_">
				<path id="XMLID_8450_" d="M772.2,835.3v-6.7h32v6.7h-11.7v36.5h-8.6v-36.5H772.2z"/>
			</g>
			<g id="XMLID_8445_">
				<path id="XMLID_8446_" d="M878.7,871.7l-2.8-8.1h-16.8l-2.8,8.1h-9.2l15.3-43.3h10.3l15.2,43.3H878.7z M861.4,856.9h12.3
					l-6.2-18L861.4,856.9z"/>
			</g>
			<g id="XMLID_8442_">
				<path id="XMLID_8443_" d="M933.4,855.2v-26.6h8.7v26.6c0,3,0.7,5.2,2.3,6.7c1.5,1.5,3.7,2.3,6.5,2.3s5-0.8,6.5-2.3
					s2.3-3.8,2.3-6.7v-26.6h8.7v26.6c0,5.4-1.7,9.6-5.1,12.6c-3.4,3-7.6,4.4-12.5,4.4s-9-1.5-12.3-4.4
					C935.1,864.8,933.4,860.6,933.4,855.2z"/>
			</g>
			<g id="XMLID_8438_">
				<path id="XMLID_8439_" d="M1025.6,854.5v17.2h-8.7v-43.1h15.9c5,0,8.8,1.2,11.5,3.7s4.1,5.6,4.1,9.2c0,2.7-0.8,5.3-2.5,7.6
					c-1.6,2.3-4.2,4-7.8,4.8l11,17.7h-10.3l-10.3-17.2L1025.6,854.5L1025.6,854.5z M1025.6,835.3v12.6h7.2c2.2,0,3.8-0.6,5-1.7
					c1.1-1.1,1.7-2.7,1.7-4.6c0-1.9-0.6-3.5-1.7-4.6c-1.2-1.1-2.8-1.7-5-1.7H1025.6z"/>
			</g>
			<g id="XMLID_8434_">
				<path id="XMLID_8435_" d="M1124.9,871.7l-2.8-8.1h-16.8l-2.8,8.1h-9.2l15.3-43.3h10.3l15.2,43.3H1124.9z M1107.6,856.9h12.3
					l-6.2-18L1107.6,856.9z"/>
			</g>
			<g id="XMLID_8431_">
				<path id="XMLID_8432_" d="M1208,828.4h8.7v43.3h-8.7l-19.5-29.9v29.9h-8.7v-43.3h8.7l19.5,29.9V828.4z"/>
			</g>
			<g id="XMLID_8428_">
				<path id="XMLID_8429_" d="M1263,835.3v-6.7h32v6.7h-11.7v36.5h-8.6v-36.5H1263z"/>
			</g>
		</g>
		<g id="XMLID_8400_">
			<g id="XMLID_8421_">
				<path id="XMLID_8422_" d="M372.1,281.2c3.3-4,6.6-8.6,9.9-13.3c9.3-13.9,21.9-21.2,35.1-25.2c4-1.3,9.9,0.7,13.3,2.7
					c6,2.7,11.3,4.6,19.2,2.7c8-1.3,13.3,0,15.2,4.6c0,2.7-1.3,7.3-0.7,8.6c0.7,4.6,0.7,8.6-3.3,14.6c-1.3,0.7-0.7,2-0.7,3.3
					c-0.7,15.2,3.3,2-3.3,17.2c-3.3,7.3-4,13.9-6.6,19.9c-31.8,80.2,1.3,40.4,27.8,5.3c2.7-7.3,7.3-13.3,13.3-19.2
					c9.3-13.3,20.6-25.2,29.8-39.1c15.2-19.9,33.1-37.8,53-51.7c7.3-4.6,13.9-11.9,20.6-10.6c6.6,0.7,13.3,3.3,17.9,7.3
					c4.6,4,8.6,8.6,11.3,13.9c1.3,0.7,2,1.3,2.7,1.3c9.3,2,9.3,11.3,9.3,19.9c-0.7,2-2,4-2,5.3c-8.6,19.2-17.2,37.1-19.9,55
					c-1.3,9.3-2.7,19.2-3.3,27.8c-1.3,8.6-2,18.6-4,28.5c-1.3,8.6-1.3,17.2-8.6,25.9c0,0.7-0.7,1.3,0,2.7c4.6,4-2,8.6-4,13.3
					c-0.7,2-2,4.6-0.7,6.6c2,7.3,1.3,13.9-4.6,22.5c0,0.7-0.7,2-0.7,4c-2,6-3.3,11.3-4.6,16.6c0.7,0,0.7-0.7,3.3-2
					c-2,9.3-13.3,17.2-9.9,25.9c4.6,0,4,4.6,2.7,10.6c-3.3,13.3-4.6,25.9-10.6,39.8c0.7,0.7,0,1.3,0.7,2c3.3,6.6-4.6,15.9-2.7,24.5
					c0.7,5.3-3.3,11.9,0,18.6c0,3.3-2.7,8.6-7.3,13.3c-1.3,2.7-4.6,4.6-7.3,7.3c-4,9.3-4.6,9.9-13.3,10.6c-2,0-4,0.7-8,1.3
					c-4.6,0.7-8,0.7-9.9-2.7c-0.7-1.3-2.7-2-5.3-2.7c-8.6-2-11.3-9.9-7.3-18.6c6.6-23.9,9.3-45.1,12.6-67.6c2-5.3,3.3-11.9,4.6-17.2
					c2.7-8,4.6-17.2,8.6-26.5c0,2.7-1.3,6-1.3,9.3c2-1.3,2-1.3,2.7-1.3c1.3-4.6,3.3-9.3,4-14.6c2-11.9,8-24.5,6.6-35.8
					c-0.7-0.7-0.7-2,0-2.7c6.6-6.6,0.7-13.3,6-19.9c2-2,1.3-4.6,2-6c-1.3-7.3,1.3-14.6,6-21.9c0-1.3,0-2.7,0-3.3c0,0,0,0-0.7-0.7
					c-4.6,9.9-8.6,19.9-12.6,29.8c-0.7,0-1.3,0-2,0c9.9-58.3,12.6-65.6-32.5-2.7c-0.7-0.7-1.3-1.3-1.3-2c-1.3,0-2,0.7-2,0.7
					c0,2-1.3,4-2,6c-3.3,8.6-6.6,11.9-15.2,17.2c-2,0.7-3.3,2.7-3.3,4c-3.3,2.7-4.6,5.3-6,8c-7.3,20.5-50.4,81.5-63,102.1
					c-5.3,9.3-13.3,14.6-22.5,23.2c0-4-0.7-6.6,1.3-9.3c-0.7,0-1.3,0-1.3,0c-2.7,4.6-6,8.6-9.3,13.3c0-0.7-0.7-0.7-1.3-1.3
					c-4,9.3-10.6,11.9-17.9,13.9c-13.3,4.6-23.9,5.3-34.5,2c-6.6-2-15.2-2.7-20.6-7.3c-4.6-3.3-5.3-2.7-0.7-10.6
					c6.6-10.6,12.6-21.2,19.9-30.5c7.3-10.6,11.9-19.2,10.6-28.5c14.6-73.6,55.7-167.1,1.3-82.2c-6.6,10.6-13.3,22.5-22.5,32.5
					C301.1,495.3,248.7,563,240.7,612c-0.7,4-2,9.3-4.6,14.6c-4,6-7.3,6.6-10.6,4c-2-0.7-2.7-0.7-3.3-1.3c-3.3-8-9.9-9.3-18.6-10.6
					c-5.3-0.7-8.6-4-12.6-6c-0.7-0.7,0-4,0.7-5.3c12.6-22.5,17.9-43.8,23.2-65.6c2-8,2-16.6,5.3-25.2c2-9.9,18.6-49.1,21.2-59
					c2.7-10.6,5.3-21.2,8-31.8c5.3-20.6,9.9-41.1,15.9-61.7c0.7-4,2.7-8.6,2.7-13.3c0.7-15.2,6-30.5,11.9-46.4
					c2-4.6,2.7-9.9,5.3-15.2c1.3-4.6,3.3-9.9,5.3-14.6c2-4.6,4.6-6.6,8-5.3c3.3,3.3,8,6,11.3,9.3c2,2.7,1.3,6.6,2,10.6
					c-2,13.3-5.3,26.5-9.3,39.8c-15.2,73.6,41.8-10.6,49.7-22.5C358.1,297.7,366.1,289.8,372.1,281.2z M335.6,545.7
					c0.7-1.3,1.3-2.7,3.3-6c0-0.7,0-1.3,0-3.3c-1.3,2.7-3.3,4-4,4.6c0,2,0,3.3-0.7,4.6C334.9,545.7,334.9,545.7,335.6,545.7z
					 M426.4,416.4c3.3-4.6,6.6-10.6,9.9-16.6c4-9.3,9.3-18.6,19.2-26.5c2-2.7,4-6.6,4-9.9c-9.9,8.6-31.2,41.1-37.8,57.7
					C423.8,419.7,425.1,418.4,426.4,416.4z M491.4,326.9c0-2,1.3-4,2.7-5.3c9.9-9.9,13.3-21.9,21.2-33.2c-8,6.6-29.8,37.8-33.8,47.1
					C486.8,333.5,490.1,330.2,491.4,326.9z"/>
			</g>
			<g id="XMLID_8416_">
				<path id="XMLID_8417_" d="M631.9,431c-7.3-11.9-10.6-26.5-12.6-41.8c-2-11.3,1.3-21.9,7.3-32.5c0.7-1.3,2-2.7,4.6-3.3
					c5.3-4.6,11.9-8.6,19.9-13.3c6-4,13.9-4.6,21.2-3.3c5.3,0,19.9,13.3,23.2,15.9c4,3.3,8,7.3,12.6,9.9c6,5.3,9.9,11.3,13.3,19.9
					c2,5.3,3.3,9.9,6,14.6c2,6,2.7,12.6,4,19.2c0.7,6,0.7,10.6,2,15.9c0.7,0.7,0.7,0.7,0.7,2c-2-10.6,0.7,4.6,0,6.6
					c-0.7,8,1.3,15.2-0.7,22.5c-2,4,2,8.6,7.3,8.6c32.5-2,45.1,2.7,76.9-2.7c3.3-1.3,6.6-3.3,10.6-5.3c1.3-0.7,3.3-2,4.6-2.7
					c1.3,2,0.7,4.6,0,6c-2,3.3,4.6,4.6,2,7.3c-19.9,21.2-80.9,20.5-104.7,20.5c-0.7,0-1.3,0-2,0c-2,0-4,0.7-4,2s-0.7,2-1.3,3.3
					c-2,11.3-8,21.9-12.6,33.2c-3.3,8-8,13.9-12.6,19.9c-2.7,4-5.3,8.6-9.3,11.3c-1.3,0.7-2.7,2-4.6,3.3c-1.3,0.7-3.3,2-4,4
					c-5.3,6-11.3,10.6-18.6,12.6c-1.3,0-4.6,1.3-6.6,2.7c-9.3,2.7-18.6,2-27.2,0.7c-11.9-1.3-19.9-9.9-26.5-21.2
					c-2-5.3-4-11.9-6-17.9c-1.3-11.9-2-23.9-0.7-36.5c1.3-12.6,5.3-24.5,11.3-36.5c6-14.6,14.6-27.2,24.5-39.1c2-0.7,2-2,2.7-4
					C632.6,432.3,632.6,431.7,631.9,431z M710.8,404.5c-1.3-8-2.7-13.9-4.6-21.2c-2-6.6-4.6-11.9-9.3-15.9c-2.7-2.7-4.6-6-8.6-8
					c-4-3.3-7.3-6-11.9-8.6c-8-6.6-22.5,7.3-27.2,11.9c-17.9,25.2-0.7,59.7,15.9,77.6c19.2,37.8,54.4,24.5,46.4-19.9
					C712.8,415.1,712.8,409.1,710.8,404.5z M651.8,533.8c-0.7,3.3-0.7,7.3-0.7,10.6c-1.3,1.3,0,2,0.7,3.3c1.3,3.3,4,6.6,7.3,8
					c0.7,0,0.7,0,1.3-0.7c0.7-0.7,2-1.3,2.7-2c11.3-11.9,19.2-27.2,25.9-42.4c3.3-5.3,4.6-11.3,6.6-15.9
					c-15.2-6.6-22.5-0.7-31.2,10.6C657.1,515.8,655.8,521.8,651.8,533.8z"/>
			</g>
			<g id="XMLID_8413_">
				<path id="XMLID_8414_" d="M1013.8,470.1c-4,5.3-8,11.3-11.9,16.6c-4.6,6.6-8.6,13.3-11.9,20.6c0,0.7,0,2-0.7,2
					c-4.6,6.6-8.6,13.3-13.3,18.6c-7.3,8-13.9,15.2-21.2,22.5c-7.3,6.6-14.6,11.9-22.5,16.6c-4.6,2.7-28.5,15.2-33.8,15.2
					c-6,0.7-27.8-2-33.8,0c-9.3,2-29.2-6.6-37.8-9.9c-9.3-4-17.9-8.6-25.9-14.6c-12.6-9.9-19.2-23.9-21.2-43.1
					c-1.3-11.3-1.3-22.5,0-33.8c0.7-6.6,2-13.3,4-19.9c2-4.6,3.3-9.3,5.3-13.9c4.6-14.6,12.6-26.5,19.2-39.1c2-2.7,3.3-5.3,5.3-8
					c5.3-8,10.6-15.2,17.2-20.6c8-6.6,15.2-13.9,23.9-19.9c4.6-3.3,9.3-4.6,13.9-4.6c2,0,4-0.7,6-1.3c5.3-2.7,10.6-4,15.2-3.3
					c0.7,0.7,0.7,0.7,0.7,0c8-0.7,15.2,2,21.9,6.6c0.7,0,1.3,0.7,2,0.7s1.3,0,2-0.7c2-1.3,3.3-2,5.3-0.7c2,2,3.3,4,2.7,7.3
					c-1.3,3.3-0.7,6,0.7,8.6c0.7,0.7,0,2,0.7,2.7c-1.3,2-2.7,4-4,6c0.7,4,1.3,8,2.7,11.9c1.3,6,2,12.6,2,18.6c0,3.3,0,6.6-0.7,9.9
					c-2.7,11.9-6.6,23.2-11.3,33.8c-2,4.6-4.6,7.3-8.6,8c-1.3,0-2.7,0.7-4,0.7c-2,0-3.3-0.7-4-1.3c-3.3-3.3-8-5.3-11.9-7.3
					c-0.7-0.7-1.3-0.7-2-1.3c-2-1.3-3.3-3.3-2.7-6.6c0.7-3.3,1.3-6.6,2-9.3c4-13.3,7.3-25.9,12.6-38.4c0-0.7,0-2,0.7-4
					c-1.3,1.3-2,1.3-2.7,2c-4,8.6-10.6,15.2-15.9,22.5c-5.3,7.3-9.9,15.2-13.9,23.9c-5.3,11.3-10.6,21.9-15.9,33.1
					c-5.3,9.9-8.6,21.2-11.9,32.5c-1.3,3.3-1.3,6.6-2,10.6c-0.7,4.6,0,9.3,2,13.9c2,4,4,8.6,6,13.3c1.3,2.7,3.3,5.3,5.3,8
					c3.3,4,19.9-2.7,24.5-3.3c14.6-2,45.7-15.2,58.3-26.5c9.9-8.6,28.5-21.9,37.1-31.8c3.3-4,6.6-8,9.9-11.9
					c6-8,24.5-21.2,30.5-29.8c3.3-4.6,13.9-10.6,17.2-15.2c2-2.7,0,9.3,3.3,7.3C1027.1,449.6,1017.8,465.5,1013.8,470.1z"/>
			</g>
			<g id="XMLID_8408_">
				<path id="XMLID_8409_" d="M1114.6,564.2c3.3,6.6,7.3,13.3,11.3,18.6c2.7,5.3,6.6,8,11.3,8c8,2,14.6,0.7,21.2-2
					c6.6-2,30.5-21.2,37.8-24.5c2.7-1.3,29.8-30.5,33.1-32.5c10.6-11.3,18.6-25.2,27.2-39.1c6.6-10.6,11.9-22.5,18.6-33.1
					c1.3-2.7,2.7-5.3,4-8.6c0.7-3.3,1.3-5.3,2-8c3.3,9.3,11.9,2,9.3,8.6c-1.3,3.3-2,6.6-2,8.6c-0.7,6.6-10.6,19.9-12.6,24.5
					c-3.3,9.3-6,17.9-11.3,26.5v1.3c-4,8-9.9,16.6-13.9,25.2c-4.6,5.3-35.8,39.8-41.1,44.4c-4.6,4-8,5.3-11.3,6.6
					c-9.9,5.3-35.8,26.5-45.7,29.2c-6.6,1.3-13.9,3.3-20.5,3.3c-10.6,0.7-21.2-3.3-28.5-10.6c-3.3-4-7.3-8.6-10.6-13.3
					c-7.3-12.6-16.6-26.5-23.2-41.1c-6-7.3-8-13.3-13.9-4.6c-1.3,2-1.3,6-2.7,8c-2.7,4-4.6,8-6.6,11.9c-1.3,4.6-4,9.3-6,12.6
					c-2.7,2.7-4.6,4-8,3.3c-2.7,0-6.6,0-9.9,3.3c-13.9,6-19.2,6-29.2-2.7c-12.6-8-17.2-21.9-19.9-36.5c-0.7-1.3-0.7-2-0.7-4
					c2-9.9,0-20.5-0.7-31.2c-1.3-13.3,0-26.5,0.7-39.8c0.7-6,2-11.3,2-17.2c0.7-18.6,6-36.5,10.6-54.4c3.3-10.6,6.6-21.9,10.6-31.8
					c6-18.6,13.9-37.1,21.9-55.7c4.6-8,7.3-16.6,11.9-23.9c11.3-24.5,25.9-48.4,39.1-70.3c9.9-13.9,19.2-27.2,30.5-37.8
					c4.6-4,9.3-8.6,14.6-12.6c4.6-4,10.6-4,16.6-4.6c0.7,0,2,2,3.3,2.7c3.3,7.3,11.3,11.9,17.9,17.2c11.3,8.6,21.2,19.2,30.5,33.8
					c4,5.3,6.6,13.9,6.6,21.9c0,1.3,0,4,0,6c-0.7,3.3-4.6,6-6.6,6c-1.3-1.3-3.3-2-4.6-2.7c-1.3-2-4-3.3-5.3-5.3
					c-6.6-5.3-11.9-4.6-19.2,2.7c-6,5.3-11.9,12.6-18.6,18.6c-0.7,2.7-2.7,4.6-4,6.6c-6.6,10.6-13.9,19.9-20.6,29.2
					c0,1.3-1.3,3.3-2,4.6c-2.7,6.6-5.3,13.3-9.9,20.6c-4.6,9.3-9.9,18.6-14.6,29.2c-2.7,4.6-4.6,8.6-7.3,13.9
					c-5.3,12.6-11.9,25.9-17.2,39.1c-7.3,15.9-13.9,32.5-18.6,49.1c-0.7,4-2,6.6-2.7,9.9c-2,8.6-3.3,17.9-6,25.2
					c-2.7,21.2,3.3,20.6,8,13.3c9.9-15.2,17.2-33.1,28.5-48.4c11.3-15.9,23.9-31.8,37.8-45.1c14.6-11.3,27.8-15.2,43.1-12.6
					c3.3,0,6,2,8,6c0.7,2,1.3,2.7,2.7,4.6c5.3,7.3,7.3,15.2,7.3,24.5c0,15.9-2,31.8-7.3,48.4c-0.7,2.7-0.7,4-1.3,6.6
					c-3.3,8.6-6.6,15.9-12.6,23.9c-4,3.3-6.6,7.3-9.9,9.9c-4.6,6-9.9,9.9-15.2,11.9c-2.7,0.7-6,2-8.6,3.3c-2,0-2,2.7-4,3.3
					C1108.6,554.3,1111.9,559.6,1114.6,564.2z M974.7,502.6c0,0.7,0,0.7,0,2c0,4,0,8,0,11.9C976,508.6,976,507.9,974.7,502.6z
					 M1095.3,461.5c-2.7,6.6-4.6,12.6-8,17.2c-2.7,6.6-6.6,11.3-8.6,17.2c-7.3,10.6,13.3,4,17.2,0c15.9-11.9,27.2-30.5,35.8-51
					c10.6-34.5-2-31.2-18.6-9.9C1106,442.9,1099.3,452.2,1095.3,461.5z"/>
			</g>
			<g id="XMLID_8405_">
				<path id="XMLID_8406_" d="M1316.8,521.8c-11.3,6-25.9,5.3-33.1,7.3c-6,0-21.2-3.3-25.9-6c-16.6-9.9-17.2-14.6-20.6-36.5
					c-2-5.3-0.7-17.2,3.3-27.8c3.3-15.2,39.1-70.3,45.1-84.2c3.3-7.3,6.6-14.6,11.9-22.5c2-4.6,5.3-6,8.6-8c4.6-2,9.3-2,12.6-5.3
					c9.9-5.3,2.7-9.9,9.3-10.6c6.6,0,11.3,2.7,14.6,7.3c2.7,0.7,2.7,4,5.3,6.6c2,1.3,1.3,4,1.3,6.6c-4,16.6-18.6,47.7-22.5,63.6
					c-3.3,4.6-4.6,23.2-6,27.2c-1.3,6.6-2.7,12.6-6,19.2c-1.3,5.3-4.6,15.2-1.3,17.9c2.7,3.3,4,14.6,8,13.3
					c15.9-8.6,37.1-9.3,45.7-19.9c5.3-7.3,8.6-4,13.9-10.6c4.6-4.6,6-8.6,8-11.9c4-8.6,4.6-6,8-13.3c4-8.6,9.9-16.6,15.2-23.9
					c2-6,4.6-9.9,8.6-15.2c6.6-2,6-1.3,8.6-0.7c9.9-0.7,1.3,0,7.3,3.3c1.3,2.7,0,5.3,2,6.6c-4.6,12.6-5.3,25.9-11.3,40.4
					c-2,4.6-0.7,0-4.6,6c0.7,4-2,9.9-4.6,15.2c-2.7,6-2,13.3-6,18.6c-5.3,22.5-8,34.5-8,37.1c-2,8.6,21.2,14.6,44.4,7.3
					c15.2-6.6,42.4-32.5,55-53c4.6-8,8.6-15.9,15.9-26.5c6.6-11.9,11.9,8,9.3,12.6c-2,3.3-3.3,6-4,8c-5.3,4-11.3,25.2-15.9,29.2
					c-1.3,1.3-0.7,3.3-4,4.6c-8.6,11.3-25.9,29.8-39.1,40.4c-6,1.3-6.6,3.3-12.6,6c-4.6,4.6-6,5.3-11.9,8.6c-4.6,2-5.3,2.7-7.3,4.6
					c-5.3-1.3-6.6,0.7-8.6,2c-12.6,7.3-66.3,9.9-70.3-12.6c-3.3-20.6-6.6-31.8-0.7-54.4c0-2,0-2,0-2.7
					C1345.3,505.2,1328,514.5,1316.8,521.8z"/>
			</g>
			<g id="XMLID_8401_">
				<path id="XMLID_8402_" d="M1683.4,472.1c0.7,16.6,6,10.6,30.5,6.6c8-1.3,19.9-4.6,31.8-16.6c6-6,13.3,1.3,16.6,4.6
					c0,2.7-8.6,15.9-9.9,17.2c-27.8,16.6-42.4,16.6-63,19.2c-16.6,4-17.9,12.6-23.9,25.9l-2.7,5.3c-2,8-6.6,13.9-9.9,19.9
					c-1.3,1.3-2.7,3.3-4,4l-6.6,8c-2.7,4.6-6.6,9.9-11.3,13.3l-4.6,5.3l-6.6,6c-2,0.7-4,0.7-6,0c-2-1.3-4.6-3.3-6.6-4
					c-0.7-2-0.7-4-0.7-6c-1.3-6-3.3-11.3-9.3-11.9c-2.7-1.3-4.6-4-6.6-6c-2.7-4-4.6-5.3-8-7.3c-6-4-7.3-14.6-2-23.2
					c2.7-6,6-9.3,9.9-11.9c4-3.3,8.6-6,13.3-8c8-5.3,15.2-5.3,23.9-9.3c4.6-2.7,8-7.3,10.6-14.6c4.6-17.2,9.9-42.4,11.9-60.3v-22.5
					c0-1.3,0-2.7-0.7-4c-0.7-3.3-4-4.6-6-2c-1.3,0.7-2,1.3-2.7,3.3c-4.6,7.3-9.3,14.6-12.6,22.5c-9.9,19.2-19.2,39.8-29.2,58.3
					c-7.3,13.9-13.9,26.5-19.9,41.1c-9.9,23.9-32.5,47.7-41.1,73.6c-2,4.6-3.3,9.3-7.3,11.9c-3.3,1.3-4.6,6.6-4.6,10.6
					c0,4.6-0.7,9.9-2,13.9c-1.3,2.7-2.7,5.3-4,6.6c-4,4.6-5.3,8-7.3,11.3c-6.6,16.6-11.9,33.1-13.3,51c-0.7,8-0.7,15.9-2.7,23.9
					c-0.7,6-3.3,10.6-8,12.6c-3.3,2-6,4.6-8,9.9c-0.7,0.7-2.7,3.3-3.3,3.3c-2,0-2.7,4.6-4,6.6h-0.7c-10.6,2-17.2-6-21.2-18.6
					s-5.3-26.5-6-39.8c-1.3-31.8,0.7-62.3,4.6-94.1c1.3-12.6,4-25.9,6-37.8c2.7-20.6,7.3-41.1,12.6-60.3
					c7.3-29.2,15.2-57.7,23.9-85.5c2-6.6,4.6-12.6,6.6-20.6c8-19.9,14.6-41.1,22.5-61.7c3.3-9.9,8.6-21.2,13.3-31.2
					c3.3-2.7,6.6-2.7,9.9,0l15.9,9.9l0.7,0.7c9.9,11.9,15.9,26.5,17.9,46.4c1.3,9.9,0.7,21.2-2,32.5c-4,15.9-8.6,33.2-14.6,49.7
					c-4,10.6-8,23.9-11.9,35.8c-10.6,37.1,10.6,32.5,15.2,21.2c2-5.3,11.9-18.6,13.9-25.2l21.9-45.1c3.3-8.6,6.6-14.6,11.9-21.2
					c4.6-5.3,9.3-11.9,14.6-17.2c4-4,9.9-7.3,14.6-7.3h11.3c6-1.3,11.3,4,16.6,8.6c3.3,2,6,7.3,6.6,12.6c0.7,5.3,2,11.3,2,15.9
					l2.7,19.2L1683.4,472.1z M1605.8,524.5c-4,2-6.6,6.6-6.6,14.6c0.7,3.3,2.7,6,4.6,6c1.3-1.3,3.3-1.3,4.6-2.7c3.3-2,6.6-4.6,8.6-8
					c7.3-9.9,9.9-20.6,8-16.6C1617.7,521.2,1611.8,519.8,1605.8,524.5z"/>
			</g>
		</g>
	</g>
</g>
</svg>
