<?xml version="1.0" encoding="utf-8"?>
<!-- Generator: Adobe Illustrator 22.0.1, SVG Export Plug-In . SVG Version: 6.00 Build 0)  -->
<svg version="1.1" id="Layer_1" xmlns="http://www.w3.org/2000/svg" xmlns:xlink="http://www.w3.org/1999/xlink" x="0px" y="0px"
	 viewBox="0 0 1920 1080" style="enable-background:new 0 0 1920 1080;" xml:space="preserve">
<style type="text/css">
	.st0{fill:#C3D8CC;}
</style>
<g id="object">
	<g id="XMLID_3937_">
		<g id="XMLID_4143_">
			<g id="XMLID_4191_">
				<path id="XMLID_4194_" class="st0" d="M1618.1,415c-0.8-2.5-1.6-5.1-2.5-7.6l-3.3-7.3c-2.1-7.3-5.8-15.2-9.3-23.5
					c-4.3-7.8-8.7-16.1-13.9-22.8c-10.1-13.8-21.5-23.4-26.2-25.7c-11.9-7.2-24.2-12.3-36.3-16.7c-12.1-3.8-24.2-7-35.9-9
					c-23.6-4.4-46.1-5.7-67.7-6.5c-21.8-0.7-41.9-0.3-61.4-0.2c-19.6,0.2-38.5,0.7-56.6,1.9c-71.9,2.9-143.1,3.2-212,4.9
					c-36.7,0.8-72.6,2.2-107.7,4.4l-6-4.1c-11.4,2.2-22.6,3.8-25,6.3c-5.6,0.4-11.3,0.9-16.9,1.4c-17.2-1.8-31.6-1-42.5,4.2
					c-12.9-2-4.5-3.6-11.9-5.4c-19.5,1.4-40.7,1.8-62.4,1.4c-6.5-1.6-16-2.9-35.7-3l-0.5,1.7c-65.9-3.5-130.8-13.2-164.6-23.5
					c-35.6,13.1-80.4,2.7-121.5,8.6c-24.3,2.2-50.9,5.9-76.2,9c-12.7,1.6-24.6,2.6-37.6,4.1c-12.7,1.7-24.7,3.9-35.9,6.4
					c-13.2,3.3-26,9.5-36.8,17.6c-10.9,8-19.6,17.7-26.6,27.4c-13.6,19.7-21,39.1-26.6,57.7c-4.3,14.3-6.9,28.6-7.9,42.7
					c-0.3,1.6-0.7,3.1-1,4.7c0.1,2.5,0.4,5,0.6,7.4c-0.1,19.1,2.9,37.5,9.2,54.2c3,8.7,8.7,16,14.3,22.3c1.9,2.1,3.9,4.1,5.9,6.1
					c13.4,21.3,32.3,44.1,32.3,53.9c38.8,29.8,92,29.7,140.8,28.3c74.3-2.1,148.6-4.2,222.9-6.3c6.8,0.7,13.6,1.8,19.9,4l1.2-4.6
					c29.1-0.8,58.1-1.6,87.2-2.5c61,6.3,146.8,3.6,219.8,3.7c15.7-0.2,25.9-8.9,41.6-9.1c7.5,1.6,14.9,3.2,22.3,4.8
					c15.8-0.2,39.9-2.3,47.4-0.7c29.8,6.3,72.9,6.5,117.3,5.7c44.5-1,89.8-2.4,125.5-1.5c23.8,0.6,48.4-1.7,74-6.1
					c25.6-4.8,52.5-11.5,80.5-22.8c6.1-1.9,12.4-4.9,19-8.2c3.3-1.5,6.7-3.9,10.1-6c3.5-2.1,7-4.4,10.2-7.1
					c13.6-10.1,26.1-23.5,36.8-38.8c10.7-15.3,19.5-32.8,25.6-51.5c5.9-18.8,8.9-38.9,8.1-58.9
					C1621.3,425.3,1619.8,420.1,1618.1,415z"/>
			</g>
			<g id="XMLID_4185_">
				<path id="XMLID_4188_" class="st0" d="M987.5,649.7c-3.4,0-6.9-0.1-10.1-0.2C981.6,649.7,984.9,649.8,987.5,649.7z"/>
			</g>
			<g id="XMLID_4181_">
				<path id="XMLID_4182_" class="st0" d="M982.8,640.7c-0.6,2.4,28,8.8,4.7,9.1c13.1,0.2,24.8,0.4,13.7,4.9
					c25.2-0.4,1.8-6.8,18.4-10.4C1006,648.5,995.1,641.9,982.8,640.7z"/>
			</g>
			<g id="XMLID_4177_">
				<path id="XMLID_4178_" class="st0" d="M1079,645.3c-12.6,0.2-23.8-5.1-34.5-0.2C1056.7,646.4,1072,648.2,1079,645.3z"/>
			</g>
			<g id="XMLID_4168_">
				<polygon id="XMLID_4172_" class="st0" points="1049.6,662.1 1056.2,660.6 1038.7,655.5 				"/>
			</g>
			<g id="XMLID_4162_">
				<path id="XMLID_4165_" class="st0" d="M1119.6,655.1c4.8,0.8,8.5,2,9.4,3.7l-44.5,2l40.1,2.8
					C1148.8,659,1136.9,657,1119.6,655.1z"/>
			</g>
			<g id="XMLID_4160_">
				<path id="XMLID_4161_" class="st0" d="M1068,651.6c-0.4,1.6,19.6,1,36.9,2c-11.6-1.2-22-2.7-23.6-4.9L1068,651.6z"/>
			</g>
			<g id="XMLID_4154_">
				<path id="XMLID_4157_" class="st0" d="M1119.6,655.1c-4.2-0.7-9.2-1.2-14.7-1.5C1109.8,654.1,1114.8,654.6,1119.6,655.1z"/>
			</g>
			<g id="XMLID_4150_">
				<path id="XMLID_4151_" class="st0" d="M1161.7,665.8l6.3-0.1l1.7-6.8C1156.8,660.5,1162,664.5,1161.7,665.8z"/>
			</g>
			<g id="XMLID_4148_">
				<path id="XMLID_4149_" class="st0" d="M1210.7,670.5c18.5,1.1,5.3,4,4.6,6.7c11.6,3.9,34.9-1.2,44.5-2
					C1245.2,670.7,1229.3,671.6,1210.7,670.5z"/>
			</g>
			<g id="XMLID_4146_">
				<path id="XMLID_4147_" class="st0" d="M1269.9,684.6l-37.8,0.6C1239.6,692.5,1254,685.5,1269.9,684.6z"/>
			</g>
			<g id="XMLID_4144_">
				<path id="XMLID_4145_" class="st0" d="M1310.3,674.4l21,5.7c3.5-0.8,0.7-2.7,7.7-4.3C1333.1,673.4,1319.7,675,1310.3,674.4z"/>
			</g>
		</g>
		<g id="XMLID_4009_">
			<g id="XMLID_4131_">
				<path id="XMLID_4135_" d="M759.2,746.2h20c5.1,0,9,1.2,11.9,3.7c2.9,2.4,4.4,5.6,4.4,9.3c0,5.5-3.2,9.2-9.6,11.1
					c3.3,0.5,5.9,1.9,7.8,4.2c2,2.3,2.9,5,2.9,8.1c0,3.9-1.5,7-4.4,9.4s-6.9,3.6-11.9,3.6h-21.1L759.2,746.2L759.2,746.2z
					 M769.1,753.9v12.8h9c2.2,0,4-0.6,5.3-1.7c1.3-1.1,2-2.7,2-4.7s-0.6-3.6-2-4.7c-1.3-1.1-3.1-1.7-5.3-1.7L769.1,753.9
					L769.1,753.9z M769.1,788h10c2.2,0,4-0.6,5.3-1.8s2-2.9,2-5s-0.7-3.8-2.1-5c-1.4-1.2-3.2-1.8-5.4-1.8h-10V788H769.1z"/>
			</g>
			<g id="XMLID_4121_">
				<path id="XMLID_4124_" d="M882.7,795.6l-3.2-9.3h-19.2l-3.2,9.3h-10.5l17.5-49.5h11.8l17.4,49.5H882.7z M862.9,778.7H877
					l-7.1-20.6L862.9,778.7z"/>
			</g>
			<g id="XMLID_4109_">
				<path id="XMLID_4112_" d="M955.4,775.9v19.7h-10v-49.3h18.2c5.7,0,10.1,1.4,13.2,4.3c3.1,2.9,4.6,6.4,4.6,10.6
					c0,3.1-0.9,6-2.8,8.7c-1.9,2.7-4.9,4.5-8.9,5.5l12.6,20.3h-11.8L958.7,776L955.4,775.9L955.4,775.9z M955.4,753.9v14.4h8.2
					c2.5,0,4.4-0.6,5.7-1.9c1.3-1.3,2-3.1,2-5.3s-0.7-4-2-5.3s-3.2-1.9-5.7-1.9H955.4z"/>
			</g>
			<g id="XMLID_4099_">
				<path id="XMLID_4102_" d="M1049,796.1c-4.3,0-7.9-1.5-10.9-4.4s-4.5-6.5-4.5-10.6c0-4.2,1.2-7.6,3.5-10.4
					c2.4-2.8,5.2-4.4,8.6-4.9c-2.8-4.1-4.2-7.6-4.2-10.6s1.2-5.8,3.7-8.2c2.4-2.4,5.8-3.6,10.1-3.6c4.3,0,7.7,1.1,10.2,3.4
					c2.5,2.3,3.7,4.9,3.7,8c0,1.6-0.3,2.9-0.8,4h-9.5c0.4-0.8,0.6-1.7,0.6-2.9s-0.4-2.1-1.2-2.9c-0.8-0.8-1.8-1.2-3-1.2
					s-2.2,0.4-3,1.2s-1.1,1.8-1.1,3.1s0.7,2.9,2.1,4.8l26.1,34.8h-11.6l-5.4-7.5c-1.2,2.4-3.1,4.3-5.5,5.8
					C1054.6,795.4,1051.9,796.1,1049,796.1z M1044.1,785.8c1.4,1.4,3,2.2,4.9,2.2s3.6-0.7,5-2.2c1.4-1.4,2.1-3.2,2.1-5.2
					s-0.7-3.7-2.1-5.1c-1.4-1.4-3.1-2.1-5-2.1s-3.6,0.7-4.9,2.1c-1.4,1.4-2.1,3.1-2.1,5.1C1042.1,782.6,1042.8,784.4,1044.1,785.8z"
					/>
			</g>
			<g id="XMLID_4087_">
				<path id="XMLID_4090_" d="M498.6,891.3V911h-10v-49.3h18.2c5.7,0,10.1,1.4,13.2,4.3c3.1,2.9,4.6,6.4,4.6,10.6
					c0,3.1-0.9,6-2.8,8.7c-1.9,2.7-4.9,4.5-8.9,5.5l12.6,20.3h-11.8l-11.8-19.7L498.6,891.3L498.6,891.3z M498.6,869.2v14.4h8.2
					c2.5,0,4.4-0.6,5.7-1.9c1.3-1.3,2-3.1,2-5.3s-0.7-4-2-5.3s-3.2-1.9-5.7-1.9H498.6z"/>
			</g>
			<g id="XMLID_4080_">
				<path id="XMLID_4083_" d="M608.3,861.5v7.6h-18.5V882h16.4v7.6h-16.4v13.6h18.5v7.6h-28.5v-49.5h28.5V861.5z"/>
			</g>
			<g id="XMLID_4072_">
				<path id="XMLID_4076_" d="M679.7,868.9c-2,0-3.6,0.5-4.8,1.5s-1.9,2.4-1.9,4.2s0.5,3.2,1.4,4.2s2.1,1.8,3.6,2.3s3.2,1,5,1.4
					s3.6,0.9,5.4,1.6c1.8,0.6,3.4,1.4,4.9,2.3c1.5,0.9,2.7,2.2,3.6,3.9c0.9,1.7,1.4,3.8,1.4,6.3c0,4.1-1.6,7.5-4.8,10.5
					c-3.2,2.9-7.5,4.4-12.9,4.4s-9.7-1.3-13-3.8s-4.9-6.1-4.9-10.6h10.6c0.4,4.3,2.8,6.5,7.4,6.5c2.3,0,4.1-0.6,5.4-1.8
					c1.3-1.2,2-2.7,2-4.7s-0.9-3.5-2.6-4.6c-1.7-1.1-3.8-2-6.3-2.5c-2.5-0.6-5-1.2-7.5-2.1c-2.5-0.8-4.6-2.2-6.4-4.2
					c-1.7-2-2.6-4.7-2.6-8c0-4.5,1.6-8.1,4.9-10.7c3.2-2.7,7.4-4,12.5-4s9.2,1.2,12.3,3.5s4.8,5.9,5.1,10.6h-10.9
					c-0.2-1.9-0.9-3.4-2.1-4.5C683.3,869.4,681.7,868.9,679.7,868.9z"/>
			</g>
			<g id="XMLID_4063_">
				<path id="XMLID_4066_" d="M750.2,869.2v-7.6h36.6v7.6h-13.4v41.7h-9.9v-41.7H750.2z"/>
			</g>
			<g id="XMLID_4053_">
				<path id="XMLID_4054_" d="M872,910.9l-3.2-9.3h-19.2l-3.2,9.3h-10.5l17.5-49.5h11.8l17.4,49.5H872z M852.2,894h14.1l-7.1-20.6
					L852.2,894z"/>
			</g>
			<g id="XMLID_4046_">
				<path id="XMLID_4047_" d="M934.6,892v-30.4h10V892c0,3.4,0.9,6,2.6,7.7c1.7,1.7,4.2,2.6,7.4,2.6s5.7-0.9,7.4-2.6
					c1.7-1.7,2.6-4.3,2.6-7.7v-30.4h9.9V892c0,6.2-2,11-5.9,14.4s-8.7,5.1-14.3,5.1s-10.3-1.7-14.1-5
					C936.5,903.1,934.6,898.3,934.6,892z"/>
			</g>
			<g id="XMLID_4037_">
				<path id="XMLID_4040_" d="M1040.1,891.3V911h-10v-49.3h18.2c5.7,0,10.1,1.4,13.2,4.3c3.1,2.9,4.6,6.4,4.6,10.6
					c0,3.1-0.9,6-2.8,8.7s-4.9,4.5-8.9,5.5l12.6,20.3h-11.8l-11.8-19.7L1040.1,891.3L1040.1,891.3z M1040.1,869.2v14.4h8.2
					c2.5,0,4.4-0.6,5.7-1.9c1.3-1.3,2-3.1,2-5.3s-0.7-4-2-5.3s-3.2-1.9-5.7-1.9H1040.1z"/>
			</g>
			<g id="XMLID_4025_">
				<path id="XMLID_4028_" d="M1153.6,910.9l-3.2-9.3h-19.2l-3.2,9.3h-10.5l17.5-49.5h11.8l17.4,49.5H1153.6z M1133.8,894h14.1
					l-7.1-20.6L1133.8,894z"/>
			</g>
			<g id="XMLID_4018_">
				<path id="XMLID_4021_" d="M1248.6,861.5h10V911h-10l-22.3-34.2V911h-10v-49.5h10l22.3,34.2V861.5z"/>
			</g>
			<g id="XMLID_4013_">
				<path id="XMLID_4014_" d="M1311.5,869.2v-7.6h36.6v7.6h-13.4v41.7h-9.9v-41.7H1311.5z"/>
			</g>
		</g>
		<g id="XMLID_3940_">
			<g id="XMLID_3995_">
				<path id="XMLID_3998_" d="M292.5,235.5c3.8-4.6,7.6-9.9,11.4-15.2c10.6-15.9,25-24.3,40.2-28.8c4.6-1.5,11.4,0.8,15.2,3
					c6.8,3,12.9,5.3,22,3c9.1-1.5,15.2,0,17.4,5.3c0,3-1.5,8.3-0.8,9.9c0.8,5.3,0.8,9.9-3.8,16.7c-1.5,0.8-0.8,2.3-0.8,3.8
					c-0.8,17.4,3.8,2.3-3.8,19.7c-3.8,8.3-4.6,15.9-7.6,22.7c-36.4,91.8,1.5,46.3,31.8,6.1c3-8.3,8.3-15.2,15.2-22
					c10.6-15.2,23.5-28.8,34.1-44.7c17.4-22.8,37.9-43.2,60.7-59.1c8.3-5.3,15.9-13.6,23.5-12.1c7.6,0.8,15.2,3.8,20.5,8.3
					c5.3,4.6,9.9,9.9,12.9,15.9c1.5,0.8,2.3,1.5,3,1.5c10.6,2.3,10.6,12.9,10.6,22.7c-0.8,2.3-2.3,4.6-2.3,6.1
					c-9.9,22-19.7,42.5-22.8,62.9c-1.5,10.6-3,22-3.8,31.8c-1.5,9.9-2.3,21.2-4.5,32.6c-1.5,9.9-1.5,19.7-9.9,29.6
					c0,0.8-0.8,1.5,0,3c5.3,4.6-2.3,9.9-4.6,15.2c-0.8,2.3-2.3,5.3-0.8,7.6c2.3,8.3,1.5,15.9-5.3,25.8c0,0.8-0.8,2.3-0.8,4.6
					c-2.3,6.8-3.8,12.9-5.3,19c0.8,0,0.8-0.8,3.8-2.3c-2.3,10.6-15.2,19.7-11.4,29.6c5.3,0,4.5,5.3,3,12.1
					c-3.8,15.2-5.3,29.6-12.1,45.5c0.8,0.8,0,1.5,0.8,2.3c3.8,7.6-5.3,18.2-3,28.1c0.8,6.1-3.8,13.6,0,21.2c0,3.8-3,9.9-8.3,15.2
					c-1.5,3-5.3,5.3-8.3,8.3c-4.6,10.6-5.3,11.4-15.2,12.1c-2.3,0-4.6,0.8-9.1,1.5c-5.3,0.8-9.1,0.8-11.4-3c-0.8-1.5-3-2.3-6.1-3
					c-9.9-2.3-12.9-11.4-8.3-21.2c7.6-27.3,10.6-51.6,14.4-77.3c2.3-6.1,3.8-13.6,5.3-19.7c3-9.1,5.3-19.7,9.9-30.3
					c0,3-1.5,6.8-1.5,10.6c2.3-1.5,2.3-1.5,3-1.5c1.5-5.3,3.8-10.6,4.6-16.7c2.3-13.6,9.1-28.1,7.6-40.9c-0.8-0.8-0.8-2.3,0-3
					c7.6-7.6,0.8-15.2,6.8-22.7c2.3-2.3,1.5-5.3,2.3-6.8c-1.5-8.3,1.5-16.7,6.8-25c0-1.5,0-3,0-3.8c0,0,0,0-0.8-0.8
					c-5.3,11.4-9.9,22.8-14.4,34.1c-0.8,0-1.5,0-2.3,0c11.4-66.7,14.4-75.1-37.2-3c-0.8-0.8-1.5-1.5-1.5-2.3c-1.5,0-2.3,0.8-2.3,0.8
					c0,2.3-1.5,4.5-2.3,6.8c-3.8,9.9-7.6,13.6-17.4,19.7c-2.3,0.8-3.8,3-3.8,4.6c-3.8,3-5.3,6.1-6.8,9.1
					c-8.3,23.5-57.6,93.3-72,116.8c-6.1,10.6-15.2,16.7-25.8,26.5c0-4.6-0.8-7.6,1.5-10.6c-0.8,0-1.5,0-1.5,0
					c-3,5.3-6.8,9.9-10.6,15.2c0-0.8-0.8-0.8-1.5-1.5c-4.5,10.6-12.1,13.6-20.5,15.9c-15.2,5.3-27.3,6.1-39.4,2.3
					c-7.6-2.3-17.4-3-23.5-8.3c-5.3-3.8-6.1-3-0.8-12.1c7.6-12.1,14.4-24.3,22.7-34.9c8.3-12.1,13.6-22,12.1-32.6
					c16.7-84.2,63.7-191.1,1.5-94c-7.6,12.1-15.2,25.8-25.8,37.2C211,480.9,151.1,558.3,142,614.4c-0.8,4.5-2.3,10.6-5.3,16.7
					c-4.6,6.8-8.3,7.6-12.1,4.6c-2.3-0.8-3-0.8-3.8-1.5c-3.8-9.1-11.4-10.6-21.2-12.1c-6.1-0.8-9.9-4.6-14.4-6.8
					c-0.8-0.8,0-4.5,0.8-6.1c14.4-25.8,20.5-50,26.5-75.1c2.3-9.1,2.3-19,6.1-28.8c2.3-11.4,21.2-56.1,24.3-67.5
					c3-12.1,6.1-24.3,9.1-36.4c6.1-23.5,11.4-47,18.2-70.5c0.8-4.6,3-9.9,3-15.2c0.8-17.4,6.8-34.9,13.6-53.1
					c2.3-5.3,3-11.4,6.1-17.4c1.5-5.3,3.8-11.4,6.1-16.7s5.3-7.6,9.1-6.1c3.8,3.8,9.1,6.8,12.9,10.6c2.3,3,1.5,7.6,2.3,12.1
					c-2.3,15.2-6.1,30.3-10.6,45.5c-17.4,84.2,47.8-12.1,56.9-25.8C276.6,254.4,285.7,245.3,292.5,235.5z M250.8,538
					c0.8-1.5,1.5-3,3.8-6.8c0-0.8,0-1.5,0-3.8c-1.5,3-3.8,4.5-4.6,5.3c0,2.3,0,3.8-0.8,5.3C250,538,250,538,250.8,538z M354.7,390.2
					c3.8-5.3,7.6-12.1,11.4-19c4.6-10.6,10.6-21.2,22-30.3c2.3-3,4.5-7.6,4.5-11.4c-11.4,9.9-35.6,47-43.2,66
					C351.6,393.9,353.2,392.4,354.7,390.2z M429,287.8c0-2.3,1.5-4.6,3-6.1c11.4-11.4,15.2-25,24.3-37.9
					c-9.1,7.6-34.1,43.2-38.7,53.8C423.7,295.4,427.5,291.6,429,287.8z"/>
			</g>
			<g id="XMLID_3984_">
				<path id="XMLID_3987_" d="M589.8,406.8c-8.3-13.6-12.1-30.3-14.4-47.8c-2.3-12.9,1.5-25,8.3-37.2c0.8-1.5,2.3-3,5.3-3.8
					c6.1-5.3,13.6-9.9,22.8-15.2c6.8-4.5,15.9-5.3,24.3-3.8c6.1,0,22.7,15.2,26.5,18.2c4.6,3.8,9.1,8.3,14.4,11.4
					c6.8,6.1,11.4,12.9,15.2,22.7c2.3,6.1,3.8,11.4,6.8,16.7c2.3,6.8,3,14.4,4.5,22c0.8,6.8,0.8,12.1,2.3,18.2
					c0.8,0.8,0.8,0.8,0.8,2.3c-2.3-12.1,0.8,5.3,0,7.6c-0.8,9.1,1.5,17.4-0.8,25.8c-2.3,4.5,2.3,9.9,8.3,9.9c37.2-2.3,51.6,3,88-3
					c3.8-1.5,7.6-3.8,12.1-6.1c1.5-0.8,3.8-2.3,5.3-3c1.5,2.3,0.8,5.3,0,6.8c-2.3,3.8,5.3,5.3,2.3,8.3
					c-22.7,24.3-92.5,23.5-119.8,23.5c-0.8,0-1.5,0-2.3,0c-2.3,0-4.5,0.8-4.5,2.3s-0.8,2.3-1.5,3.8c-2.3,12.9-9.1,25-14.4,37.9
					c-3.8,9.1-9.1,15.9-14.4,22.7c-3,4.6-6.1,9.9-10.6,12.9c-1.5,0.8-3,2.3-5.3,3.8c-1.5,0.8-3.8,2.3-4.6,4.6
					c-6.1,6.8-12.9,12.1-21.2,14.4c-1.5,0-5.3,1.5-7.6,3c-10.6,3-21.2,2.3-31.1,0.8c-13.6-1.5-22.8-11.4-30.3-24.3
					c-2.3-6.1-4.5-13.6-6.8-20.5c-1.5-13.6-2.3-27.3-0.8-41.7c1.5-14.4,6.1-28.1,12.9-41.7c6.8-16.7,16.7-31.1,28.1-44.7
					c2.3-0.8,2.3-2.3,3-4.5C590.5,408.4,590.5,407.6,589.8,406.8z M680,376.5c-1.5-9.1-3-15.9-5.3-24.3c-2.3-7.6-5.3-13.6-10.6-18.2
					c-3-3-5.3-6.8-9.9-9.1c-4.6-3.8-8.3-6.8-13.7-9.9c-9.1-7.6-25.8,8.3-31.1,13.6c-20.5,28.8-0.8,68.2,18.2,88.7
					c22,43.2,62.2,28.1,53.1-22.7C682.3,388.6,682.3,381.8,680,376.5z M612.5,524.4c-0.8,3.8-0.8,8.3-0.8,12.1
					c-1.5,1.5,0,2.3,0.8,3.8c1.5,3.8,4.5,7.6,8.3,9.1c0.8,0,0.8,0,1.5-0.8c0.8-0.8,2.3-1.5,3-2.3c12.9-13.6,22-31.1,29.6-48.5
					c3.8-6.1,5.3-12.9,7.6-18.2c-17.4-7.6-25.8-0.8-35.6,12.1C618.6,503.9,617.1,510.7,612.5,524.4z"/>
			</g>
			<g id="XMLID_3975_">
				<path id="XMLID_3977_" d="M1026.5,451.6c-4.6,6.1-9.1,12.9-13.6,19c-5.3,7.6-9.9,15.2-13.7,23.5c0,0.8,0,2.3-0.8,2.3
					c-5.3,7.6-9.9,15.2-15.2,21.2c-8.3,9.1-15.9,17.4-24.3,25.8c-8.3,7.6-16.7,13.7-25.8,19c-5.3,3-32.6,17.4-38.7,17.4
					c-6.8,0.8-31.9-2.3-38.7,0c-10.6,2.3-33.4-7.6-43.2-11.4c-10.6-4.6-20.5-9.9-29.6-16.7c-14.4-11.4-22-27.3-24.3-49.3
					c-1.5-12.9-1.5-25.8,0-38.7c0.8-7.6,2.3-15.2,4.6-22.7c2.3-5.3,3.8-10.6,6.1-15.9c5.3-16.7,14.4-30.3,22-44.7
					c2.3-3,3.8-6.1,6.1-9.1c6.1-9.1,12.1-17.4,19.7-23.5c9.1-7.6,17.4-15.9,27.3-22.7c5.3-3.8,10.6-5.3,15.9-5.3
					c2.3,0,4.5-0.8,6.8-1.5c6.1-3,12.1-4.6,17.4-3.8c0.8,0.8,0.8,0.8,0.8,0c9.1-0.8,17.4,2.3,25,7.6c0.8,0,1.5,0.8,2.3,0.8
					s1.5,0,2.3-0.8c2.3-1.5,3.8-2.3,6.1-0.8c2.3,2.3,3.8,4.6,3,8.3c-1.5,3.8-0.8,6.8,0.8,9.9c0.8,0.8,0,2.3,0.8,3
					c-1.5,2.3-3,4.6-4.6,6.8c0.8,4.6,1.5,9.1,3,13.7c1.5,6.8,2.3,14.4,2.3,21.2c0,3.8,0,7.6-0.8,11.4c-3,13.7-7.6,26.5-12.9,38.7
					c-2.3,5.3-5.3,8.3-9.9,9.1c-1.5,0-3,0.8-4.5,0.8c-2.3,0-3.8-0.8-4.6-1.5c-3.8-3.8-9.1-6.1-13.6-8.3c-0.8-0.8-1.5-0.8-2.3-1.5
					c-2.3-1.5-3.8-3.8-3-7.6c0.8-3.8,1.5-7.6,2.3-10.6c4.5-15.2,8.3-29.6,14.4-44c0-0.8,0-2.3,0.8-4.6c-1.5,1.5-2.3,1.5-3,2.3
					c-4.6,9.9-12.1,17.4-18.2,25.8c-6.1,8.3-11.4,17.4-15.9,27.3c-6.1,12.9-12.1,25-18.2,37.9c-6.1,11.4-9.9,24.3-13.6,37.2
					c-1.5,3.8-1.5,7.6-2.3,12.1c-0.8,5.3,0,10.6,2.3,15.9c2.3,4.5,4.6,9.9,6.8,15.2c1.5,3,3.8,6.1,6.1,9.1c3.8,4.5,22.8-3,28.1-3.8
					c16.7-2.3,52.3-17.4,66.7-30.3c11.4-9.9,32.6-25,42.5-36.4c3.8-4.6,7.6-9.1,11.4-13.7c6.8-9.1,28.1-24.3,34.9-34.1
					c3.8-5.3,15.9-12.1,19.7-17.4c2.3-3,0,10.6,3.8,8.3C1041.7,428.1,1031.1,446.3,1026.5,451.6z"/>
			</g>
			<g id="XMLID_3961_">
				<path id="XMLID_3964_" d="M1141.8,559.3c3.8,7.6,8.3,15.2,12.9,21.2c3,6.1,7.6,9.1,12.9,9.1c9.1,2.3,16.7,0.8,24.3-2.3
					c7.6-2.3,34.9-24.3,43.2-28.1c3-1.5,34.1-34.9,37.9-37.2c12.1-12.9,21.2-28.8,31.1-44.7c7.6-12.1,13.6-25.8,21.2-37.9
					c1.5-3,3-6.1,4.6-9.9c0.8-3.8,1.5-6.1,2.3-9.1c3.8,10.6,13.6,2.3,10.6,9.9c-1.5,3.8-2.3,7.6-2.3,9.9
					c-0.8,7.6-12.1,22.7-14.4,28.1c-3.8,10.6-6.8,20.5-12.9,30.3v1.5c-4.5,9.1-11.4,19-15.9,28.8c-5.3,6.1-40.9,45.5-47,50.8
					c-5.3,4.5-9.1,6.1-12.9,7.6c-11.4,6.1-40.9,30.3-52.3,33.4c-7.6,1.5-15.9,3.8-23.5,3.8c-12.1,0.8-24.3-3.8-32.6-12.1
					c-3.8-4.6-8.3-9.9-12.1-15.2c-8.3-14.4-19-30.3-26.5-47c-6.8-8.3-9.1-15.2-15.9-5.3c-1.5,2.3-1.5,6.8-3,9.1
					c-3,4.6-5.3,9.1-7.6,13.6c-1.5,5.3-4.5,10.6-6.8,14.4c-3,3-5.3,4.6-9.1,3.8c-3,0-7.6,0-11.4,3.8c-15.9,6.8-22,6.8-33.4-3
					c-14.4-9.1-19.7-25-22.7-41.7c-0.8-1.5-0.8-2.3-0.8-4.6c2.3-11.4,0-23.5-0.8-35.6c-1.5-15.2,0-30.3,0.8-45.5
					c0.8-6.8,2.3-12.9,2.3-19.7c0.8-21.2,6.8-41.7,12.1-62.2c3.8-12.1,7.6-25,12.1-36.4c6.8-21.2,15.9-42.5,25-63.7
					c5.3-9.1,8.3-19,13.6-27.3c12.9-28.1,29.6-55.4,44.7-80.4c11.4-15.9,22-31.1,34.9-43.2c5.3-4.5,10.6-9.9,16.7-14.4
					c5.3-4.6,12.1-4.6,19-5.3c0.8,0,2.3,2.3,3.8,3c3.8,8.3,12.9,13.6,20.5,19.7c12.9,9.9,24.3,22,34.9,38.7c4.5,6.1,7.6,15.9,7.6,25
					c0,1.5,0,4.6,0,6.8c-0.8,3.8-5.3,6.8-7.6,6.8c-1.5-1.5-3.8-2.3-5.3-3c-1.5-2.3-4.6-3.8-6.1-6.1c-7.6-6.1-13.6-5.3-22,3
					c-6.8,6.1-13.6,14.4-21.2,21.2c-0.8,3-3,5.3-4.5,7.6c-7.6,12.1-15.9,22.7-23.5,33.4c0,1.5-1.5,3.8-2.3,5.3
					c-3,7.6-6.1,15.2-11.4,23.5c-5.3,10.6-11.4,21.2-16.7,33.4c-3,5.3-5.3,9.9-8.3,15.9c-6.1,14.4-13.6,29.6-19.7,44.7
					c-8.3,18.2-15.9,37.2-21.2,56.1c-0.8,4.6-2.3,7.6-3,11.4c-2.3,9.9-3.8,20.5-6.8,28.8c-3,24.3,3.8,23.5,9.1,15.2
					c11.4-17.4,19.7-37.9,32.6-55.4c12.9-18.2,27.3-36.4,43.2-51.6c16.7-12.9,31.9-17.4,49.3-14.4c3.8,0,6.8,2.3,9.1,6.8
					c0.8,2.3,1.5,3,3,5.3c6.1,8.3,8.3,17.4,8.3,28.1c0,18.2-2.3,36.4-8.3,55.4c-0.8,3-0.8,4.6-1.5,7.6c-3.8,9.9-7.6,18.2-14.4,27.3
					c-4.6,3.8-7.6,8.3-11.4,11.4c-5.3,6.8-11.4,11.4-17.4,13.7c-3,0.8-6.8,2.3-9.9,3.8c-2.3,0-2.3,3-4.6,3.8
					C1135,547.9,1138.8,554,1141.8,559.3z M981.8,488.7c0,0.8,0,0.8,0,2.3c0,4.6,0,9.1,0,13.6C983.3,495.6,983.3,494.8,981.8,488.7z
					 M1119.8,441.7c-3,7.6-5.3,14.4-9.1,19.7c-3,7.6-7.6,12.9-9.9,19.7c-8.3,12.1,15.2,4.6,19.7,0c18.2-13.6,31.1-34.9,40.9-58.4
					c12.1-39.4-2.3-35.6-21.2-11.4C1131.9,420.5,1124.3,431.1,1119.8,441.7z"/>
			</g>
			<g id="XMLID_3954_">
				<path id="XMLID_3957_" d="M1373.1,510.7c-12.9,6.8-29.6,6.1-37.9,8.3c-6.8,0-24.3-3.8-29.6-6.8c-19-11.4-19.7-16.7-23.5-41.7
					c-2.3-6.1-0.8-19.7,3.8-31.9c3.8-17.4,44.7-80.4,51.6-96.3c3.8-8.3,7.6-16.7,13.6-25.8c2.3-5.3,6.1-6.8,9.9-9.1
					c5.3-2.3,10.6-2.3,14.4-6.1c11.4-6.1,3-11.4,10.6-12.1c7.6,0,12.9,3,16.7,8.3c3,0.8,3,4.6,6.1,7.6c2.3,1.5,1.5,4.5,1.5,7.6
					c-4.5,19-21.2,54.6-25.8,72.8c-3.8,5.3-5.3,26.5-6.8,31.1c-1.5,7.6-3,14.4-6.8,22c-1.5,6.1-5.3,17.4-1.5,20.5
					c3,3.8,4.6,16.7,9.1,15.2c18.2-9.9,42.5-10.6,52.3-22.7c6.1-8.3,9.9-4.6,15.9-12.1c5.3-5.3,6.8-9.9,9.1-13.6
					c4.6-9.9,5.3-6.8,9.1-15.2c4.5-9.9,11.4-19,17.4-27.3c2.3-6.8,5.3-11.4,9.9-17.4c7.6-2.3,6.8-1.5,9.9-0.8
					c11.4-0.8,1.5,0,8.3,3.8c1.5,3,0,6.1,2.3,7.6c-5.3,14.4-6.1,29.6-12.9,46.3c-2.3,5.3-0.8,0-5.3,6.8c0.8,4.6-2.3,11.4-5.3,17.4
					c-3,6.8-2.3,15.2-6.8,21.2c-6.1,25.8-9.1,39.4-9.1,42.5c-2.3,9.9,24.3,16.7,50.8,8.3c17.4-7.6,48.5-37.2,62.9-60.7
					c5.3-9.1,9.9-18.2,18.2-30.3c7.6-13.6,13.6,9.1,10.6,14.4c-2.3,3.8-3.8,6.8-4.6,9.1c-6.1,4.5-12.9,28.8-18.2,33.4
					c-1.5,1.5-0.8,3.8-4.6,5.3c-9.9,12.9-29.6,34.1-44.7,46.3c-6.8,1.5-7.6,3.8-14.4,6.8c-5.3,5.3-6.8,6.1-13.6,9.9
					c-5.3,2.3-6.1,3-8.3,5.3c-6.1-1.5-7.6,0.8-9.9,2.3c-14.4,8.3-75.8,11.4-80.4-14.4c-3.8-23.5-7.6-36.4-0.8-62.2c0-2.3,0-2.3,0-3
					C1405.7,491.8,1386,502.4,1373.1,510.7z"/>
			</g>
			<g id="XMLID_3943_">
				<path id="XMLID_3946_" d="M1792.4,453.9c0.8,19,6.8,12.1,34.9,7.6c9.1-1.5,22.7-5.3,36.4-19c6.8-6.8,15.2,1.5,19,5.3
					c0,3-9.9,18.2-11.4,19.7c-31.9,19-48.5,19-72,22c-19,4.5-20.5,14.4-27.3,29.6l-3,6.1c-2.3,9.1-7.6,15.9-11.4,22.8
					c-1.5,1.5-3,3.8-4.6,4.5l-7.6,9.1c-3,5.3-7.6,11.4-12.9,15.2l-5.3,6.1l-7.6,6.8c-2.3,0.8-4.6,0.8-6.8,0
					c-2.3-1.5-5.3-3.8-7.6-4.6c-0.8-2.3-0.8-4.6-0.8-6.8c-1.5-6.8-3.8-12.9-10.6-13.6c-3-1.5-5.3-4.6-7.6-6.8
					c-3-4.6-5.3-6.1-9.1-8.3c-6.8-4.5-8.3-16.7-2.3-26.5c3-6.8,6.8-10.6,11.4-13.6c4.6-3.8,9.9-6.8,15.2-9.1
					c9.1-6.1,17.4-6.1,27.3-10.6c5.3-3,9.1-8.3,12.1-16.7c5.3-19.7,11.4-48.5,13.6-69V378c0-1.5,0-3-0.8-4.6
					c-0.8-3.8-4.6-5.3-6.8-2.3c-1.5,0.8-2.3,1.5-3,3.8c-5.3,8.3-10.6,16.7-14.4,25.8c-11.4,22-22,45.5-33.4,66.7
					c-8.3,15.9-15.9,30.3-22.8,47c-11.4,27.3-37.2,54.6-47,84.2c-2.3,5.3-3.8,10.6-8.3,13.7c-3.8,1.5-5.3,7.6-5.3,12.1
					c0,5.3-0.8,11.4-2.3,15.9c-1.5,3-3,6.1-4.5,7.6c-4.6,5.3-6.1,9.1-8.3,12.9c-7.6,19-13.6,37.9-15.2,58.4
					c-0.8,9.1-0.8,18.2-3,27.3c-0.8,6.8-3.8,12.1-9.1,14.4c-3.8,2.3-6.8,5.3-9.1,11.4c-0.8,0.8-3,3.8-3.8,3.8c-2.3,0-3,5.3-4.6,7.6
					h-0.8c-12.1,2.3-19.7-6.8-24.3-21.2c-4.6-14.4-6.1-30.3-6.8-45.5c-1.5-36.4,0.8-71.3,5.3-107.7c1.5-14.4,4.5-29.6,6.8-43.2
					c3-23.5,8.3-47,14.4-69c8.3-33.4,17.4-66,27.3-97.8c2.3-7.6,5.3-14.4,7.6-23.5c9.1-22.7,16.7-47,25.8-70.5
					c3.8-11.4,9.9-24.3,15.2-35.6c3.8-3,7.6-3,11.4,0l18.2,11.4l0.8,0.8c11.4,13.6,18.2,30.3,20.5,53.1c1.5,11.4,0.8,24.3-2.3,37.2
					c-4.6,18.2-9.9,37.9-16.7,56.9c-4.5,12.1-9.1,27.3-13.6,40.9c-12.1,42.5,12.1,37.2,17.4,24.3c2.3-6.1,13.6-21.2,15.9-28.8
					l25-51.6c3.8-9.9,7.6-16.7,13.7-24.3c5.3-6.1,10.6-13.6,16.7-19.7c4.5-4.6,11.4-8.3,16.7-8.3h12.9c6.8-1.5,12.9,4.5,19,9.9
					c3.8,2.3,6.8,8.3,7.6,14.4c0.8,6.1,2.3,12.9,2.3,18.2l3,22L1792.4,453.9z M1703.7,513.8c-4.5,2.3-7.6,7.6-7.6,16.7
					c0.8,3.8,3,6.8,5.3,6.8c1.5-1.5,3.8-1.5,5.3-3c3.8-2.3,7.6-5.3,9.9-9.1c8.3-11.4,11.4-23.5,9.1-19
					C1717.3,510,1710.5,508.5,1703.7,513.8z"/>
			</g>
		</g>
	</g>
</g>
</svg>
