<?xml version="1.0" encoding="utf-8"?>
<!-- Generator: Adobe Illustrator 22.0.1, SVG Export Plug-In . SVG Version: 6.00 Build 0)  -->
<svg version="1.1" id="Layer_1" xmlns="http://www.w3.org/2000/svg" xmlns:xlink="http://www.w3.org/1999/xlink" x="0px" y="0px"
	 viewBox="0 0 1920 1080" style="enable-background:new 0 0 1920 1080;" xml:space="preserve">
<style type="text/css">
	.st0{fill:#C3D8CC;}
</style>
<g id="object">
	<g id="XMLID_3746_">
		<g id="XMLID_3856_">
			<g id="XMLID_3930_">
				<path id="XMLID_3931_" d="M347.2,895c-6.1-6-9.2-13.6-9.2-22.9c0-9.2,3.1-16.8,9.2-22.9c6.2-6,13.7-9,22.6-9
					c6.8,0,12.8,1.7,18.1,5.2c5.3,3.5,9,8.3,11.3,14.6h-15.1c-2.8-5.5-7.6-8.2-14.3-8.2c-5.7,0-10.3,1.9-13.8,5.6
					c-3.5,3.7-5.3,8.7-5.3,14.8c0,6.2,1.8,11.1,5.3,14.8s8.1,5.6,13.8,5.6c6.7,0,11.4-2.7,14.3-8.2h15.1c-2.3,6.3-6,11.1-11.3,14.5
					s-11.3,5.1-18.1,5.1C360.9,904,353.3,901,347.2,895z"/>
			</g>
			<g id="XMLID_3920_">
				<path id="XMLID_3923_" d="M495.7,904.1c-9,0-16.6-3-22.7-9s-9.2-13.6-9.2-22.9s3.1-16.9,9.2-22.9c6.2-6,13.7-9,22.7-9
					s16.5,3,22.6,9s9.2,13.6,9.2,22.9s-3.1,16.9-9.2,22.9C512.2,901.1,504.6,904.1,495.7,904.1z M509.4,887
					c3.5-3.7,5.3-8.7,5.3-14.9s-1.8-11.1-5.3-14.8s-8.1-5.5-13.8-5.5c-5.7,0-10.3,1.9-13.8,5.6c-3.5,3.7-5.3,8.7-5.3,14.8
					c0,6.2,1.8,11.1,5.3,14.8s8.1,5.6,13.8,5.6C501.3,892.5,505.9,890.7,509.4,887z"/>
			</g>
			<g id="XMLID_3913_">
				<path id="XMLID_3914_" d="M594.6,903.4v-62.3h38.6v9.6h-26V867H627v9.6h-19.8v26.7h-12.6V903.4z"/>
			</g>
			<g id="XMLID_3904_">
				<path id="XMLID_3905_" d="M700.2,903.4v-62.3h38.6v9.6h-26V867h19.8v9.6h-19.8v26.7h-12.6V903.4z"/>
			</g>
			<g id="XMLID_3897_">
				<path id="XMLID_3900_" d="M841.8,840.9v9.6h-23.4v16.3h20.7v9.6h-20.7v17.2h23.4v9.6h-36v-62.5h36V840.9z"/>
			</g>
			<g id="XMLID_3890_">
				<path id="XMLID_3893_" d="M947.8,840.9v9.6h-23.4v16.3h20.7v9.6h-20.7v17.2h23.4v9.6h-36v-62.5h36V840.9z"/>
			</g>
			<g id="XMLID_3880_">
				<path id="XMLID_3884_" d="M1121.9,850.3c-2.5,0-4.5,0.6-6.1,1.9c-1.6,1.3-2.4,3.1-2.4,5.3c0,2.3,0.6,4,1.7,5.3
					c1.2,1.3,2.7,2.3,4.6,2.9c1.9,0.7,4,1.3,6.3,1.8s4.5,1.2,6.8,2s4.3,1.7,6.2,2.9s3.4,2.8,4.6,5s1.7,4.8,1.7,7.9
					c0,5.1-2,9.5-6.1,13.2s-9.5,5.5-16.2,5.5s-12.2-1.6-16.4-4.8c-4.2-3.2-6.3-7.7-6.3-13.4h13.4c0.5,5.5,3.6,8.2,9.4,8.2
					c2.9,0,5.1-0.7,6.8-2.2c1.7-1.5,2.5-3.5,2.5-5.9c0-2.5-1.1-4.4-3.3-5.8c-2.2-1.4-4.9-2.5-8-3.2s-6.3-1.6-9.4-2.6
					c-3.2-1-5.8-2.8-8-5.3s-3.3-5.9-3.3-10c0-5.7,2.1-10.2,6.2-13.6c4.1-3.4,9.4-5.1,15.8-5.1c6.5,0,11.7,1.5,15.6,4.4
					s6.1,7.4,6.4,13.4h-13.8c-0.2-2.4-1.1-4.3-2.7-5.7C1126.5,851,1124.4,850.3,1121.9,850.3z"/>
			</g>
			<g id="XMLID_3873_">
				<path id="XMLID_3876_" d="M1254,841.1h12.6v62.3H1254v-26.7h-26.8v26.7h-12.6v-62.3h12.6v26h26.8V841.1z"/>
			</g>
			<g id="XMLID_3865_">
				<path id="XMLID_3868_" d="M1365.5,904.1c-9,0-16.6-3-22.7-9s-9.2-13.6-9.2-22.9s3.1-16.9,9.2-22.9c6.2-6,13.7-9,22.7-9
					s16.5,3,22.6,9s9.2,13.6,9.2,22.9s-3.1,16.9-9.2,22.9C1382.1,901.1,1374.5,904.1,1365.5,904.1z M1379.3,887
					c3.5-3.7,5.3-8.7,5.3-14.9s-1.8-11.1-5.3-14.8s-8.1-5.5-13.8-5.5c-5.7,0-10.3,1.9-13.8,5.6c-3.5,3.7-5.3,8.7-5.3,14.8
					c0,6.2,1.8,11.1,5.3,14.8s8.1,5.6,13.8,5.6C1371.2,892.5,1375.8,890.7,1379.3,887z"/>
			</g>
			<g id="XMLID_3859_">
				<path id="XMLID_3860_" d="M1505.2,872.2c-1.6,2-3.9,3.5-7,4.7s-6.6,1.7-10.8,1.7H1477v24.8h-12.6v-62.3h23
					c7.2,0,12.8,1.8,16.7,5.4c3.9,3.6,5.8,7.8,5.8,12.7S1508.3,868.4,1505.2,872.2z M1477.1,869h10.4c3.2,0,5.6-0.8,7.2-2.5
					c1.7-1.6,2.5-3.9,2.5-6.7s-0.8-5-2.5-6.7c-1.7-1.6-4.1-2.5-7.2-2.5h-10.4V869z"/>
			</g>
		</g>
		<g id="XMLID_3776_">
			<g id="XMLID_3849_">
				<path id="XMLID_3852_" class="st0" d="M38.2,698.7c-2.6-3.9-3.6-10.2-2.9-18.8c0.6-8.6,2.4-18.4,5.1-29.2
					c2.7-10.9,6.2-22.2,10.4-34.1c4.2-11.9,8.4-23.3,12.6-34.2s8-20.6,11.6-29.2c3.5-8.6,6.1-14.9,7.7-18.8
					c1.8-3.9,4.3-9.5,7.3-16.7s6.3-15,9.8-23.6c3.5-8.5,7.3-17.5,11.2-26.9c3.9-9.4,7.7-18.5,11.2-27.1s6.8-16.5,9.8-23.6
					s5.4-12.7,7.3-16.9c5.8-1.8,9.6-1.6,11.4,0.6c1.8,2.2,2.4,6,1.6,11.2c-0.8,5.2-2.6,11.6-5.5,19c-2.9,7.5-6.2,15.4-10,23.9
					s-7.7,17.2-11.8,26.1c-4.1,8.9-7.7,17.3-11,25.3s-5.8,15.3-7.5,21.8s-2.2,11.8-1.4,15.7c4.7,0.5,10.1,0.5,16.3,0
					c6.1-0.5,12.4-1.3,18.8-2.4c6.4-1,12.8-2.2,19-3.5c6.3-1.3,11.8-2.4,16.5-3.1c23.8-3.9,42.9-9.6,57.1-16.9
					c14.3-7.3,26.2-16.7,35.7-28.1s17.9-25.1,24.9-41c7.1-16,15.2-34.5,24.3-55.7c2.4-4.4,4.4-6.3,6.3-5.7c1.8,0.7,3.3,2.5,4.5,5.5
					s2,6.3,2.6,10c0.5,3.7,0.5,6.3,0,7.9c-0.3,0.8-1,2.5-2.4,5.1c-1.3,2.6-2.7,5.4-4.3,8.4c-1.6,3-3,5.8-4.3,8.2
					c-1.3,2.5-2.1,4.1-2.4,4.9c-0.5,1-1.2,2.8-2,5.3s-1.7,5.2-2.7,8c-1.1,2.9-2,5.6-2.8,8c-0.8,2.5-1.3,4.3-1.6,5.3
					c1.3,0.3,3.1,1.5,5.3,3.7c2.2,2.2,3.5,4,3.7,5.3c0.8,4.5-0.6,9.5-4.3,15.1c-3.7,5.6-8.2,11.5-13.5,17.5
					c-5.4,6-10.6,11.9-15.7,17.7s-8.6,11.1-10.4,16.1c-10.7,26.2-20,52.3-27.7,78.5s-13.4,53.3-17.1,81.3c-0.8,1.3-2,2.6-3.5,3.9
					c-1.6,1.3-3.3,1.4-5.1,0.4c-0.5-5.8-0.1-13.7,1.4-23.7c1.4-10.1,3.3-21.1,5.7-33s5-24,7.8-36.3c2.9-12.3,5.6-23.6,8-34
					c2.5-10.3,4.5-18.9,6.1-25.7s2.2-10.6,2-11.4c-5.5-1-12.6-1.2-21.2-0.6c-8.6,0.7-18.1,1.8-28.3,3.5s-20.8,3.7-31.8,6.1
					c-11,2.4-21.7,4.9-32,7.7s-20,5.4-28.9,7.9s-16.2,4.7-22,6.5c-4.5,9.9-8.1,20.9-11,32.8c-2.9,11.9-5.8,23.9-8.8,35.9
					s-6.3,23.6-10,34.7c-3.7,11.1-8.5,21-14.5,29.6c-0.5-0.3-1.4-0.9-2.6-2C39.2,700,38.5,699.2,38.2,698.7z"/>
			</g>
			<g id="XMLID_3837_">
				<path id="XMLID_3840_" class="st0" d="M317.3,698.7c-11-4.4-17.9-11.1-20.6-20c-2.8-8.9-2.7-18.8,0.2-29.6
					c2.9-10.9,7.8-22.1,14.9-33.8c7.1-11.6,14.9-22.3,23.6-32c8.6-9.7,17.3-17.9,26.1-24.5c8.8-6.7,16.3-10.4,22.6-11.2
					c16.2-2.1,29-1,38.3,3.3s15.6,10.5,19,18.6s4.3,17.6,2.8,28.5c-1.6,10.9-5,21.8-10.4,32.8s-12.3,21.6-20.8,31.8
					s-17.9,18.8-28.3,25.7c-10.3,6.9-21.3,11.5-32.8,13.7C340.3,704.2,328.8,703.1,317.3,698.7z M313,676.3
					c2.1,8.4,6.5,13,13.3,13.9s14.7-0.8,23.7-5.1s18.5-10.6,28.5-18.8c9.9-8.2,19-17.2,27.3-26.9c8.2-9.7,15-19.4,20.4-29.2
					s8-18.4,7.9-25.7s-3.7-12.9-10.6-16.7s-18.5-4.5-34.7-2.2c-3.7,3.4-8.4,7.5-14.1,12.4c-5.8,4.8-11.7,10.1-17.9,15.9
					c-6.1,5.8-12.2,12-18.3,18.6c-6,6.7-11.2,13.5-15.7,20.6c-4.4,7.1-7.7,14.3-9.6,21.6C311.2,662,311.2,669.2,313,676.3z"/>
			</g>
			<g id="XMLID_3830_">
				<path id="XMLID_3833_" class="st0" d="M677.5,682.4c-0.4-4.3-0.1-8.6,0.8-12.9c0.9-4.3,2.2-8.5,3.9-12.6s3.3-7.8,4.9-11.2
					c1-2.6,3.2-7.4,6.5-14.3c3.3-6.9,6.8-14.2,10.6-21.8s7.4-14.7,10.8-21.4c3.4-6.7,5.8-11.3,7.1-13.9v-8.6
					c-2.6-1.3-8,0.5-16.1,5.3s-17.5,11.5-28.3,20c-10.7,8.5-22.1,18-34.2,28.5c-12,10.5-23.4,20.5-34,30
					c-10.6,9.6-19.8,18.1-27.7,25.5c-7.9,7.5-12.8,12.4-14.9,14.7c-5.8,1.8-9.5,0.6-11.2-3.7s-2.2-10.3-1.4-18.1
					c0.8-7.7,2.4-16.4,4.7-25.9c2.4-9.5,4.8-18.6,7.3-27.1s4.7-15.8,6.7-21.8s2.8-9.3,2.5-9.8c-5.2-1.8-10.7-1.2-16.5,2
					c-5.8,3.1-11.7,7.8-17.7,13.9c-6,6.1-12,13.3-18.1,21.6c-6,8.2-12,16.5-18.1,24.7c-6,8.2-11.8,16.1-17.3,23.6
					s-10.7,13.5-15.7,18.3c-5,4.7-9.6,7.5-13.9,8.2c-4.3,0.8-8.1-1.2-11.2-5.9c-0.3-0.3-0.4-0.9-0.4-2c0-1,0.1-1.8,0.4-2.4
					c1.3-2.6,3.3-6.7,6.1-12.4c2.7-5.6,5.8-12,9.2-19c3.4-7.1,7.1-14.5,11-22.2s7.7-15,11.2-22c3.5-6.9,6.7-13.2,9.4-18.6
					c2.7-5.5,4.9-9.6,6.5-12.2c1.3-2.6,3.1-5.9,5.5-10s4.7-8,7.1-11.8c2.4-3.8,5.4-8.4,9-13.9h9.4c1.8,6,1.6,11.6-0.8,16.9
					c-2.4,5.2-5.2,10.3-8.4,15.3c-3.3,5-6,9.9-8.2,14.7s-2.3,10-0.2,15.5c22.5-19.9,39.8-34.5,52-44c12.2-9.4,20.7-14.8,25.7-16.1
					s7.3,0.7,7.1,5.9c-0.3,5.2-1.4,12.3-3.3,21.2c-2,8.9-3.9,19-5.9,30.4s-2.2,22.4-0.6,33.2h4.7c1.6-1,4.2-3,7.8-5.9
					c3.7-2.9,7.7-6,12-9.4s8.4-6.5,12.2-9.4s6.5-4.8,8-5.9c2.9-2.4,7.1-5.6,12.6-9.8s11.1-8.4,16.7-12.8c5.6-4.3,10.7-8.1,15.3-11.4
					c4.6-3.3,7.5-5.3,8.8-6.1c1-0.8,3.3-2.4,6.9-4.9c3.5-2.5,7.5-5.2,11.8-8c4.3-2.9,8.4-5.6,12.4-8c3.9-2.5,6.8-4.4,8.6-5.7
					c3.9-2.6,7.6-3.8,11-3.5s6.2,1.5,8.4,3.7s3.6,5.2,4.1,9s0,8-1.6,12.8c-6.3,11.8-12.5,23.3-18.6,34.5
					c-6.1,11.3-11.8,22.6-16.9,34c-5.1,11.4-9.3,23.1-12.6,35.1s-5,24.9-5.3,38.5c-1.3,0.8-2.7,0.8-4.1,0c-1.4-0.8-2.8-1.8-4.1-3.1
					s-2.9-3.3-4.7-5.9C679.5,690.6,677.8,686.7,677.5,682.4z"/>
			</g>
			<g id="XMLID_3818_">
				<path id="XMLID_3821_" class="st0" d="M778.5,698.7c-7.8-2.6-13.8-6.6-17.9-12c-4.1-5.4-6.7-11.3-8.1-17.9
					c-1.3-6.5-1.5-13.4-0.6-20.6c0.9-7.2,2.4-14.1,4.5-20.6c7.8-8.4,16.7-18,26.5-28.9s20.2-21.5,31.2-32s22.4-20.2,34.3-29.2
					c11.9-9,24-15.9,36.3-20.6c4.2-1.8,7.5-1.8,10,0.2s4.2,5,5.3,9.2c1,4.2,1.5,9,1.4,14.5s-0.6,10.9-1.4,16.1
					c-0.8,5.2-1.8,10-3.1,14.1c-1.3,4.2-2.6,7.1-3.9,8.6c-3.1,3.7-9.2,8-18.3,13c-9,5-19,10.4-30,16.3c-11,5.9-22,12-33,18.3
					s-20,12.5-27.1,18.6S773.3,658,772,664s2.4,11.5,11,16.5c8.9,1,19.7,0.6,32.4-1.4s25.6-4.6,38.9-7.8c13.2-3.3,26-6.7,38.3-10.2
					s22.4-6.3,30.2-8.4l4.7,4.3c-5.8,7.6-15.2,14.5-28.3,20.8s-27.2,11.4-42.4,15.5s-30,6.7-44.4,7.9
					C798.3,702.4,786.9,701.5,778.5,698.7z M872.4,548.7c-0.3-0.3-2.2,0.9-5.9,3.3c-3.7,2.5-8.2,5.8-13.5,9.8
					c-5.4,4.1-11.1,8.5-17.3,13.3s-11.8,9.4-16.9,13.5c-5.1,4.2-9.4,7.8-12.8,10.8c-3.4,3-4.8,4.5-4.3,4.5c4.2,0.8,9.6,0.2,16.3-1.8
					s13.6-4.8,20.8-8.4c7.2-3.7,14.1-7.8,20.6-12.4c6.5-4.6,11.7-9.1,15.5-13.5s5.8-8.4,5.9-11.8
					C880.9,552.8,878.1,550.3,872.4,548.7z"/>
			</g>
			<g id="XMLID_3811_">
				<path id="XMLID_3812_" class="st0" d="M1138.3,682.4c-0.4-4.3-0.1-8.6,0.8-12.9c0.9-4.3,2.2-8.5,3.9-12.6
					c1.7-4.1,3.3-7.8,4.9-11.2c1-2.6,3.2-7.4,6.5-14.3c3.3-6.9,6.8-14.2,10.6-21.8c3.8-7.6,7.4-14.7,10.8-21.4s5.8-11.3,7.1-13.9
					v-8.6c-2.6-1.3-8,0.5-16.1,5.3s-17.5,11.5-28.3,20c-10.7,8.5-22.1,18-34.2,28.5c-12,10.5-23.4,20.5-34,30
					c-10.6,9.6-19.8,18.1-27.7,25.5c-7.9,7.5-12.8,12.4-14.9,14.7c-5.8,1.8-9.5,0.6-11.2-3.7s-2.2-10.3-1.4-18.1
					c0.8-7.7,2.4-16.4,4.7-25.9c2.4-9.5,4.8-18.6,7.3-27.1s4.7-15.8,6.7-21.8s2.8-9.3,2.5-9.8c-5.2-1.8-10.7-1.2-16.5,2
					c-5.8,3.1-11.6,7.8-17.7,13.9c-6,6.1-12,13.3-18.1,21.6c-6,8.2-12,16.5-18.1,24.7c-6,8.2-11.8,16.1-17.3,23.6
					s-10.7,13.5-15.7,18.3c-5,4.7-9.6,7.5-13.9,8.2c-4.3,0.8-8.1-1.2-11.2-5.9c-0.3-0.3-0.4-0.9-0.4-2c0-1,0.1-1.8,0.4-2.4
					c1.3-2.6,3.3-6.7,6.1-12.4c2.8-5.6,5.8-12,9.2-19c3.4-7.1,7.1-14.5,11-22.2s7.7-15,11.2-22c3.5-6.9,6.7-13.2,9.4-18.6
					c2.7-5.5,4.9-9.6,6.5-12.2c1.3-2.6,3.1-5.9,5.5-10s4.7-8,7.1-11.8c2.4-3.8,5.4-8.4,9-13.9h9.4c1.8,6,1.6,11.6-0.8,16.9
					c-2.4,5.2-5.2,10.3-8.4,15.3c-3.3,5-6,9.9-8.2,14.7s-2.3,10-0.2,15.5c22.5-19.9,39.8-34.5,52-44c12.2-9.4,20.7-14.8,25.7-16.1
					s7.3,0.7,7.1,5.9c-0.3,5.2-1.4,12.3-3.3,21.2c-2,8.9-3.9,19-5.9,30.4s-2.2,22.4-0.6,33.2h4.7c1.6-1,4.2-3,7.8-5.9
					c3.7-2.9,7.7-6,12-9.4s8.4-6.5,12.2-9.4c3.8-2.9,6.5-4.8,8-5.9c2.9-2.4,7.1-5.6,12.6-9.8s11.1-8.4,16.7-12.8
					c5.6-4.3,10.7-8.1,15.3-11.4c4.6-3.3,7.5-5.3,8.8-6.1c1-0.8,3.3-2.4,6.9-4.9c3.5-2.5,7.5-5.2,11.8-8c4.3-2.9,8.4-5.6,12.4-8
					c3.9-2.5,6.8-4.4,8.6-5.7c3.9-2.6,7.6-3.8,11-3.5s6.2,1.5,8.4,3.7c2.2,2.2,3.6,5.2,4.1,9s0,8-1.6,12.8
					c-6.3,11.8-12.5,23.3-18.6,34.5c-6.1,11.3-11.8,22.6-16.9,34s-9.3,23.1-12.6,35.1c-3.3,12-5,24.9-5.3,38.5
					c-1.3,0.8-2.7,0.8-4.1,0s-2.8-1.8-4.1-3.1c-1.3-1.3-2.9-3.3-4.7-5.9C1140.3,690.6,1138.7,686.7,1138.3,682.4z"/>
			</g>
			<g id="XMLID_3800_">
				<path id="XMLID_3805_" class="st0" d="M1228.4,693.9c-6.3-5.2-9.7-12.9-10.4-23.2c-0.7-10.2,0.8-21.7,4.3-34.5
					s8.8-26.2,15.7-40.2c6.9-14,15-27.3,24.1-40c9.2-12.7,19.1-24.1,29.8-34.2c10.7-10.1,21.4-17.5,32.2-22.4
					c10.7-4.8,21.2-6.5,31.4-5.1c10.2,1.4,19.5,7.4,27.9,17.9c5.2,6.5,8.4,13.2,9.4,19.8c1,6.7,0.9,13.5-0.4,20.4s-3.4,14-6.3,21.2
					s-5.7,14.5-8.4,21.8c-2.7,7.3-5,14.8-6.7,22.4c-1.7,7.6-2,15.3-1,23.2c1.3,10,5.8,15.8,13.3,17.7c7.6,1.8,16.7,1.3,27.3-1.6
					c10.6-2.9,21.8-7.5,33.6-13.7c11.8-6.3,22.7-12.6,32.8-18.8c10.1-6.3,21.8-14.1,35.1-23.6c7.3-1.6,11.4-1.1,12.4,1.4
					c0.9,2.5-0.5,6.1-4.3,11c-3.8,4.8-9.5,10.3-17.1,16.5c-7.6,6.1-16.2,12.1-25.9,17.9c-9.7,5.8-20,11-31,15.7s-21.7,7.9-32.2,9.6
					c-10.5,1.7-20.4,1.6-29.6-0.4c-9.3-2-16.9-6.6-23-13.9c-2.9-3.1-5-6.3-6.5-9.4c-1.4-3.1-3.7-5.9-6.9-8.2
					c-3.9,3.7-8.6,8.4-14.1,14.3c-5.5,5.9-11.5,11.8-17.9,17.7s-13.2,11.5-20.4,16.7c-7.2,5.2-14.6,9.2-22.2,11.8s-15.2,3.5-23,2.8
					C1242.8,703.4,1235.4,700,1228.4,693.9z M1232.7,680.6c2.4,8.4,7.6,12.2,15.7,11.6c8.1-0.6,17.5-4.6,28.3-12
					c10.7-7.3,21.8-17.3,33.4-30c11.5-12.7,21.8-26.8,31-42.4c9.2-15.6,16.2-32,21-49.3s6.1-34.3,3.7-51c-6.3-5-14.1-5.2-23.6-0.6
					c-9.4,4.6-19.4,12-30,22.4c-10.6,10.3-21.1,22.6-31.4,36.9c-10.3,14.3-19.4,28.7-27.3,43.2s-13.8,28.2-17.9,41
					C1231.6,663.2,1230.6,673.3,1232.7,680.6z"/>
			</g>
			<g id="XMLID_3790_">
				<path id="XMLID_3793_" class="st0" d="M1633.5,693.9c-10-6.8-17.1-15.2-21.6-25.3c-4.4-10.1-7.7-20.9-9.8-32.4h-4.3
					c-21.2,17.3-39.6,30.2-55.2,38.9c-15.6,8.6-28.7,13.9-39.4,15.9c-10.7,2-19.1,1.1-25.1-2.5c-6-3.7-9.9-9-11.6-15.9
					s-1.4-15.1,1-24.5s6.4-18.9,12.2-28.5c5.8-9.5,13.2-18.6,22.4-27.3c9.2-8.6,19.7-15.7,31.6-21.2s25.1-9,39.6-10.4
					s30.2,0.2,46.9,4.9l4.3-4.7l53-106.4c7.1,1.1,11.2,4.2,12.6,9.4c1.3,5.2,1.2,11-0.2,17.3c-1.4,6.3-3.5,12.4-6.3,18.3
					c-2.7,5.9-4.8,10.1-6.1,12.8c-0.8,1.6-2.3,4.6-4.5,9s-4.8,9.7-7.8,15.9c-3,6.1-6.2,12.6-9.6,19.4c-3.4,6.8-6.6,13.3-9.6,19.4
					c-3,6.2-5.7,11.5-8,16.1c-2.4,4.6-3.8,7.5-4.3,8.8c-4.7,9.7-6.9,20-6.5,30.8c0.4,10.9,1,21.3,1.8,31.2c1,4.7,3.1,8.6,6.3,11.6
					c3.1,3,6.5,5.8,10,8.2c3.5,2.5,7.1,4.9,10.6,7.3c3.5,2.4,6.5,5.2,8.8,8.6c-1.1,3.4-3.1,5.2-6.3,5.3c-3.1,0.1-6.4-0.5-9.8-1.8
					s-6.5-2.9-9.4-4.7C1636.1,695.7,1634.2,694.5,1633.5,693.9z M1487,676.3c1.1,4.5,5,5.8,12,3.9c6.9-1.8,15.1-5.7,24.5-11.6
					c9.4-5.9,19.4-13,30-21.4s20.2-16.7,28.7-25.1c8.5-8.4,15.2-16.1,20-23.2c4.8-7.1,6.3-12.3,4.5-15.7c-8.1-4.4-17.1-6.7-27.1-6.7
					c-9.9,0-19.8,1.8-29.6,5.3c-9.8,3.5-19.2,8.5-28.3,14.9c-9,6.4-16.6,13.8-22.8,22.2c-6.1,8.4-10.5,17.5-13,27.3
					C1483.6,656.1,1483.9,666.1,1487,676.3z"/>
			</g>
			<g id="XMLID_3779_">
				<path id="XMLID_3782_" class="st0" d="M1694.7,698.7c-7.8-2.6-13.8-6.6-17.9-12s-6.7-11.3-8.1-17.9c-1.3-6.5-1.5-13.4-0.6-20.6
					c0.9-7.2,2.4-14.1,4.5-20.6c7.8-8.4,16.7-18,26.5-28.9s20.2-21.5,31.2-32s22.4-20.2,34.3-29.2s24-15.9,36.3-20.6
					c4.2-1.8,7.5-1.8,10,0.2s4.2,5,5.3,9.2c1,4.2,1.5,9,1.4,14.5s-0.6,10.9-1.4,16.1c-0.8,5.2-1.8,10-3.1,14.1
					c-1.3,4.2-2.6,7.1-3.9,8.6c-3.1,3.7-9.2,8-18.3,13c-9,5-19,10.4-30,16.3c-11,5.9-22,12-33,18.3s-20,12.5-27.1,18.6
					s-11.3,12.2-12.6,18.2c-1.3,6,2.4,11.5,11,16.5c8.9,1,19.7,0.6,32.4-1.4c12.7-2,25.6-4.6,38.9-7.8c13.2-3.3,26-6.7,38.3-10.2
					s22.4-6.3,30.2-8.4l4.7,4.3c-5.8,7.6-15.2,14.5-28.3,20.8c-13.1,6.3-27.2,11.4-42.4,15.5c-15.2,4.1-30,6.7-44.4,7.9
					C1714.4,702.4,1703.1,701.5,1694.7,698.7z M1788.5,548.7c-0.3-0.3-2.2,0.9-5.9,3.3c-3.7,2.5-8.2,5.8-13.5,9.8
					c-5.4,4.1-11.1,8.5-17.3,13.3c-6.2,4.8-11.8,9.4-16.9,13.5c-5.1,4.2-9.4,7.8-12.8,10.8s-4.8,4.5-4.3,4.5
					c4.2,0.8,9.6,0.2,16.3-1.8c6.7-2,13.6-4.8,20.8-8.4c7.2-3.7,14.1-7.8,20.6-12.4c6.5-4.6,11.7-9.1,15.5-13.5s5.8-8.4,5.9-11.8
					C1797.1,552.8,1794.3,550.3,1788.5,548.7z"/>
			</g>
		</g>
		<g id="XMLID_3749_">
			<g id="XMLID_3769_">
				<path id="XMLID_3770_" class="st0" d="M793.1,409.8c-0.2-0.4-0.3-1.4-0.3-3.1s0.1-2.8,0.3-3.4c0.6-2.1,1.6-5.7,3.1-11
					c1.5-5.2,3.1-10.7,4.8-16.5s3.3-11.2,4.8-16.4c1.5-5.1,2.6-8.7,3.1-10.8c0.8-2.7,1.6-5.7,2.6-9.3c0.9-3.5,1.1-6.9,0.6-10.1
					c-2.9-0.4-6.4,0-10.5,1s-8.3,1.9-12.4,2.6c-4.1,0.7-7.9,0.7-11.4,0s-6-2.9-7.5-6.7c2.3-4.7,5.7-7.8,10.3-9.3
					c4.6-1.4,9.5-2.4,14.8-3s10.4-1.4,15.2-2.6c4.8-1.1,8.7-3.7,11.5-7.7c1.7-4.9,3.7-11,6.1-18.1c2.4-7.1,4.9-14.6,7.5-22.4
					c2.7-7.8,5.6-15.5,8.7-23.1c3.1-7.6,6.4-14.3,9.8-20.2c2.1-1.3,3.8-1.4,5.1-0.3c1.3,1.1,2.3,2.8,3,5s1.1,4.4,1.3,6.7
					s0.2,3.8,0,4.6c-1.1,4.9-3.1,10.2-5.8,15.8c-2.8,5.6-5.3,11.2-7.7,16.9c-2.4,5.7-4.3,11.4-5.7,17.1s-1.5,11.1-0.1,16.2h61.2
					c0.2,0,0.7,0.6,1.4,1.9s1.4,2.2,2,3c0.9,2.7-0.1,4.5-3.1,5.4c-3,1-7.1,1.6-12.2,1.9c-5.1,0.3-11,0.5-17.5,0.6
					s-12.8,0.6-18.8,1.4c-6,0.9-11.3,2.3-16.1,4.3s-8,5-9.7,9c-4.9,12.7-9.5,25.5-13.7,38.3s-8.2,25.8-12,38.9
					c-0.4,0.6-1.1,1.5-2.3,2.7c-1.1,1.2-2.4,2.3-3.7,3.1c-1.3,0.9-2.6,1.2-3.8,1C794.8,413,793.8,411.9,793.1,409.8z"/>
			</g>
			<g id="XMLID_3762_">
				<path id="XMLID_3763_" class="st0" d="M880.5,406.4c-0.2-0.4-0.3-0.9-0.3-1.6s0.1-1.2,0.3-1.6c0.8-1.5,2-4.1,3.8-7.8
					c1.8-3.7,3.7-7.6,5.7-11.7s3.9-7.9,5.8-11.5c1.9-3.6,3.2-6.2,4-7.7c0.4-0.6,1.4-2.2,3-4.8c1.6-2.7,3.6-5.9,6-9.8s4.9-8.2,7.7-13
					c2.8-4.7,5.5-9.4,8.3-13.9c2.7-4.6,5.3-8.8,7.7-12.8s4.3-7.3,5.8-10c3.8-6.3,8.2-13.7,13.2-22.2s10.2-17.2,15.5-25.9
					c5.3-8.7,10.6-17.2,15.8-25.3c5.2-8.2,10-14.9,14.4-20.2s8.1-8.8,11.1-10.5s5.1-0.6,6.3,3.4v9.1c-1.3,2.1-3.1,4.8-5.4,8.1
					c-2.3,3.3-4.6,6.8-7,10.5s-4.7,7.3-7,10.7s-4,6.1-5.1,8c-1.7,2.7-4.5,6.9-8.3,12.8s-8.1,12.5-12.8,19.9s-9.6,15.1-14.5,23.2
					s-9.4,15.6-13.4,22.6s-7.2,13.1-9.5,18.1c-2.4,5-3.3,8.2-2.7,9.5c4.6-1.3,9.4-3.7,14.7-7.3c5.2-3.5,10.5-7.3,15.8-11.3
					s10.6-7.8,15.9-11.5c5.3-3.7,10.3-6.6,14.8-8.7c4.6,0.6,8.5,2.3,12,5.1c3.4,2.8,5.9,6.5,7.4,10.8c-0.2,1.7-0.3,4.9-0.4,9.5
					c-0.1,4.7-0.1,9.5-0.1,14.7c0,5.1,0,10,0.1,14.5c0.1,4.6,0.2,7.7,0.4,9.4c0.2,2.1,1.1,4.7,2.8,7.8c1.7,3.1,3.6,6.3,5.5,9.4
					c2,3.1,3.8,5.8,5.4,8.1c1.6,2.3,2.3,3.5,2.1,3.7c-3.8,1.3-7.4,1.4-10.8,0.1c-3.4-1.2-6.4-3.2-9-6s-4.7-5.9-6.3-9.4
					s-2.6-7-3-10.4c-0.2-1.7-0.5-4.9-0.9-9.5s-0.7-9.5-1-14.7c-0.3-5.1-0.6-10-0.9-14.5c-0.3-4.6-0.4-7.7-0.4-9.4l-6.6-3.4
					c-1.1-0.6-3.1-0.1-5.8,1.4c-2.8,1.5-5.9,3.6-9.5,6.3c-3.6,2.7-7.4,5.7-11.4,9.1s-7.7,6.6-11.3,9.7c-3.5,3-6.5,5.7-9,8
					s-4,3.7-4.6,4.3c-1.5,1.5-4.3,4.2-8.3,8.1s-8.2,8.1-12.7,12.5c-4.5,4.5-8.6,8.7-12.5,12.7s-6.6,6.8-8.1,8.5
					c-2.7,0.6-5.2,0.8-7.5,0.7C883.7,410.4,881.8,409.1,880.5,406.4z"/>
			</g>
			<g id="XMLID_3752_">
				<path id="XMLID_3755_" class="st0" d="M1047.1,409.8c-5.7-1.9-10-4.8-13-8.7c-2.9-3.9-4.9-8.2-5.8-13c-0.9-4.7-1.1-9.7-0.4-14.9
					c0.7-5.2,1.8-10.2,3.3-14.9c5.7-6.1,12.1-13,19.2-20.9s14.7-15.6,22.6-23.2c8-7.6,16.3-14.7,24.9-21.2s17.4-11.5,26.3-14.9
					c3-1.3,5.5-1.3,7.3,0.1s3.1,3.7,3.8,6.7c0.8,3,1.1,6.6,1,10.5c-0.1,4-0.4,7.9-1,11.7c-0.6,3.8-1.3,7.2-2.3,10.3
					c-1,3-1.9,5.1-2.8,6.3c-2.3,2.7-6.7,5.8-13.2,9.4c-6.6,3.6-13.8,7.5-21.8,11.8s-15.9,8.7-23.9,13.2c-8,4.6-14.5,9.1-19.6,13.5
					c-5.1,4.5-8.2,8.9-9.1,13.2c-0.9,4.4,1.7,8.4,8,12c6.5,0.8,14.3,0.4,23.5-1s18.6-3.3,28.2-5.7c9.6-2.4,18.8-4.8,27.8-7.4
					c8.9-2.6,16.2-4.6,21.9-6.1l3.4,3.1c-4.2,5.5-11,10.5-20.5,15.1s-19.8,8.3-30.8,11.3c-11,2.9-21.7,4.8-32.2,5.7
					C1061.4,412.5,1053.1,411.9,1047.1,409.8z M1115.1,301c-0.2-0.2-1.6,0.6-4.3,2.4c-2.7,1.8-5.9,4.2-9.8,7.1s-8.1,6.2-12.5,9.7
					c-4.5,3.5-8.5,6.8-12.3,9.8c-3.7,3-6.8,5.7-9.2,7.8c-2.5,2.2-3.5,3.3-3.1,3.3c3,0.6,7,0.1,11.8-1.3s9.9-3.5,15.1-6.1
					c5.2-2.7,10.2-5.6,15-9c4.7-3.3,8.5-6.6,11.2-9.8c2.8-3.2,4.2-6.1,4.3-8.5C1121.3,304,1119.3,302.2,1115.1,301z"/>
			</g>
		</g>
	</g>
</g>
</svg>
