<?xml version="1.0" encoding="utf-8"?>
<!-- Generator: Adobe Illustrator 22.0.1, SVG Export Plug-In . SVG Version: 6.00 Build 0)  -->
<svg version="1.1" id="object" xmlns="http://www.w3.org/2000/svg" xmlns:xlink="http://www.w3.org/1999/xlink" x="0px" y="0px"
	 viewBox="0 0 1920 1080" style="enable-background:new 0 0 1920 1080;" xml:space="preserve">
<style type="text/css">
	.st0{fill:#C1DCF2;}
</style>
<g id="XMLID_314_">
	<g id="XMLID_374_">
		<g id="XMLID_393_">
			<path id="XMLID_394_" class="st0" d="M1290.6,572.4c-3.2,4.3-8.6,16.2-14.3,29.3c-0.7,1.2-1.3,2.5-2,3.8c0.5-1.1,1-2.2,1.5-3.3
				c-0.3,0.7-0.7,1.4-1.1,2.1c-0.2,0.5-0.3,0.9-0.5,1.4c-6.2,11.6-12.6,23.8-18.1,31.9c-4.4,4.4-7,7.4-11.5,12.4
				c-7.1,8,4.5-13.7,7.2-19.4c-6.2,7.1-13.4,17.7-22.3,30c-0.8,1-1.7,2.1-2.5,3.1c11.6-17.2,21.7-35.4,30.1-54.3l0.7,1.2
				c3.9-8.6,6.6-13.5,8.7-19c2.3-5.4,4.7-11.1,7.9-21.1c0.1-0.2,0.1-0.4,0.2-0.6l0,0.1c-2.6,3.1-5.3,9.3-8.1,16.5
				c-0.7,1.7-1.5,3.6-2.2,5.4c31.6-82.7,32.4-177.2-5-265v0c-5.5-13-11.8-25.4-18.7-37.3c8,11.6,15.3,23.5,22.1,35.9
				c1.2-4.6,2.8-9.1,0.6-20.2c-1.2-5.4-2.9-12.8-7-22.1c-2.2-4.6-4.8-9.7-8-15.5c-1.6-2.9-3.3-6-5.1-9.2c-1.7-3.3-3.8-6.7-6.4-10
				c-5.4-8-11.4-15.6-17.7-23.2c-1-1.4-1.9-2.7-2.9-4.1c-4.4-5.3-8.9-10.8-13.7-16.5c-2.4-2.9-4.9-5.8-7.3-8.7
				c-2.7-2.8-5.5-5.4-8.4-8.2c-15.2-11.6-37-27.7-60.8-40.9c-4.5-2.5-9.1-5-13.6-7.5c-1.8-1.3-3.7-2.6-5.5-3.9
				c-5.8-2.4-13.9-5.7-22.1-9.1c-3.7-1.6-7.4-3.3-10.9-4.8c-5.3-2.1-10.5-3.6-15-5.2c-44.8-17.3-91-24.6-135.7-23.5
				c-44.7,1.1-88.3,10.3-128.4,27.3c-8.1,2.6-15.6,7-23.3,10.6c-7.5,4-15.5,7.2-22.7,12l-21.6,13.9l-5.3,3.5l-5,4l-9.9,8
				c-13.6,10.2-25.1,22.7-36.8,34.3c-5.7,6-10.6,12.7-15.8,19c-3.4,4.1-6.6,8.2-9.6,12.4c-1.4,1.8-3,4.1-4.9,7
				c-3.6,3.4-8.4,8.1-14.1,14.4c-5.9,6.2-11.1,15.2-17.5,25.7c-16.4,29.3-32.9,66.1-39.7,103.1L567,395l-0.9,6.9
				c-0.6,4.6-1.2,9.1-1.7,13.5c-0.5,4.4-1,8.8-1.5,13.1c-0.5,4.3-0.2,8.6-0.3,12.7c0,8.3,0.1,16.1,0.3,23.4c0.5,7.3,1.8,14,2.9,20.1
				c-0.3,5.5-0.4,11.2-0.4,16.8c0.2,5.6,1.1,11.1,1.7,16.3c1.6,10.4,2.6,19.8,4.9,25.9c4.9,17,10.9,34.4,18.1,51.9
				c0.1,0.4,0.3,0.7,0.4,1.1c14,39.1,35.6,77.6,62.4,107.6c-0.6-0.9-1.9-2.8-2.6-4c1.1,1.4,2.4,2.8,3.5,4.3c1.6,2.2,3.5,4.4,5.5,6.7
				c14.8,17.2,31.1,33,48.4,46.6c5.1,3.6,10.2,7.2,15.4,10.8c5.2,3.6,10.2,7.5,15.7,10.5c5.4,3.2,10.9,6.4,16.2,9.6l8,4.7
				c2.7,1.4,5.6,2.7,8.3,4c21.8,11,43.4,18.6,61.5,23.5c11,2.2,21.3,4.4,31.3,6.6c10.1,1.4,19.9,2.7,29.4,4c2.8,0.4,5.6,0.7,8.4,0.9
				c0.2,0,0.5,0.1,0.7,0.1c0.7,0.1,1.4,0.2,2.1,0.3c0.6,0.1,1.2,0.1,1.9,0.2c1.9,0.2,3.7,0.4,5.7,0.6c0.3,0,0.6,0.1,0.8,0.1l0,0
				c4.2,0.3,8.6,0.6,13.1,0.9c-4.8-0.3-9.1-0.6-13-1l0.5-0.6c2.7,0.1,5.4,0.2,8,0.4c4.2,0.1,8.3,0.3,12.4,0.4
				c1.3,0.1,2.5,0.2,3.8,0.2c8.5-0.1,17.2-0.3,25.4-0.4c8.3,0.2,15.8-1.1,22.1-1.5c6.3-0.5,11.2-0.8,13.9-0.7
				c11-4.2-10.9-0.5-30.2,2c10.1-1.2,21.1-3.3,32.4-5c11.3-1.8,22.4-5.5,33.3-8c1.3-0.3,2.6-0.7,3.9-1c-2.3,0.7-4.5,1.4-6.5,2
				c-6.1,2-11.6,3.7-19.5,4.7c-5.1,2.1-3.1,2.3,3.7,1.2c21.2-4.4,59.5-17.6,61.2-20.2c0.1,0,0.1,0,0.2-0.1c4-1.3,7.5-2.7,10.7-3.7
				l9.2-6.3l4.4-1.6c-1.2,0.3-2.5,0.7-3.8,1.1c24.8-12.8,50.7-27.9,65.8-43c1.5-1.8,2.6-3.2,3.4-4.3c6.8-4-2.8,3.4-4.6,5.9
				c3.9-3,7.6-5.7,10.8-8.4c3.1-2.9,5.8-5.6,8.3-8c4.9-4.8,8.4-8.7,10.1-11.3l-13.4,12.1l-6.7,6l-4,3c1.2-1.6,1.4-2.4,1.3-2.7
				c1.6-1.5,3-3.1,4.4-4.6c5.4-6.1,9.8-10.8,12-12.6c19.2-16.7,32.9-30.7,45-44.1c-0.2,0.6-0.5,1.2-0.8,1.7c-1.2,1.6-2.5,3.3-3.9,5
				c-7.6,9.7-17.9,20.1-21.8,24.7l16.8-15.9c1.5-2.2,3.1-4.5,4.3-6.9c2-2.6,3.1-3.8,3.8-4.3c0.1,0.1,0.4,0,0.8-0.3
				c0.1,0.1,0.2,0.2,0.2,0.4l0.8-1.2c0.5-0.4,1-0.9,1.7-1.5l0.1-1.2l5.9-8.7c0.2-0.4,0.1-0.6,0-0.6c2.6-2.6,5.2-5.2,8-8.3
				c4.3-5.6,9.4-12.7,16.5-24.1c0.1-0.3,0.3-0.8,0.5-1.3c5.7-8.9,11.3-18.8,16.9-30.5c1.7-2.4,4.3-11.6,6.4-20.4
				c0.2-0.6,0.4-1.1,0.6-1.8c1.8-7.1,2.5-11,2.5-12.6C1290.4,574.3,1290.7,572.6,1290.6,572.4z M1233.1,681.9l0-0.4
				c0.3-0.4,0.7-0.8,1-1.1c0.4-0.4,0.8-0.8,1.2-1.3C1234.7,680,1233.9,680.9,1233.1,681.9z"/>
		</g>
		<g id="XMLID_391_">
			<path id="XMLID_392_" class="st0" d="M1282.6,335.6l-2.4-6.8c-0.1-0.2-0.2-0.3-0.3-0.5c0.8,2.1,1.7,4.5,2.6,7.4
				C1282.5,335.7,1282.5,335.6,1282.6,335.6z"/>
		</g>
		<g id="XMLID_389_">
			<path id="XMLID_390_" class="st0" d="M1279.8,328.3c-1.1-2.9-1.9-5.1-1.9-6.4c-3.1-5-0.2,4.1,3.7,15.6
				C1286.9,349.1,1274.5,320.2,1279.8,328.3z"/>
		</g>
		<g id="XMLID_387_">
			<path id="XMLID_388_" class="st0" d="M1281.9,325c2.8,7.1,6.8,18.7,4.7,16l4.9,9.8l-11.9-32.8c1.3,6.5,4.6,17.4,3,17.5l4.9,14
				C1283.5,336,1283.2,331.8,1281.9,325z"/>
		</g>
		<g id="XMLID_385_">
			<path id="XMLID_386_" class="st0" d="M1302.4,401.1c-0.4-0.2-0.3,2.8-0.1,6.2C1302.5,406.6,1302.6,404.9,1302.4,401.1z"/>
		</g>
		<g id="XMLID_383_">
			<path id="XMLID_384_" class="st0" d="M1302.3,407.3c-0.9,2.7-4.3-11.5-1.9,13c-0.4-6.9-0.8-13.8,0.7-10.8l0.8,7.2
				C1302.8,418.5,1302.5,412.4,1302.3,407.3z"/>
		</g>
		<g id="XMLID_381_">
			<path id="XMLID_382_" class="st0" d="M1286.8,357.1c-0.6-2.9-1.6-5.6-2.3-8.4c-0.8,1.9,0.9,5.7,2,11c1.2,5.3,2.8,11.8,3.4,18.4
				l1.7,4.9l-3.2-17.2L1286.8,357.1z"/>
		</g>
		<g id="XMLID_379_">
			<path id="XMLID_380_" class="st0" d="M1210.4,716.6l-1.3,0.8c-0.6,0.8-1.4,1.9-2,2.8C1208.1,719.1,1209.1,718,1210.4,716.6z"/>
		</g>
		<g id="XMLID_377_">
			<path id="XMLID_378_" class="st0" d="M1197.1,729c-2.4,1.8-4.9,3.9-11.4,10.5c6.1-5,12.3-9.8,18.3-14.9c1.2-1.6,2.1-2.9,3.1-4.3
				C1201.8,726,1199.4,727.2,1197.1,729z"/>
		</g>
		<g id="XMLID_375_">
			<path id="XMLID_376_" class="st0" d="M1206.8,718.8l2.3-1.4c6.2-8.1,11.3-13.3,17.2-19.3c5.3-6.5,11.3-13.8,19.5-25.9
				c-6.8,8.2-13.5,16.7-19.7,24.9C1219.1,704.9,1212.6,712.3,1206.8,718.8z"/>
		</g>
	</g>
	<g id="XMLID_336_">
		<g id="XMLID_371_">
			<path id="XMLID_372_" d="M134.7,428.9v2c-6,0-11.1,3.8-11.1,12.3v55.6c0,31.6-16.9,43.6-38.7,46.8l-0.5-2
				c11.5-4.2,22.4-14.9,22.4-44v-40.1c0-25.2-0.1-28.7-10.5-28.7v-2H134.7z"/>
		</g>
		<g id="XMLID_367_">
			<path id="XMLID_368_" d="M305.6,523.3h-34.4v-2c8.8,0,4.7-11,3.1-14.7l-4.3-10.7h-33.2c-1.9,5.4-9,26.3,11,25.5v2h-31.5v-2
				c4.3-0.1,7.6,0,20-31.2l22.9-61.1h1.7c24.7,59.1,33.6,82,33.6,82c4.4,10.7,7.5,10.1,11.1,10.3V523.3z M269.1,493.8L252.5,452
				l-15.4,41.8H269.1z"/>
		</g>
		<g id="XMLID_364_">
			<path id="XMLID_365_" d="M510.9,521.2v2h-37.4v-2c5.6,0,9.6-3.9,9.6-13.9v-72.6l-33.9,89.8h-2l-37.5-81.2v46.4
				c0,7.8,1.1,31.6,17.8,31.6v2h-39.3v-2c18.2,0,19.4-24,19.4-31.6V440c-5-8.8-11.7-8.8-15-9.1v-2H423l33.5,72l26.7-72H510v2
				c-5.8,0-10.3,3.2-10.3,11.8v64.6C499.6,517.4,505.1,521.2,510.9,521.2z"/>
		</g>
		<g id="XMLID_361_">
			<path id="XMLID_362_" d="M636.1,428.9v2c-5.8,0-10.5,3-10.5,11.3V508c0,9.1,4.8,13.3,10.5,13.3v2h-37.4v-2
				c5.8,0,10.5-4.2,10.5-13.3v-65.8c0-8.3-4.6-11.3-10.5-11.3v-2H636.1z"/>
		</g>
		<g id="XMLID_358_">
			<path id="XMLID_359_" d="M795.2,494.7v28.5h-71.4v-2c5.6,0,7.5-5.9,7.5-15v-61c0-8.3-1.6-14.3-7.5-14.3v-2h69.7v24.8h-2
				c-2.3-22.7-32-22.8-37.5-22.8h-6v43.7h6.7c1.9,0,19.2,0,20.2-13.7h2v29.5h-2c-1.1-13.8-18.5-13.8-20.2-13.8h-6.7v44.6h5.5
				c5.9,0,35.5,0.3,39.8-26.5H795.2z"/>
		</g>
		<g id="XMLID_353_">
			<path id="XMLID_354_" d="M984,507.7c0,10.9-8,15.9-15.4,16.8c0,0-13.3,1.2-18.6-6.7l-7.5-11c-5.1,15.3-32.6,26.7-46,8
				c-13.4-18.4,4.2-33.1,14.7-39.3l6.7-4l-7.1-10.7c-12.6-17.4-4.2-34.2,10.9-36.7c9-1.6,15.3,0.8,19.4,5.5
				c5.2,6.2,11.1,22-9.2,36.5l16.9,25.1c5.1-11.3,11.9-13.8,15.4-14.6c2.8-0.7,6.6-0.4,9,1.6c3.2,2.5,3.9,7.5,0.8,10.9
				c-2.7,3.2-7.6,3.8-11,0.9c-1.6-1.5-2.4-3.1-2.5-5.2c0-2.8-7.2-0.7-10.6,8l10.6,15.3c4.2,6.2,11.1,6.2,11.1,6.2
				c4.7,0,9.4-1.5,10.5-6.4H984z M941,504.8l-21.8-31.5l-6.7,4.3c-7.5,5.4-12.7,18.6-2.3,31.6C917.4,518.2,934.5,518.8,941,504.8z
				 M921,449.9l9.6,14.2c17.6-11.5,14.5-25.7,8.6-33.1c-3.9-3.9-9.5-5.6-14.3-3.9C918,429.6,914.6,440.4,921,449.9z"/>
		</g>
		<g id="XMLID_349_">
			<path id="XMLID_350_" d="M1161.4,523.3h-34.4v-2c8.8,0,4.7-11,3.1-14.7l-4.3-10.7h-33.2c-1.9,5.4-9,26.3,11,25.5v2H1072v-2
				c4.3-0.1,7.6,0,20-31.2l22.9-61.1h1.7c24.7,59.1,33.6,82,33.6,82c4.4,10.7,7.5,10.1,11.1,10.3V523.3z M1124.9,493.8l-16.6-41.8
				l-15.4,41.8H1124.9z"/>
		</g>
		<g id="XMLID_346_">
			<path id="XMLID_347_" d="M1349.7,428.9v2c-19.8-0.1-19.4,25.5-19.4,31.6v60.7h-5.8l-57.8-73.6v39.7c0,6-0.1,31.9,18,31.9v2H1245
				v-2c19.7,0,19.7-25.9,19.7-31.9v-41.8l-5.4-6.8c-8.6-10.7-12.5-9.5-16-9.8v-2h28.8l56,70.6v-37c0-6.2,0-31.8-18-31.6v-2H1349.7z"
				/>
		</g>
		<g id="XMLID_343_">
			<path id="XMLID_344_" d="M1538.7,428.9v2c-19.8-0.1-19.4,25.5-19.4,31.6v60.7h-5.8l-57.8-73.6v39.7c0,6-0.1,31.9,18,31.9v2H1434
				v-2c19.7,0,19.7-25.9,19.7-31.9v-41.8l-5.4-6.8c-8.6-10.7-12.5-9.5-16-9.8v-2h28.8l56,70.6v-37c0-6.2,0-31.8-18-31.6v-2H1538.7z"
				/>
		</g>
		<g id="XMLID_340_">
			<path id="XMLID_341_" d="M1663.9,428.9v2c-5.8,0-10.5,3-10.5,11.3V508c0,9.1,4.8,13.3,10.5,13.3v2h-37.4v-2
				c5.8,0,10.5-4.2,10.5-13.3v-65.8c0-8.3-4.6-11.3-10.5-11.3v-2H1663.9z"/>
		</g>
		<g id="XMLID_337_">
			<path id="XMLID_338_" d="M1823,494.7v28.5h-71.4v-2c5.6,0,7.5-5.9,7.5-15v-61c0-8.3-1.6-14.3-7.5-14.3v-2h69.7v24.8h-2
				c-2.3-22.7-32-22.8-37.5-22.8h-6v43.7h6.7c1.9,0,19.2,0,20.2-13.7h2v29.5h-2c-1.1-13.8-18.5-13.8-20.2-13.8h-6.7v44.6h5.5
				c5.9,0,35.5,0.3,39.8-26.5H1823z"/>
		</g>
	</g>
	<g id="XMLID_315_">
		<g id="XMLID_333_">
			<path id="XMLID_334_" d="M712.1,987.3c-13.4,0-19.2-4.4-19.2-4.4v-14.4h1.1c1.2,6.8,5,17.7,18.1,17.7c9.7,0,11.7-11.8,2.7-18.3
				l-11.9-7.7c-8.9-5.7-14.4-12.8-8.3-21.4c0,0,3.7-5.8,14.9-5.8c11.9,0,18.2,3.6,18.2,3.6v12.6h-1.1c-1.1-5.7-4.8-15.1-17.1-15.1
				c-8.1,0-12.7,10.2-2.2,17.1l12,7.9c10,6.6,12.9,14.8,8.1,22C727.4,981.1,724,987.3,712.1,987.3z"/>
		</g>
		<g id="XMLID_330_">
			<path id="XMLID_331_" d="M826.7,933.7v14.2h-1.1c-0.4-12.9-14.7-13.1-15.3-13.1h-2.9v43.6c0,5,2.8,7.1,5.9,7.1v1.1h-21v-1.1
				c3.2,0,5.9-2,5.9-7.1v-43.6h-2.9c-1.1,0-14.7,0.2-15.2,13.1H779v-14.2H826.7z"/>
		</g>
		<g id="XMLID_327_">
			<path id="XMLID_328_" d="M879.4,968.3v-27c0-4.8-2.3-6.5-5.6-6.5v-1.1h21.3v1.1c-3.2,0-6.5,1-6.5,6.6v27.5
				c0,9.1,5.6,14.4,13.2,14.4c6.7,0,12.9-5.1,12.9-14.7v-21.3c0-3.6,0-12.6-9.5-12.6v-1.1h21.1v1.1c-10.6-0.1-10.4,8.9-10.4,12.6
				v21.3c0.1,14.8-10.4,18.6-18.4,18.6C887.5,987.3,879.4,980.6,879.4,968.3z"/>
		</g>
		<g id="XMLID_323_">
			<path id="XMLID_324_" d="M993,986.6h-18v-1.1c3.2,0,5.3-3.4,5.3-8.5v-33.7c0-4.7-2-8.5-5.3-8.5v-1.1h18c15,0,30.7,4.6,30.7,26.6
				C1023.6,982.7,1007.9,986.6,993,986.6z M993,934.8h-3.3v50.6h3.3c7.7,0,19.5-1,19.5-25.2C1012.5,936.5,1000.8,934.8,993,934.8z"
				/>
		</g>
		<g id="XMLID_320_">
			<path id="XMLID_321_" d="M1095.7,933.7v1.1c-3.2,0-5.9,1.7-5.9,6.3V978c0,5.1,2.7,7.4,5.9,7.4v1.1h-21v-1.1
				c3.2,0,5.9-2.3,5.9-7.4v-36.9c0-4.7-2.6-6.3-5.9-6.3v-1.1H1095.7z"/>
		</g>
		<g id="XMLID_316_">
			<path id="XMLID_317_" d="M1170.8,987.3c-16.5,0-25.2-11.8-25.2-26.7c0-14.9,8.6-27.5,25.2-27.5c16.5,0,25.2,12.6,25.2,27.5
				C1196,975.5,1187.4,987.3,1170.8,987.3z M1170.8,934.1c-8.9,0-14.4,5.8-14.4,26.4c0,20.7,5.5,25.6,14.4,25.6
				c8.9,0,14.3-5,14.3-25.6C1185.1,939.9,1179.7,934.1,1170.8,934.1z"/>
		</g>
	</g>
</g>
</svg>
