<svg width="180" height="48" viewBox="0 0 180 48" fill="none" xmlns="http://www.w3.org/2000/svg">
<path d="M18.8482 44.7642C29.2577 44.7642 37.6963 36.3256 37.6963 25.916C37.6963 15.5065 29.2577 7.06787 18.8482 7.06787C8.43861 7.06787 0 15.5065 0 25.916C0 36.3256 8.43861 44.7642 18.8482 44.7642Z" fill="#FF4644"/>
<path d="M64.7432 38.2619L62.9998 33.8326H52.539L50.7956 38.2619H44.293L54.3296 14.5603C54.5181 14.0891 55.0364 13.7593 55.5076 13.7593H60.0312C60.5966 13.7593 61.0207 14.042 61.2092 14.5603L71.293 38.2619H64.7432ZM57.8165 20.5446L54.6595 28.6022H60.9736L57.8165 20.5446Z" fill="white"/>
<path d="M106.304 26.7175V38.2149H100.414V27.9897C100.414 25.9164 99.047 24.5971 97.3036 24.5971C95.136 24.5971 93.6753 26.152 93.6753 29.2149V38.2149H87.7381V27.9897C87.7381 25.9164 86.3716 24.5971 84.5811 24.5971C82.4607 24.5971 81.047 26.152 81.047 29.2149V38.2149H75.1099V21.0159C75.1099 20.4033 75.6753 19.8379 76.2879 19.8379H81.047V21.5342C82.2722 20.1206 84.1099 19.2725 86.513 19.2725C89.0575 19.2725 91.3193 20.4034 92.5915 22.3824C94.0523 20.4976 96.314 19.2725 99.1413 19.2725C103.147 19.3196 106.304 22.2882 106.304 26.7175Z" fill="white"/>
<path d="M130.759 38.2617H124.869V36.7539C123.456 38.0261 121.524 38.7329 119.121 38.7329C114.173 38.7329 110.026 34.822 110.026 29.0261C110.026 23.2775 114.173 19.3193 119.121 19.3193C121.524 19.3193 123.456 20.0733 124.869 21.2984V19.8377H130.806V38.2617H130.759ZM124.869 29.0733C124.869 26.246 122.749 24.3141 120.346 24.3141C117.801 24.3141 115.869 26.246 115.869 29.0733C115.869 31.9005 117.754 33.8324 120.346 33.8324C122.749 33.7853 124.869 31.9005 124.869 29.0733Z" fill="white"/>
<path d="M155.544 38.2617H149.607V36.7538C148.193 38.0261 146.262 38.7329 143.858 38.7329C138.911 38.7329 134.764 34.8219 134.764 29.0261C134.764 23.2774 138.911 19.3193 143.858 19.3193C146.262 19.3193 148.193 20.0732 149.607 21.2983V11.9214H155.544V38.2617ZM149.607 29.0732C149.607 26.246 147.487 24.3141 145.084 24.3141C142.539 24.3141 140.607 26.246 140.607 29.0732C140.607 31.9004 142.492 33.8324 145.084 33.8324C147.44 33.7853 149.607 31.9004 149.607 29.0732Z" fill="white"/>
<path d="M180 29.0733C180 34.8691 175.335 38.7801 169.822 38.7801C164.215 38.7801 159.55 34.9162 159.55 29.0733C159.55 23.3246 164.168 19.4136 169.822 19.4136C175.335 19.4136 180 23.2774 180 29.0733ZM174.298 29.0733C174.298 26.246 172.131 24.3141 169.822 24.3141C167.419 24.3141 165.251 26.1989 165.251 29.0733C165.251 31.9476 167.419 33.8324 169.822 33.8324C172.084 33.7853 174.298 31.9476 174.298 29.0733Z" fill="white"/>
<path d="M7.91675 45.8481C7.86963 45.801 7.82251 45.801 7.77539 45.7539C7.86963 45.801 7.91675 45.801 7.91675 45.8481Z" fill="#5637E3"/>
<path d="M3.62866 40.146C3.62866 40.0989 3.58154 40.0989 3.58154 40.0518C3.58154 40.0989 3.62866 40.0989 3.62866 40.146Z" fill="#5637E3"/>
<path d="M54.2829 0C53.4819 0.424084 52.9636 1.17801 52.1625 1.60209C52.1625 1.55497 52.1625 1.50785 52.1625 1.46073C51.9269 1.60209 51.974 1.69633 51.8798 1.8377C51.8327 1.93194 51.6442 2.02618 51.5499 2.02618C51.4086 2.02618 51.5028 2.02618 51.4557 1.93194C51.4557 1.97906 50.0421 2.96859 49.8536 3.10995C49.5709 3.34555 49.3353 3.53403 49.0526 3.76963C48.817 3.95811 48.5814 4.33508 48.3458 4.47644C48.2044 4.57068 48.0159 4.57068 47.8274 4.71204C47.5918 4.8534 47.4034 5.04188 47.1677 5.18325C46.9793 5.32461 46.7437 5.37173 46.6023 5.46597C46.3196 5.70157 46.2725 6.03141 46.1311 6.26701C45.8955 6.54974 45.4714 6.78534 45.1887 6.97382C44.8588 7.20942 44.5761 7.44502 44.2934 7.72775C43.6808 8.24607 43.0212 8.7644 42.4086 9.28272C41.2306 10.3194 40.0526 11.4031 38.9217 12.4869C38.262 13.0995 37.6023 13.7592 36.8955 14.3717C36.5657 14.6544 36.2829 14.9372 35.9531 15.267C35.7646 15.4555 35.6232 15.5969 35.4819 15.7853C35.3876 15.9738 35.2463 16.2094 35.152 16.3979C35.0578 13.9476 33.2201 11.4974 30.6285 11.4031C30.6756 11.3089 30.6756 11.2618 30.7227 11.1675C28.4138 10.9319 26.1992 11.2618 24.0316 12.2042C22.0526 13.0524 20.262 14.3246 18.7541 15.8325C18.4714 14.8429 18.0945 13.7592 17.529 12.8639C17.3876 12.6754 17.2463 12.4398 17.1049 12.2513C17.0578 12.2042 16.8222 11.7801 16.8693 12.0628C16.728 11.3089 16.1154 10.4136 15.5971 9.89529C15.6442 9.89529 15.6913 9.94241 15.7384 9.98953C15.4557 9.4712 14.9845 9.28272 14.5604 8.90576C14.3719 8.7644 14.2306 8.48167 14.0421 8.38743C13.8536 8.29319 13.618 8.19895 13.4295 8.10471C13.1468 7.91623 12.8641 7.82199 12.5342 7.72775C12.3929 7.68063 12.2515 7.63351 12.1102 7.63351C12.0159 7.63351 11.7803 7.68063 11.6861 7.63351C11.5918 7.58639 11.5447 7.49215 11.4976 7.44503C11.3562 7.3979 11.1678 7.3979 11.0264 7.3979C10.6965 7.35078 10.3667 7.3979 10.0369 7.3979C8.81173 7.49215 7.53948 7.91623 6.50283 8.62304C5.98451 9 5.56042 9.51832 5.08922 9.98953C4.5709 10.5079 4.05257 11.0733 3.76985 11.7801C3.62849 12.1099 3.58137 12.3455 3.44001 12.6283C3.25152 12.911 3.11016 13.1937 2.9688 13.4764C2.63896 14.1832 2.35624 14.9372 2.26199 15.6911C2.26199 15.644 2.26199 15.5969 2.26199 15.5497C2.02639 16.445 1.83791 17.3874 1.74367 18.2827C1.69655 18.6597 1.69655 19.0366 1.74367 19.3665C1.74367 19.4136 1.79079 19.555 1.79079 19.6021C1.74367 19.7435 1.74367 19.6963 1.64943 19.8377C1.50807 20.0262 1.41383 20.1204 1.31959 20.356C1.17823 20.6859 1.08398 21.0628 1.08398 21.3927C1.08398 21.8168 1.1311 22.1937 1.1311 22.6178C1.1311 23.5131 1.08398 24.4084 1.22535 25.3037C1.27247 25.5864 1.17823 25.7749 1.17823 26.1047C1.17823 26.3403 1.17823 26.5759 1.1311 26.8115C1.1311 26.9058 1.08398 26.8115 1.08398 26.9529C1.08398 27.0471 1.1311 27.1885 1.1311 27.2827C1.17823 27.5183 1.22535 27.7539 1.27247 27.9895C1.36671 28.5079 1.46095 29.0262 1.55519 29.5445C1.93215 31.6178 2.30912 33.6911 2.7332 35.7644C2.9688 36.8953 3.2044 38.0262 3.48713 39.2042C3.53425 39.4869 3.58137 39.7696 3.67561 40.0524C3.76985 40.288 3.91121 40.4293 4.14681 40.5707C4.5709 40.8534 5.32482 41.4188 5.2777 41.3246C5.74891 41.9843 6.12587 43.5864 6.03163 43.4921C6.59707 43.9162 6.78555 44.7173 7.39812 45.1885C7.53948 45.2827 7.72796 45.3298 7.8222 45.4241C7.86932 45.4712 7.77508 45.5183 7.86932 45.5654C8.01069 45.6597 8.24629 46.0366 8.05781 45.9424C10.4609 47.733 13.5238 47.6387 15.974 45.9424C18.2829 44.3403 19.7908 41.8429 21.3458 39.5811C22.3824 38.0733 23.4662 36.6126 24.5971 35.1518C24.5971 35.2461 24.5971 35.3403 24.55 35.4345C24.7384 35.0105 24.8798 34.5864 25.0683 34.1152C25.1154 34.1623 25.1154 34.2565 25.1154 34.3508C26.3876 33.1728 26.906 31.4764 27.9426 30.1099C28.0369 30.2042 28.0369 30.3927 28.1782 30.3927C28.3196 30.3927 28.3667 30.0628 28.4138 29.9215C28.5552 29.6387 28.7437 29.4503 28.9793 29.2618C29.4505 28.8848 29.6861 28.555 29.3562 27.9895C29.4976 27.9895 29.639 28.1309 29.6861 28.2722C30.9112 26.0105 32.1835 23.7958 33.5971 21.6754C33.9269 21.2042 34.2096 20.733 34.5395 20.2618C34.6808 20.0262 34.8693 19.7906 35.0107 19.5079C35.152 19.2251 35.152 18.8953 35.1992 18.5654C35.2463 18.1885 35.2463 17.9529 35.4819 17.6702C35.6704 17.4346 35.8588 17.2461 36.0473 17.0105C36.4714 16.5393 36.8955 16.0681 37.3667 15.5969C37.3667 15.6911 37.6965 15.3613 37.6965 15.4084C38.4034 15.267 38.8274 14.5602 39.2044 14.0419C39.3929 13.8063 39.5342 13.5707 39.7698 13.4293C39.8641 13.3822 40.0526 13.3351 40.0997 13.288C40.241 13.0995 40.0997 12.911 39.9112 12.8639C41.1835 11.5916 42.4557 10.3665 43.7751 9.14136C44.4348 8.52879 45.0945 7.91623 45.707 7.30366C46.0369 7.02094 46.3667 6.6911 46.6494 6.40838C46.8379 6.21989 47.3091 5.56021 47.5918 5.89005C48.5814 4.75916 49.7123 3.76963 50.8903 2.87435C51.5028 2.40314 52.1154 1.97906 52.6808 1.55497C52.8693 1.41361 54.4243 0.235602 54.4243 0.235602C54.2829 0 54.1887 0.0942408 54.1887 0.0942408C54.1887 0.0471204 54.2358 0.0471204 54.2829 0C53.3876 0.424084 54.0002 0.188482 54.2829 0ZM29.4034 12.5812C30.817 12.7696 32.1363 13.3351 33.2672 14.2304C33.5499 14.466 33.7855 14.6544 33.974 15.0314C34.1154 15.3613 34.2096 15.6911 34.2568 16.0209C34.3039 16.3508 34.3039 16.6806 34.2568 17.0105C34.2568 17.1518 34.2568 17.3403 34.1625 17.4817C34.0683 17.6702 33.8327 17.8115 33.6913 17.9529C33.0787 18.4712 32.3719 18.9424 31.7594 19.4136C31.4295 19.6492 31.1468 19.9319 30.8641 20.1675C30.7227 20.3089 30.5814 20.4503 30.44 20.6387C30.3458 20.733 30.2515 20.9686 30.1573 20.7801C29.9217 21.2984 29.5447 21.7696 29.2149 22.1937C29.0264 22.3822 28.885 22.5707 28.6965 22.7592C28.5081 22.9005 28.2253 23.089 28.1311 23.2775C27.9897 23.5131 28.0369 23.8429 27.9426 24.1257C27.8484 24.3141 27.6599 24.4084 27.4714 24.5026C27.1416 24.7382 26.8589 24.9738 26.5761 25.2094C24.3615 26.9529 22.5238 29.0262 20.4034 30.911C18.5185 32.5602 15.9269 34.0681 13.4767 32.7016C13.0526 32.466 12.6285 32.089 12.3929 31.6178C12.1573 31.1937 12.2044 30.6754 12.2515 30.2042C12.3929 28.9319 13.0997 27.801 13.6651 26.7173C15.0316 24.1728 18.4714 19.4136 18.3772 19.6021C18.6128 19.2722 18.8955 18.9895 19.2253 18.7068C19.2253 18.8953 19.3196 19.0366 19.3196 19.2251C19.3196 19.2722 19.2725 19.2722 19.2725 19.2722C19.2253 19.555 19.3667 19.7435 19.3196 19.9791C19.3196 20.1675 19.1782 21.3927 19.1782 21.4398C19.1311 21.4869 19.1311 21.5812 19.084 21.6283C19.0369 21.6283 18.8484 22.6649 19.084 22.6649C19.2253 22.6649 19.1782 22.0995 19.2253 21.9581C19.3196 21.5811 19.3667 21.1571 19.4609 20.733C19.5552 20.2618 19.4609 19.7906 19.4138 19.3194C19.4138 19.178 19.4138 19.0366 19.4138 18.8953C19.4138 18.801 19.3196 18.5654 19.3667 18.4712C19.4138 18.377 19.6494 18.1885 19.7437 18.1414C20.5918 17.3874 26.7175 12.2042 29.4034 12.5812ZM31.7594 22.1466C30.2515 24.6911 28.6494 27.1885 27.0945 29.733C27.0473 29.6859 27.0002 29.6859 26.9531 29.6387C25.728 31.8534 24.0787 33.7853 22.4295 35.6702C21.6285 36.6126 20.8274 37.555 20.0735 38.4974C19.6965 39.0157 19.2725 39.534 18.8955 40.0524C18.5185 40.6178 18.0473 41.1361 17.5761 41.6544C15.974 43.5393 13.995 45.801 11.262 45.6597C9.98974 45.6126 8.81173 45 7.91644 44.1047C7.06828 43.2565 6.64419 42.0785 6.07875 41.089C5.41906 39.911 4.66514 38.733 4.09969 37.5078C3.53425 36.2827 3.25152 35.1047 3.15728 33.7382C2.9688 30.9581 2.68608 28.178 2.4976 25.445C2.30912 22.7592 2.26199 19.9319 2.63896 17.2461C2.82744 15.9267 3.34576 14.5131 3.86409 13.288C4.33529 12.1099 4.99498 11.0262 5.84315 10.1309C7.68084 8.24607 10.5552 7.11518 13.0526 8.43455C14.2306 9.09424 15.173 9.80105 15.9269 10.9791C16.7751 12.2042 17.3876 13.5236 17.9531 14.9372C17.9531 14.8901 17.9531 14.8429 17.9531 14.7958C18.0002 15.0314 18.0945 15.2199 18.1416 15.4555C18.1887 15.5969 18.4243 15.9738 18.3772 16.1152C18.3301 16.2565 18.0473 16.4921 17.9531 16.5864C17.8117 16.7277 17.6704 16.9162 17.529 17.0576C17.2463 17.3874 16.9636 17.7173 16.6337 18.0471C16.351 18.3298 16.3981 18.2827 16.1154 18.0471C15.0787 20.9215 10.7908 21.7225 10.7437 25.1152C10.6494 24.9738 10.5081 24.8325 10.4138 24.6911C10.8379 25.3979 10.084 26.7173 10.084 26.9058C10.0369 27.1414 10.2725 27.5183 10.2725 27.801C10.2725 28.3194 10.084 28.7906 9.8955 29.3089C9.6599 29.9215 9.4243 30.4869 9.51854 31.1466C9.61278 31.712 9.98974 32.2775 10.5081 32.5131C10.5081 32.5131 10.3667 32.5131 10.2725 32.5131C10.7437 32.8429 11.4976 33.0785 11.8274 33.644C11.7332 33.644 11.639 33.7853 11.4976 33.7853C12.0159 34.7749 13.1468 35.2461 14.1835 35.1989C15.5028 35.1518 16.6337 34.5393 17.8589 34.0681C17.8589 34.2565 17.8117 34.445 17.8117 34.6806C18.1887 34.0681 18.9897 33.7382 19.6023 33.3613C20.262 32.9843 20.8746 32.5602 21.3458 31.9005C21.3929 31.9948 21.44 32.0419 21.4871 32.1361C21.5814 31.9005 21.6285 31.6649 21.7227 31.3822C21.817 31.4764 21.9112 31.5707 22.0054 31.6649C22.1939 31.8063 22.0997 31.8534 22.3353 31.712C22.8065 31.4293 23.2306 31.0995 23.6075 30.6754C24.3615 29.8743 24.8798 28.9791 25.5866 28.178C25.6808 28.3194 25.7751 28.4607 25.8693 28.6021C26.3405 26.8586 28.1311 26.1518 29.0264 24.6911C29.0264 24.7382 29.0735 24.7853 29.0735 24.8325C30.2515 23.7016 31.3353 22.4293 32.4191 21.2042C32.1363 21.4869 31.9479 21.8168 31.7594 22.1466C30.2044 24.7382 31.9479 21.8168 31.7594 22.1466Z" fill="#5637E3"/>
</svg>
