<svg width="45" height="45" viewBox="0 0 45 45" fill="none" xmlns="http://www.w3.org/2000/svg">
<path fill-rule="evenodd" clip-rule="evenodd" d="M5.42634 5.08581C3.22167 7.17724 2 10.5722 2 15.8825V29.0642C2 34.9352 3.46167 38.3218 5.76171 40.2818C8.09652 42.2714 11.5195 42.9915 15.9049 42.9915H29.0866C33.2156 42.9915 36.6515 42.281 39.0552 40.2848C41.4199 38.321 42.9915 34.9339 42.9915 29.0866V15.9049C42.9915 10.3687 41.5405 6.96933 39.2206 4.92604C36.875 2.86013 33.4416 2 29.0866 2H15.9049C11.0567 2 7.64188 2.98407 5.42634 5.08581ZM4.04988 3.63482C6.81057 1.01593 10.8482 0 15.9049 0H29.0866C33.645 0 37.664 0.889869 40.5425 3.42519C43.4467 5.98312 44.9915 10.0362 44.9915 15.9049V29.0866C44.9915 35.2795 43.3173 39.3449 40.3329 41.8234C37.3875 44.2696 33.371 44.9915 29.0866 44.9915H15.9049C11.3854 44.9915 7.35593 44.268 4.46451 41.8041C1.53833 39.3105 0 35.2335 0 29.0642V15.8825C0 10.3103 1.27833 6.26402 4.04988 3.63482Z" fill="white"/>
<path fill-rule="evenodd" clip-rule="evenodd" d="M22.4959 13.4614C17.5066 13.4614 13.4536 17.5079 13.4536 22.5037C13.4536 27.5005 17.499 31.546 22.4959 31.546C27.4927 31.546 31.5382 27.5005 31.5382 22.5037C31.5382 17.5069 27.4927 13.4614 22.4959 13.4614ZM11.4536 22.5037C11.4536 16.4023 16.403 11.4614 22.4959 11.4614C28.5973 11.4614 33.5382 16.4023 33.5382 22.5037C33.5382 28.6051 28.5973 33.546 22.4959 33.546C16.3945 33.546 11.4536 28.6051 11.4536 22.5037Z" fill="white"/>
<path d="M33.9731 13.5951C35.3964 13.5951 36.5502 12.4413 36.5502 11.018C36.5502 9.59473 35.3964 8.44092 33.9731 8.44092C32.5498 8.44092 31.396 9.59473 31.396 11.018C31.396 12.4413 32.5498 13.5951 33.9731 13.5951Z" fill="white"/>
</svg>
