<svg width="345" height="63" viewBox="0 0 345 63" fill="none" xmlns="http://www.w3.org/2000/svg">
<path d="M0 63H62.6099C62.6099 44.0026 62.6099 19.6469 62.6099 0H0C0 18.6727 0 45.4639 0 63ZM21.623 14.2887H48.4097V41.2423L39.8573 32.6366L20.8162 51.7964L11.2956 42.0541L30.3368 22.8943L21.623 14.2887Z" fill="#025BFF"/>
<path d="M21.6228 14.2891H48.4095V41.2427L39.8572 32.637L20.816 51.7968L11.2954 42.0545L30.1752 22.8947L21.6228 14.2891Z" fill="white"/>
<path d="M264.317 20.4587H270.933V27.1159H264.317V20.4587ZM345 36.2086V6.16999H332.575L327.411 20.4587L322.247 6.16999H309.822V36.2086H318.859V18.1855L325.475 36.2086H329.509L336.125 18.1855V36.2086H345ZM304.82 36.2086V6.16999H276.097V36.2086H285.133V14.1262H295.783V36.2086H304.82ZM248.665 18.8349H242.855V14.1262H248.665C250.117 14.1262 251.408 14.938 251.408 16.3994C251.408 17.8607 250.278 18.8349 248.665 18.8349ZM243.017 36.2086V26.7911H249.955C256.894 26.7911 260.606 22.0824 260.606 16.5617C260.606 11.0411 256.894 6.33236 249.955 6.33236H233.98V36.371H243.017V36.2086ZM214.455 28.7396C210.098 28.7396 207.355 25.4922 207.355 21.2705C207.355 17.0489 210.098 13.8014 214.455 13.8014C218.812 13.8014 221.716 17.0489 221.716 21.2705C221.716 25.4922 218.812 28.7396 214.455 28.7396ZM214.455 36.6958C223.653 36.6958 230.753 30.3633 230.753 21.1081C230.753 11.853 223.653 5.52051 214.455 5.52051C205.257 5.52051 198.157 11.853 198.157 21.1081C198.157 30.3633 205.257 36.6958 214.455 36.6958ZM189.443 36.2086V14.1262H197.35V6.16999H172.339V14.1262H180.407V36.2086H189.443ZM172.5 36.2086L160.72 20.1339L172.016 6.16999H161.043L153.297 17.3736V6.16999H144.261V36.2086H153.297V27.9277L154.911 25.6545L161.688 36.2086H172.5ZM140.065 36.2086V28.2525H126.511V25.005H139.743V17.0489H126.511V14.1262H140.065V6.16999H117.474V36.2086H140.065ZM102.629 28.5772H95.367V24.6803H102.629C103.919 24.6803 104.726 25.4922 104.726 26.6287C104.726 27.7653 103.758 28.5772 102.629 28.5772ZM102.306 17.2112H95.367V13.6391H102.306C103.274 13.6391 104.081 14.2885 104.081 15.2628C104.081 16.3994 103.274 17.2112 102.306 17.2112ZM105.049 36.2086C111.02 36.2086 113.763 32.3117 113.763 28.0901C113.763 24.1932 111.342 21.2705 108.115 20.7834C111.02 20.1339 113.117 17.6983 113.117 13.9638C113.117 10.3916 110.535 6.33236 104.242 6.33236H86.3306V36.371H105.049V36.2086Z" fill="white"/>
<path d="M93.7534 56.83V48.8739H86.3306V56.83H88.4283V50.6599H91.6556V56.83H93.7534ZM100.369 57.1548C102.306 57.1548 103.919 55.5311 103.919 52.9331C103.919 50.3352 102.467 48.7115 100.369 48.7115C99.4012 48.7115 98.433 49.1986 97.9489 49.8481V48.8739H95.8511V59.9151H97.9489V55.8558C98.5944 56.6677 99.4012 57.1548 100.369 57.1548ZM99.7239 55.2063C99.0785 55.2063 98.2716 54.7192 97.9489 54.2321V51.3094C98.2716 50.8223 99.0785 50.4976 99.7239 50.4976C101.015 50.4976 101.66 51.4718 101.66 52.7708C101.66 54.2321 101.015 55.2063 99.7239 55.2063ZM109.083 57.1548C111.665 57.1548 113.279 55.2063 113.279 52.9331C113.279 50.6599 111.665 48.7115 109.083 48.7115C106.501 48.7115 104.888 50.6599 104.888 52.9331C104.888 55.2063 106.501 57.1548 109.083 57.1548ZM109.083 55.2063C107.792 55.2063 107.147 54.0697 107.147 52.9331C107.147 51.7965 107.792 50.6599 109.083 50.6599C110.374 50.6599 111.181 51.7965 111.181 52.9331C111.181 54.0697 110.374 55.2063 109.083 55.2063ZM116.99 56.83L120.379 51.7965V56.83H122.476V48.8739H120.379L117.151 53.745V48.8739H115.054V56.83H116.99ZM127.317 57.1548C129.738 57.1548 131.19 56.1806 131.19 54.7192C131.19 53.5826 129.899 52.9331 128.931 52.7708C130.061 52.6084 131.029 51.9589 131.029 50.8223C131.029 49.361 129.577 48.5491 127.156 48.5491C125.704 48.5491 124.574 49.0362 123.767 49.8481L124.736 51.147C125.381 50.4976 126.188 50.1728 127.156 50.1728C128.124 50.1728 128.77 50.4976 128.77 50.9847C128.77 51.4718 128.286 51.7965 127.156 51.7965H125.542V53.4202H127.156C128.286 53.4202 128.931 53.745 128.931 54.2321C128.931 54.7192 128.286 55.044 127.317 55.044C126.349 55.044 125.381 54.7192 124.574 54.0697L123.606 55.3687C124.413 56.5053 125.704 57.1548 127.317 57.1548ZM137.968 56.83C139.581 56.83 140.388 55.8558 140.388 54.7192C140.388 53.745 139.743 52.9331 138.936 52.7708C139.743 52.6084 140.388 51.9589 140.388 50.9847C140.388 49.8481 139.581 48.8739 137.968 48.8739H132.965V56.83H137.968ZM137.484 55.2063H134.902V53.745H137.484C137.968 53.745 138.29 54.0697 138.29 54.5568C138.29 54.8816 137.968 55.2063 137.484 55.2063ZM137.322 51.9589H134.74V50.6599H137.322C137.806 50.6599 138.129 50.9847 138.129 51.3094C138.129 51.6342 137.806 51.9589 137.322 51.9589ZM146.036 57.1548C148.618 57.1548 150.231 55.2063 150.231 52.9331C150.231 50.6599 148.618 48.7115 146.036 48.7115C143.454 48.7115 141.84 50.6599 141.84 52.9331C141.84 55.2063 143.454 57.1548 146.036 57.1548ZM146.036 55.2063C144.745 55.2063 143.938 54.0697 143.938 52.9331C143.938 51.7965 144.745 50.6599 146.036 50.6599C147.327 50.6599 147.972 51.7965 147.972 52.9331C147.972 54.0697 147.327 55.2063 146.036 55.2063ZM151.038 58.9409H153.297V56.83H158.138V58.7785H160.236V54.8816H159.429V48.7115H152.975L152.491 52.6084C152.329 54.5568 151.845 54.8816 151.2 54.8816V58.9409H151.038ZM154.75 50.6599H157.331V55.044H153.62C154.104 54.5568 154.427 53.9074 154.588 52.9331L154.75 50.6599ZM165.238 57.1548C166.852 57.1548 167.82 56.3429 168.466 55.6934L167.013 54.3945C166.691 54.8816 166.045 55.2063 165.4 55.2063C164.109 55.2063 163.302 54.2321 163.302 52.9331C163.302 51.4718 164.109 50.6599 165.4 50.6599C166.207 50.6599 166.691 50.9847 167.013 51.4718L168.466 50.1728C167.982 49.361 167.013 48.7115 165.238 48.7115C162.818 48.7115 161.043 50.4976 161.043 52.9331C161.043 55.3687 162.818 57.1548 165.238 57.1548ZM173.307 56.83V50.6599H175.566V48.8739H168.95V50.6599H171.209V56.83H173.307ZM182.02 56.83C183.634 56.83 184.441 55.8558 184.441 54.7192C184.441 53.745 183.795 52.9331 182.989 52.7708C183.795 52.6084 184.28 51.9589 184.28 50.9847C184.28 49.8481 183.473 48.8739 181.859 48.8739H176.857V56.83H182.02ZM181.536 55.2063H178.955V53.745H181.536C182.02 53.745 182.343 54.0697 182.343 54.5568C182.343 54.8816 182.02 55.2063 181.536 55.2063ZM181.536 51.9589H178.955V50.6599H181.536C182.02 50.6599 182.343 50.9847 182.343 51.3094C182.182 51.6342 181.859 51.9589 181.536 51.9589ZM190.25 57.1548C191.541 57.1548 192.671 56.6677 193.477 56.0182L192.509 54.7192C192.025 55.2063 191.057 55.5311 190.411 55.5311C188.959 55.5311 188.314 54.7192 188.152 53.745H194.123V53.2579C194.123 50.6599 192.509 48.8739 190.089 48.8739C187.668 48.8739 185.893 50.8223 185.893 53.0955C186.055 55.5311 187.83 57.1548 190.25 57.1548ZM192.025 52.1213H188.152C188.314 51.3094 188.798 50.3352 190.089 50.3352C191.541 50.3352 192.025 51.3094 192.025 52.1213ZM197.673 56.83V53.5826H200.9V56.83H202.998V48.8739H200.9V51.7965H197.673V48.8739H195.575V56.83H197.673ZM207.194 56.83V53.5826H210.421V56.83H212.519V48.8739H210.421V51.7965H207.194V48.8739H205.096V56.83H207.194ZM218.328 57.1548C220.91 57.1548 222.523 55.2063 222.523 52.9331C222.523 50.6599 220.91 48.7115 218.328 48.7115C215.746 48.7115 214.132 50.6599 214.132 52.9331C214.132 55.2063 215.746 57.1548 218.328 57.1548ZM218.328 55.2063C217.037 55.2063 216.391 54.0697 216.391 52.9331C216.391 51.7965 217.198 50.6599 218.328 50.6599C219.619 50.6599 220.426 51.7965 220.426 52.9331C220.426 54.0697 219.619 55.2063 218.328 55.2063ZM227.848 57.1548C229.139 57.1548 230.269 56.6677 231.076 56.0182L230.107 54.7192C229.623 55.2063 228.655 55.5311 228.01 55.5311C226.557 55.5311 225.912 54.7192 225.751 53.745H231.721V53.2579C231.721 50.6599 230.107 48.8739 227.687 48.8739C225.266 48.8739 223.491 50.8223 223.491 53.0955C223.653 55.5311 225.428 57.1548 227.848 57.1548ZM229.785 52.1213H225.912C226.073 51.3094 226.557 50.3352 227.848 50.3352C229.139 50.3352 229.623 51.3094 229.785 52.1213ZM245.437 57.1548C248.019 57.1548 249.633 55.2063 249.633 52.9331C249.633 50.6599 248.019 48.7115 245.437 48.7115C242.855 48.7115 241.242 50.6599 241.242 52.9331C241.08 55.2063 242.694 57.1548 245.437 57.1548ZM245.437 55.2063C244.146 55.2063 243.501 54.0697 243.501 52.9331C243.501 51.7965 244.308 50.6599 245.437 50.6599C246.728 50.6599 247.535 51.7965 247.535 52.9331C247.535 54.0697 246.728 55.2063 245.437 55.2063ZM254.796 55.2063C253.505 55.2063 252.86 54.0697 252.86 52.7708C252.86 51.6342 253.505 50.4976 254.796 50.4976C256.087 50.4976 256.733 51.6342 256.733 52.7708C256.894 54.0697 256.087 55.2063 254.796 55.2063ZM254.796 57.1548C257.378 57.1548 258.992 55.2063 258.992 52.9331C258.992 50.6599 257.54 48.7115 255.281 48.7115C254.151 48.7115 253.183 49.1986 252.537 50.0104C252.699 49.0362 253.505 48.2244 255.442 48.062C256.733 47.8996 258.669 47.4125 258.669 45.9512H256.571C256.571 46.2759 256.087 46.4383 254.796 46.6007C252.053 46.9254 250.601 48.7115 250.601 52.6084C250.601 55.2063 252.215 57.1548 254.796 57.1548ZM266.899 56.83C268.674 56.83 269.642 55.6934 269.642 54.2321C269.642 52.7708 268.674 51.6342 266.899 51.6342H264.156V48.8739H259.799V50.6599H262.058V56.83H266.899ZM266.576 53.4202C267.06 53.4202 267.544 53.745 267.544 54.2321C267.544 54.7192 267.222 55.044 266.576 55.044H264.156V53.2579H266.576V53.4202ZM274.967 57.1548C276.258 57.1548 277.388 56.6677 278.194 56.0182L277.226 54.7192C276.742 55.2063 275.774 55.5311 275.129 55.5311C273.838 55.5311 273.031 54.7192 272.869 53.745H278.84V53.2579C278.84 50.6599 277.226 48.8739 274.806 48.8739C272.385 48.8739 270.61 50.8223 270.61 53.0955C270.772 55.5311 272.547 57.1548 274.967 57.1548ZM276.742 52.1213H272.869C273.031 51.3094 273.515 50.3352 274.806 50.3352C276.258 50.3352 276.742 51.3094 276.742 52.1213ZM279.647 58.9409H281.745V56.83H286.585V58.7785H288.683V54.8816H287.876V48.7115H281.422L280.938 52.6084C280.615 54.5568 280.292 54.8816 279.647 54.8816V58.9409ZM283.197 50.6599H285.779V55.044H282.067C282.551 54.5568 282.874 53.9074 283.035 52.9331L283.197 50.6599ZM292.072 56.83L295.461 51.7965V56.83H297.558V48.8739H295.299L292.072 53.745V48.8739H289.974V56.83H292.072ZM301.592 56.83V53.5826H304.82V56.83H306.918V48.8739H304.981V51.7965H301.754V48.8739H299.656V56.83H301.592ZM312.888 57.1548C314.179 57.1548 315.309 56.6677 316.115 56.0182L315.147 54.7192C314.663 55.2063 313.695 55.5311 313.049 55.5311C311.597 55.5311 310.952 54.7192 310.79 53.745H316.761V53.2579C316.761 50.6599 315.147 48.8739 312.727 48.8739C310.306 48.8739 308.531 50.8223 308.531 53.0955C308.531 55.5311 310.468 57.1548 312.888 57.1548ZM314.663 52.1213H310.79C310.952 51.3094 311.436 50.3352 312.727 50.3352C314.018 50.3352 314.663 51.3094 314.663 52.1213ZM320.311 56.83V53.5826H323.538V56.83H325.636V48.8739H323.538V51.7965H320.311V48.8739H318.213V56.83H320.311ZM329.67 56.83L333.059 51.7965V56.83H335.157V48.8739H333.059L329.831 53.745V48.8739H327.734V56.83H329.67ZM341.127 57.1548C342.418 57.1548 343.548 56.6677 344.354 56.0182L343.386 54.7192C342.902 55.2063 341.934 55.5311 341.288 55.5311C339.836 55.5311 339.029 54.7192 339.029 53.745H345V53.2579C345 50.6599 343.386 48.8739 340.966 48.8739C338.545 48.8739 336.77 50.8223 336.77 53.0955C336.77 55.5311 338.545 57.1548 341.127 57.1548ZM342.902 52.1213H338.868C339.029 51.3094 339.513 50.3352 340.804 50.3352C342.257 50.3352 342.741 51.3094 342.902 52.1213Z" fill="white"/>
</svg>
