<svg width="45" height="45" viewBox="0 0 45 45" fill="none" xmlns="http://www.w3.org/2000/svg">
<path d="M15.9049 1C27.9452 1 17.0463 1 29.0866 1C41.1269 1 43.9915 3.86461 43.9915 15.9049C43.9915 27.9452 43.9915 17.0463 43.9915 29.0866C43.9915 41.1269 41.1269 43.9915 29.0866 43.9915C17.0463 43.9915 27.9452 43.9915 15.9049 43.9915C3.86461 43.9915 1 41.1045 1 29.0642C1 17.0239 1 22.5964 1 15.8825C1 3.86461 3.86461 1 15.9049 1Z" stroke="white" stroke-width="2" stroke-miterlimit="10"/>
<path fill-rule="evenodd" clip-rule="evenodd" d="M36.1807 15.7932C36.3821 15.1218 36.1807 14.6519 35.2408 14.6519H32.1076C31.3019 14.6519 30.9439 15.0771 30.7424 15.547C30.7424 15.547 29.1535 19.4411 26.8931 21.9476C26.1546 22.6862 25.8413 22.91 25.4384 22.91C25.237 22.91 24.9461 22.6862 24.9461 22.0148V15.7932C24.9461 14.9876 24.7223 14.6519 24.0509 14.6519H19.1274C18.635 14.6519 18.3217 15.0323 18.3217 15.368C18.3217 16.1289 19.4407 16.308 19.575 18.4117V23.0443C19.575 24.0513 19.3959 24.2304 18.9931 24.2304C17.9412 24.2304 15.3452 20.3363 13.8234 15.8604C13.5324 14.9876 13.2191 14.6519 12.4134 14.6519H9.28028C8.38509 14.6519 8.20605 15.0771 8.20605 15.547C8.20605 16.3751 9.2579 20.493 13.152 25.9312C15.748 29.6463 19.3959 31.6605 22.7081 31.6605C24.6999 31.6605 24.9461 31.2129 24.9461 30.4519V27.6321C24.9461 26.7369 25.1251 26.5579 25.7741 26.5579C26.2441 26.5579 27.0274 26.7817 28.8849 28.5721C31.011 30.6981 31.3691 31.6605 32.5552 31.6605H35.6884C36.5836 31.6605 37.0312 31.2129 36.7626 30.3401C36.4717 29.4672 35.4646 28.1916 34.1218 26.6698C33.3833 25.797 32.2866 24.8794 31.9733 24.4094C31.5034 23.8052 31.6376 23.5366 31.9733 23.0219C31.9733 22.9995 35.8003 17.6284 36.1807 15.7932Z" stroke="white" stroke-width="2" stroke-miterlimit="10"/>
</svg>
